<svg height="48" viewBox="0 0 13.546667 13.546667" width="48" xmlns="http://www.w3.org/2000/svg"><g fill-rule="evenodd"><rect fill="#f9f9f9" fill-rule="evenodd" height="12.982223" rx="6.491111" width="12.982223" x=".282222" y=".282222"/><rect fill="#62c4ec" height="11.853333" rx="5.926667" width="11.853333" x=".846667" y=".846667"/><g fill="#ffd42a" fill-rule="evenodd" transform="matrix(.17965921 .1037263 -.1037263 .17965921 3.248994 6.447195)"><path d="m87.500144 26.225473-2.687263 4.654476-2.687263 4.654476-2.687263-4.654476-2.687263-4.654476h5.374526z" transform="matrix(.30658884 -.05086676 .17620762 1.0620548 -7.458116 -23.060573)"/><path d="m19.473333.282222h4.515556v1.975556h-4.515556z"/><path d="m19.473333-4.769556h1.975556v5.08h-1.975556z"/></g><g fill="#ffd42a" fill-rule="evenodd" transform="matrix(.17965921 .1037263 -.1037263 .17965921 .167337 6.24139)"><path d="m87.500144 26.225473-2.687263 4.654476-2.687263 4.654476-2.687263-4.654476-2.687263-4.654476h5.374526z" transform="matrix(.30658884 -.05086676 .17620762 1.0620548 -7.458116 -23.060573)"/><path d="m19.473333.282222h4.515556v1.975556h-4.515556z"/><path d="m19.473333-4.769556h1.975556v5.08h-1.975556z"/></g><path d="m-5.5526778-9.3876855c.7944705 0 1.4753018.4497948 1.8372585 1.0980436.203769-.1526137.4640324-.2513745.7496466-.2513745.6491247 0 1.1759528.4741322 1.1759528 1.0583325 0 .1311975-.02493.2544212-.073479.3704138.7382634.2967626 1.24942539.9690142 1.24942539 1.7462602 0 1.0553702-.94405259 1.9049903-2.11671479 1.9049903h-4.2332381c-1.1726599 0-2.1167143-.8496201-2.1167143-1.9049903 0-.8360896.5964424-1.5413581 1.4257226-1.7991705 0-.035944-.014588-.06921-.014588-.1057987 0-1.1684117.9482875-2.1166746 2.1167157-2.1166746z" fill="#f9f9f9" fill-rule="evenodd" transform="matrix(1.0091379 0 0 1.0091379 11.949972 11.404511)"/><g fill="#ffd42a" fill-rule="evenodd" transform="matrix(.35931843 .2074526 -.2074526 .35931843 -2.04138 3.104809)"><path d="m87.500144 26.225473-2.687263 4.654476-2.687263 4.654476-2.687263-4.654476-2.687263-4.654476h5.374526z" transform="matrix(.30658884 -.05086676 .17620762 1.0620548 -7.458116 -23.060573)"/><path d="m19.473333.282222h4.515556v1.975556h-4.515556z"/><path d="m19.473333-4.769556h1.975556v5.08h-1.975556z"/></g><path d="m19.13371 27.809038a1.3409069 1.0572535 0 1 1 -2.681814 0 1.3409069 1.0572535 0 1 1 2.681814 0z" fill="#264e7a" transform="matrix(.21239443 0 0 .26937829 2.140174 .990317)"/><g fill-rule="evenodd"><path d="m19.13371 27.809038a1.3409069 1.0572535 0 1 1 -2.681814 0 1.3409069 1.0572535 0 1 1 2.681814 0z" fill="#f2f2f2" transform="matrix(.21239443 0 0 .26937829 3.848981 .990317)"/><path d="m19.13371 27.809038a1.3409069 1.0572535 0 1 1 -2.681814 0 1.3409069 1.0572535 0 1 1 2.681814 0z" fill="#264e7a" transform="matrix(.21239443 0 0 .26937829 5.557788 .990317)"/><path d="m19.13371 27.809038a1.3409069 1.0572535 0 1 1 -2.681814 0 1.3409069 1.0572535 0 1 1 2.681814 0z" fill="#f2f2f2" transform="matrix(.21239443 0 0 .26937829 1.570572 2.129521)"/><path d="m19.13371 27.809038a1.3409069 1.0572535 0 1 1 -2.681814 0 1.3409069 1.0572535 0 1 1 2.681814 0z" fill="#264e7a" transform="matrix(.21239443 0 0 .26937829 3.279379 2.129521)"/><path d="m19.13371 27.809038a1.3409069 1.0572535 0 1 1 -2.681814 0 1.3409069 1.0572535 0 1 1 2.681814 0z" fill="#f2f2f2" transform="matrix(.21239443 0 0 .26937829 4.988186 2.129521)"/><path d="m19.13371 27.809038a1.3409069 1.0572535 0 1 1 -2.681814 0 1.3409069 1.0572535 0 1 1 2.681814 0z" fill="#264e7a" transform="matrix(.21239443 0 0 .26937829 1.00097 3.268726)"/><path d="m19.13371 27.809038a1.3409069 1.0572535 0 1 1 -2.681814 0 1.3409069 1.0572535 0 1 1 2.681814 0z" fill="#f2f2f2" transform="matrix(.21239443 0 0 .26937829 2.709776 3.268726)"/><path d="m19.13371 27.809038a1.3409069 1.0572535 0 1 1 -2.681814 0 1.3409069 1.0572535 0 1 1 2.681814 0z" fill="#264e7a" transform="matrix(.21239443 0 0 .26937829 4.418583 3.268726)"/></g></g></svg>