<svg height="48" viewBox="0 0 13.546667 13.546667" width="48" xmlns="http://www.w3.org/2000/svg"><g fill-rule="evenodd"><rect fill="#f9f9f9" fill-rule="evenodd" height="12.982223" rx="6.491111" width="12.982223" x=".282222" y=".282222"/><rect fill="#62c4ec" height="11.853333" rx="5.926667" width="11.853333" x=".846667" y=".846667"/><g fill-rule="evenodd"><path d="m-.53033066 30.94105a12.020815 12.462757 0 1 1 -24.04162934 0 12.020815 12.462757 0 1 1 24.04162934 0z" fill="#fae75d" transform="matrix(.23477795 0 0 .23477795 8.873399 .251966)"/><path d="m-5.5526778-9.3876855c.7944705 0 1.4753018.4497948 1.8372585 1.0980436.203769-.1526137.4640324-.2513745.7496466-.2513745.6491247 0 1.1759528.4741322 1.1759528 1.0583325 0 .1311975-.02493.2544212-.073479.3704138.7382634.2967626 1.24942539.9690142 1.24942539 1.7462602 0 1.0553702-.94405259 1.9049903-2.11671479 1.9049903h-4.2332381c-1.1726599 0-2.1167143-.8496201-2.1167143-1.9049903 0-.8360896.5964424-1.5413581 1.4257226-1.7991705 0-.035944-.014588-.06921-.014588-.1057987 0-1.1684117.9482875-2.1166746 2.1167157-2.1166746z" fill="#ccc" transform="matrix(1.0091379 0 0 1.0091379 11.949972 11.404511)"/><path d="m18.963285 29.984878.01823.04135.04493-.0049-.0267.03647.0267.03647-.04493-.0049-.01823.04135-.01823-.04135-.04493.0049.0267-.03647-.0267-.03647.04493.0049z" fill="#fff" stroke="#fff" transform="matrix(.28222223 0 0 .28222223 0 .104211)"/><path d="m18.963285 29.984878.01823.04135.04493-.0049-.0267.03647.0267.03647-.04493-.0049-.01823.04135-.01823-.04135-.04493.0049.0267-.03647-.0267-.03647.04493.0049z" fill="#fff" stroke="#fff" transform="matrix(.28222223 0 0 .28222223 3.386632 .104211)"/><path d="m18.963285 29.984878.02144.04343.04793.007-.03468.03381.0082.04774-.04287-.02254-.04287.02254.0082-.04774-.03468-.03381.04793-.007z" fill="#fff" stroke="#fff" transform="matrix(.28222223 0 0 .28222223 -.282256 .950877)"/><path d="m18.963285 29.984878.01823.04135.04493-.0049-.0267.03647.0267.03647-.04493-.0049-.01823.04135-.01823-.04135-.04493.0049.0267-.03647-.0267-.03647.04493.0049z" fill="#fff" stroke="#fff" transform="matrix(.28222223 0 0 .28222223 -.564479 1.797544)"/><path d="m18.963285 29.984878.02144.04343.04793.007-.03468.03381.0082.04774-.04287-.02254-.04287.02254.0082-.04774-.03468-.03381.04793-.007z" fill="#fff" stroke="#fff" transform="matrix(.28222223 0 0 .28222223 3.10441 .950877)"/><path d="m18.963285 29.984878.01823.04135.04493-.0049-.0267.03647.0267.03647-.04493-.0049-.01823.04135-.01823-.04135-.04493.0049.0267-.03647-.0267-.03647.04493.0049z" fill="#fff" stroke="#fff" transform="matrix(.28222223 0 0 .28222223 1.411077 .950877)"/><path d="m18.963285 29.984878.02144.04343.04793.007-.03468.03381.0082.04774-.04287-.02254-.04287.02254.0082-.04774-.03468-.03381.04793-.007z" fill="#fff" stroke="#fff" transform="matrix(.28222223 0 0 .28222223 1.693299 .104211)"/><path d="m18.963285 29.984878.02144.04343.04793.007-.03468.03381.0082.04774-.04287-.02254-.04287.02254.0082-.04774-.03468-.03381.04793-.007z" fill="#fff" stroke="#fff" transform="matrix(.28222223 0 0 .28222223 1.128855 1.797544)"/><path d="m18.963285 29.984878.01823.04135.04493-.0049-.0267.03647.0267.03647-.04493-.0049-.01823.04135-.01823-.04135-.04493.0049.0267-.03647-.0267-.03647.04493.0049z" fill="#fff" stroke="#fff" transform="matrix(.28222223 0 0 .28222223 2.822188 1.797544)"/><path d="m18.963285 29.984878.02579.04715.04715.02579-.04715.02579-.02579.04715-.02579-.04715-.04715-.02579.04715-.02579z" fill="#fff" stroke="#e6e6e6" transform="matrix(.28222223 0 0 .28222223 .736501 .527544)"/><path d="m18.963285 29.984878.02579.04715.04715.02579-.04715.02579-.02579.04715-.02579-.04715-.04715-.02579.04715-.02579z" fill="#fff" stroke="#e6e6e6" transform="matrix(.28222223 0 0 .28222223 2.449505 .576354)"/><path d="m18.963285 29.984878.02579.04715.04715.02579-.04715.02579-.02579.04715-.02579-.04715-.04715-.02579.04715-.02579z" fill="#fff" stroke="#e6e6e6" transform="matrix(.28222223 0 0 .28222223 .391098 1.482054)"/><path d="m18.963285 29.984878.02579.04715.04715.02579-.04715.02579-.02579.04715-.02579-.04715-.04715-.02579.04715-.02579z" fill="#fff" stroke="#e6e6e6" transform="matrix(.28222223 0 0 .28222223 2.078992 1.482054)"/></g></g></svg>