o Default
v -0.5 -0.0001289710053242743 0.49994999170303345
v 0.5 -0.000028971004212507978 -0.5000500082969666
v -0.5 -0.000028971004212507978 -0.5000500082969666
v 0.5 -0.0001289710053242743 0.49994999170303345
v -0.5 -0.625 -0.375
v 0.5 0.375 -0.375
v -0.5 0.375 -0.375
v 0.5 -0.625 -0.375
v -0.5 -0.625 0.375
v 0.5 0.375 0.375
v -0.5 0.375 0.375
v 0.5 -0.625 0.375
v -0.4375 0.125 0.5
v -0.4375 1.125 -0.5
v -0.4375 1.125 0.5
v -0.4375 0.125 -0.5
v -0.43208858370780945 0.6012123823165894 0.3125
v -0.19701506197452545 0.36033540964126587 0
v -0.43208858370780945 0.6012123823165894 0
v -0.3125 0.3125 0.3125
v -0.19291141629219055 0.023787617683410645 0.3125
v -0.19291141629219055 0.023787617683410645 0
v -0.43208858370780945 0.6012123823165894 -0.3125
v -0.3125 0.3125 -0.3125
v -0.19291141629219055 0.023787617683410645 -0.3125
v -0.42798495292663574 0.26466459035873413 0
v 0.0625 0.13124999403953552 0
v 0.375 0.00625002384185791 -0.3125
v 0.0625 0.00625002384185791 -0.3125
v 0.375 0.00625002384185791 0
v -0.25 0.00625002384185791 0.3125
v -0.25 0.00625002384185791 0
v 0.0625 0.00625002384185791 0.3125
v -0.25 0.00625002384185791 -0.3125
v 0.375 0.00625002384185791 0.3125
v 0.28871238231658936 0.06791144609451294 0.3125
v 0.04783543944358826 0.30298495292663574 0
v 0 0.1875 0.3125
v 0.28871238231658936 0.06791144609451294 0
v 0.28871238231658936 0.06791144609451294 -0.3125
v 0 0.1875 -0.3125
v -0.28871235251426697 0.30708858370780945 -0.3125
v -0.28871235251426697 0.30708858370780945 0
v -0.28871235251426697 0.30708858370780945 0.3125
v -0.04783543944358826 0.07201504707336426 0
vt 0 0.75
vt 0.25 1
vt 0 1
vt 0 0.75
vt 0.25 0.75
vt 0.25 1
vt 0 0.5
vt 0.25 0.75
vt 0 0.75
vt 0 0.5
vt 0.25 0.5
vt 0.25 0.75
vt 0 0.5
vt 0.25 0.75
vt 0 0.75
vt 0 0.5
vt 0.25 0.5
vt 0.25 0.75
vt 0.25 0.75
vt 0.5 1
vt 0.25 1
vt 0.25 0.75
vt 0.5 0.75
vt 0.5 1
vt 0.5 1
vt 0.578125 0.921875
vt 0.578125 1
vt 0.5 1
vt 0.5 0.921875
vt 0.578125 0.921875
vt 0.5 0.84375
vt 0.578125 0.921875
vt 0.5 0.921875
vt 0.5 0.84375
vt 0.578125 0.84375
vt 0.578125 0.921875
vt 0.578125 0.921875
vt 0.65625 1
vt 0.578125 1
vt 0.578125 0.921875
vt 0.65625 0.921875
vt 0.65625 1
vt 0.578125 0.921875
vt 0.65625 0.84375
vt 0.65625 0.921875
vt 0.578125 0.921875
vt 0.578125 0.84375
vt 0.65625 0.84375
vt 0.65625 1
vt 0.734375 0.921875
vt 0.734375 1
vt 0.65625 1
vt 0.65625 0.921875
vt 0.734375 0.921875
vt 0.65625 0.84375
vt 0.734375 0.921875
vt 0.65625 0.921875
vt 0.65625 0.84375
vt 0.734375 0.84375
vt 0.734375 0.921875
vt 0.734375 0.921875
vt 0.8125 1
vt 0.734375 1
vt 0.734375 0.921875
vt 0.8125 0.921875
vt 0.8125 1
vt 0.734375 0.921875
vt 0.8125 0.84375
vt 0.8125 0.921875
vt 0.734375 0.921875
vt 0.734375 0.84375
vt 0.8125 0.84375
vt 0.578125 0.921875
vt 0.65625 0.84375
vt 0.65625 0.921875
vt 0.578125 0.921875
vt 0.578125 0.84375
vt 0.65625 0.84375
vt 0.5 1
vt 0.578125 0.921875
vt 0.578125 1
vt 0.5 1
vt 0.5 0.921875
vt 0.578125 0.921875
vt 0.578125 0.921875
vt 0.65625 1
vt 0.578125 1
vt 0.578125 0.921875
vt 0.65625 0.921875
vt 0.65625 1
vt 0.5 0.84375
vt 0.578125 0.921875
vt 0.5 0.921875
vt 0.5 0.84375
vt 0.578125 0.84375
vt 0.578125 0.921875
vt 0.5 0.84375
vt 0.578125 0.921875
vt 0.5 0.921875
vt 0.5 0.84375
vt 0.578125 0.84375
vt 0.578125 0.921875
vt 0.578125 0.921875
vt 0.65625 0.84375
vt 0.65625 0.921875
vt 0.578125 0.921875
vt 0.578125 0.84375
vt 0.65625 0.84375
vt 0.578125 0.921875
vt 0.65625 1
vt 0.578125 1
vt 0.578125 0.921875
vt 0.65625 0.921875
vt 0.65625 1
vt 0.5 1
vt 0.578125 0.921875
vt 0.578125 1
vt 0.5 1
vt 0.5 0.921875
vt 0.578125 0.921875
vt 0.734375 0.921875
vt 0.8125 1
vt 0.734375 1
vt 0.734375 0.921875
vt 0.8125 0.921875
vt 0.8125 1
vt 0.734375 0.921875
vt 0.8125 0.84375
vt 0.8125 0.921875
vt 0.734375 0.921875
vt 0.734375 0.84375
vt 0.8125 0.84375
vt 0.65625 1
vt 0.734375 0.921875
vt 0.734375 1
vt 0.65625 1
vt 0.65625 0.921875
vt 0.734375 0.921875
vt 0.65625 0.84375
vt 0.734375 0.921875
vt 0.65625 0.921875
vt 0.65625 0.84375
vt 0.734375 0.84375
vt 0.734375 0.921875
vn 0 0.999999995 0.00010000000061176633
vn 0 0.999999995 0.00010000000061176633
vn 0 0.999999995 0.00010000000061176633
vn 0 0.999999995 0.00010000000061176633
vn 0 0.999999995 0.00010000000061176633
vn 0 0.999999995 0.00010000000061176633
vn 0 0 1
vn 0 0 1
vn 0 0 1
vn 0 0 1
vn 0 0 1
vn 0 0 1
vn 0 0 1
vn 0 0 1
vn 0 0 1
vn 0 0 1
vn 0 0 1
vn 0 0 1
vn 1 0 0
vn 1 0 0
vn 1 0 0
vn 1 0 0
vn 1 0 0
vn 1 0 0
vn 0.7156756104212717 0.69843283188016 0
vn 0.7156756104212717 0.69843283188016 0
vn 0.7156756104212717 0.69843283188016 0
vn 0.8578006219524696 0.35531264942591106 0.3713906489613006
vn 0.8578006219524696 0.35531264942591106 0.3713906489613006
vn 0.8578006219524696 0.35531264942591106 0.3713906489613006
vn 0.8578006219524696 0.35531264942591106 0.3713906489613006
vn 0.8578006219524696 0.35531264942591106 0.3713906489613006
vn 0.8578006219524696 0.35531264942591106 0.3713906489613006
vn 0.999925669372243 0.012192445631285222 0
vn 0.999925669372243 0.012192445631285222 0
vn 0.999925669372243 0.012192445631285222 0
vn 0.7156756104212717 0.69843283188016 0
vn 0.7156756104212717 0.69843283188016 0
vn 0.7156756104212717 0.69843283188016 0
vn 0.8578006219524696 0.35531264942591106 -0.3713906489613006
vn 0.8578006219524696 0.35531264942591106 -0.3713906489613006
vn 0.8578006219524696 0.35531264942591106 -0.3713906489613006
vn 0.8578006219524696 0.35531264942591106 -0.3713906489613006
vn 0.8578006219524696 0.35531264942591106 -0.3713906489613006
vn 0.8578006219524696 0.35531264942591106 -0.3713906489613006
vn 0.999925669372243 0.012192445631285222 0
vn 0.999925669372243 0.012192445631285222 0
vn 0.999925669372243 0.012192445631285222 0
vn -0.9999256699120006 -0.012192401364649186 0
vn -0.9999256699120006 -0.012192401364649186 0
vn -0.9999256699120006 -0.012192401364649186 0
vn -0.8578006089215885 -0.3553126440283434 -0.37139068422261184
vn -0.8578006089215885 -0.3553126440283434 -0.37139068422261184
vn -0.8578006089215885 -0.3553126440283434 -0.37139068422261184
vn -0.8578006089215885 -0.3553126440283434 -0.37139068422261184
vn -0.8578006089215885 -0.3553126440283434 -0.37139068422261184
vn -0.8578006089215885 -0.3553126440283434 -0.37139068422261184
vn -0.7156755882912468 -0.6984328545565262 0
vn -0.7156755882912468 -0.6984328545565262 0
vn -0.7156755882912468 -0.6984328545565262 0
vn -0.9999256699120006 -0.012192401364649186 0
vn -0.9999256699120006 -0.012192401364649186 0
vn -0.9999256699120006 -0.012192401364649186 0
vn -0.8578006089215885 -0.3553126440283434 0.37139068422261184
vn -0.8578006089215885 -0.3553126440283434 0.37139068422261184
vn -0.8578006089215885 -0.3553126440283434 0.37139068422261184
vn -0.8578006089215885 -0.3553126440283434 0.37139068422261184
vn -0.8578006089215885 -0.3553126440283434 0.37139068422261184
vn -0.8578006089215885 -0.3553126440283434 0.37139068422261184
vn -0.7156755882912468 -0.6984328545565262 0
vn -0.7156755882912468 -0.6984328545565262 0
vn -0.7156755882912468 -0.6984328545565262 0
vn 0 0.9284767214185113 -0.3713906000209643
vn 0 0.9284767214185113 -0.3713906000209643
vn 0 0.9284767214185113 -0.3713906000209643
vn 0.3713906000209643 0.9284767214185113 0
vn 0.3713906000209643 0.9284767214185113 0
vn 0.3713906000209643 0.9284767214185113 0
vn -0.3713906000209643 0.9284767214185113 0
vn -0.3713906000209643 0.9284767214185113 0
vn -0.3713906000209643 0.9284767214185113 0
vn 0 0.9284767214185113 0.3713906000209643
vn 0 0.9284767214185113 0.3713906000209643
vn 0 0.9284767214185113 0.3713906000209643
vn -0.3713906000209643 0.9284767214185113 0
vn -0.3713906000209643 0.9284767214185113 0
vn -0.3713906000209643 0.9284767214185113 0
vn 0 0.9284767214185113 -0.3713906000209643
vn 0 0.9284767214185113 -0.3713906000209643
vn 0 0.9284767214185113 -0.3713906000209643
vn 0 0.9284767214185113 0.3713906000209643
vn 0 0.9284767214185113 0.3713906000209643
vn 0 0.9284767214185113 0.3713906000209643
vn 0.3713906000209643 0.9284767214185113 0
vn 0.3713906000209643 0.9284767214185113 0
vn 0.3713906000209643 0.9284767214185113 0
vn 0.3553125639777446 0.8578006294323407 0.37139071343403474
vn 0.3553125639777446 0.8578006294323407 0.37139071343403474
vn 0.3553125639777446 0.8578006294323407 0.37139071343403474
vn 0.6984328534638452 0.715675589357602 0
vn 0.6984328534638452 0.715675589357602 0
vn 0.6984328534638452 0.715675589357602 0
vn 0.3553125639777446 0.8578006294323407 -0.37139071343403474
vn 0.3553125639777446 0.8578006294323407 -0.37139071343403474
vn 0.3553125639777446 0.8578006294323407 -0.37139071343403474
vn 0.6984328534638452 0.715675589357602 0
vn 0.6984328534638452 0.715675589357602 0
vn 0.6984328534638452 0.715675589357602 0
vn 0.012192401364649186 0.9999256699120006 0
vn 0.012192401364649186 0.9999256699120006 0
vn 0.012192401364649186 0.9999256699120006 0
vn 0.35531267086274365 0.8578005851591267 -0.3713907134340375
vn 0.35531267086274365 0.8578005851591267 -0.3713907134340375
vn 0.35531267086274365 0.8578005851591267 -0.3713907134340375
vn 0.012192401364649186 0.9999256699120006 0
vn 0.012192401364649186 0.9999256699120006 0
vn 0.012192401364649186 0.9999256699120006 0
vn 0.35531267086274365 0.8578005851591267 0.3713907134340375
vn 0.35531267086274365 0.8578005851591267 0.3713907134340375
vn 0.35531267086274365 0.8578005851591267 0.3713907134340375
vn -0.6984329430766304 -0.7156755019038422 0
vn -0.6984329430766304 -0.7156755019038422 0
vn -0.6984329430766304 -0.7156755019038422 0
vn -0.35531267086274365 -0.8578005851591267 0.3713907134340375
vn -0.35531267086274365 -0.8578005851591267 0.3713907134340375
vn -0.35531267086274365 -0.8578005851591267 0.3713907134340375
vn -0.3553125639777446 -0.8578006294323407 0.37139071343403474
vn -0.3553125639777446 -0.8578006294323407 0.37139071343403474
vn -0.3553125639777446 -0.8578006294323407 0.37139071343403474
vn -0.012192311751871406 -0.9999256710046729 0
vn -0.012192311751871406 -0.9999256710046729 0
vn -0.012192311751871406 -0.9999256710046729 0
vn -0.6984329430766304 -0.7156755019038422 0
vn -0.6984329430766304 -0.7156755019038422 0
vn -0.6984329430766304 -0.7156755019038422 0
vn -0.35531267086274365 -0.8578005851591267 -0.3713907134340375
vn -0.35531267086274365 -0.8578005851591267 -0.3713907134340375
vn -0.35531267086274365 -0.8578005851591267 -0.3713907134340375
vn -0.3553125639777446 -0.8578006294323407 -0.37139071343403474
vn -0.3553125639777446 -0.8578006294323407 -0.37139071343403474
vn -0.3553125639777446 -0.8578006294323407 -0.37139071343403474
vn -0.012192311751871406 -0.9999256710046729 0
vn -0.012192311751871406 -0.9999256710046729 0
vn -0.012192311751871406 -0.9999256710046729 0
g Scene
usemtl 0
f 1/1/1 2/2/2 3/3/3
f 1/4/4 4/5/5 2/6/6
f 5/7/7 6/8/8 7/9/9
f 5/10/10 8/11/11 6/12/12
f 9/13/13 10/14/14 11/15/15
f 9/16/16 12/17/17 10/18/18
f 13/19/19 14/20/20 15/21/21
f 13/22/22 16/23/23 14/24/24
f 17/25/25 18/26/26 19/27/27
f 17/28/28 20/29/29 18/30/30
f 21/31/31 18/32/32 20/33/33
f 21/34/34 22/35/35 18/36/36
f 18/37/37 23/38/38 19/39/39
f 18/40/40 24/41/41 23/42/42
f 18/43/43 25/44/44 24/45/45
f 18/46/46 22/47/47 25/48/48
f 23/49/49 26/50/50 19/51/51
f 23/52/52 24/53/53 26/54/54
f 25/55/55 26/56/56 24/57/57
f 25/58/58 22/59/59 26/60/60
f 26/61/61 17/62/62 19/63/63
f 26/64/64 20/65/65 17/66/66
f 26/67/67 21/68/68 20/69/69
f 26/70/70 22/71/71 21/72/72
f 27/73/73 28/74/74 29/75/75
f 27/76/76 30/77/77 28/78/78
f 31/79/79 27/80/80 32/81/81
f 31/82/82 33/83/83 27/84/84
f 27/85/85 34/86/86 32/87/87
f 27/88/88 29/89/89 34/90/90
f 35/91/91 27/92/92 33/93/93
f 35/94/94 30/95/95 27/96/96
f 36/97/97 37/98/98 38/99/99
f 36/100/100 39/101/101 37/102/102
f 37/103/103 40/104/104 41/105/105
f 37/106/106 39/107/107 40/108/108
f 37/109/109 42/110/110 43/111/111
f 37/112/112 41/113/113 42/114/114
f 44/115/115 37/116/116 43/117/117
f 44/118/118 38/119/119 37/120/120
f 45/121/121 44/122/122 43/123/123
f 45/124/124 38/125/125 44/126/126
f 45/127/127 36/128/128 38/129/129
f 45/130/130 39/131/131 36/132/132
f 42/133/133 45/134/134 43/135/135
f 42/136/136 41/137/137 45/138/138
f 40/139/139 45/140/140 41/141/141
f 40/142/142 39/143/143 45/144/144
