o Default
v -1.2857142686843872 1.000067114830017 1.2500499486923218
v 1.2857142686843872 1.0002670288085938 -1.2499500513076782
v -1.2857142686843872 1.0002670288085938 -1.2499500513076782
v 1.2857142686843872 1.000067114830017 1.2500499486923218
v 0.3905601501464844 0 0.9062432050704956
v 0.9892492294311523 1 0.35711869597435
v 0.3905601501464844 1 0.9062432050704956
v 0.9892492294311523 0 0.35711869597435
v 1.0014595985412598 1 -0.40760788321495056
v 1.0014595985412598 0 -0.40760788321495056
v 1.103538990020752 0 -0.47265326976776123
v 0.45439696311950684 1 -1.0978525876998901
v 1.103538990020752 1 -0.47265326976776123
v 0.45439696311950684 0 -1.0978525876998901
v -1.1355029344558716 0 0.4409903883934021
v -0.4891998767852783 1 1.0728572607040405
v -1.1355029344558716 1 0.4409903883934021
v -0.4891998767852783 0 1.0728572607040405
v 1.0901081562042236 0 0.41952773928642273
v 1.0901081562042236 1 0.41952773928642273
v -0.4769446849822998 0 -1.0978525876998901
v -1.1326638460159302 1 -0.4638749063014984
v -0.4769446849822998 1 -1.0978525876998901
v -1.1326638460159302 0 -0.4638749063014984
v 0.4315500259399414 1 1.0601730346679688
v 0.4315500259399414 0 1.0601730346679688
v -0.4464852809906006 0 0.9171154499053955
v -0.4464852809906006 1 0.9171154499053955
v 0.411329984664917 1 -0.9434930086135864
v 0.411329984664917 0 -0.9434930086135864
v -0.43534421920776367 1 -0.9434930086135864
v -0.43534421920776367 0 -0.9434930086135864
v -1.0314525365829468 1 -0.4000835716724396
v -1.0314525365829468 0 -0.4000835716724396
v -1.0340335369110107 1 0.37551525235176086
v -1.0340335369110107 0 0.37551525235176086
v 7.413062286035696e-17 0 -0.5
v 2.9617523440283317e-16 1 0.5
v 7.413062286035696e-17 1 -0.5
v 2.9617523440283317e-16 0 0.5
v -0.5 0 8.881784197001252e-16
v 0.5 1 8.881784197001252e-16
v -0.5 1 8.881784197001252e-16
v 0.5 0 8.881784197001252e-16
vt 0 1
vt 0.25 0.75
vt 0.25 1
vt 0 1
vt 0 0.75
vt 0.25 0.75
vt 0.625 0.5
vt 0.75 0.625
vt 0.625 0.625
vt 0.625 0.5
vt 0.75 0.5
vt 0.75 0.625
vt 0.75 0.5
vt 0.875 0.625
vt 0.75 0.625
vt 0.75 0.5
vt 0.875 0.5
vt 0.875 0.625
vt 0.875 0.625
vt 1 0.75
vt 0.875 0.75
vt 0.875 0.625
vt 1 0.625
vt 1 0.75
vt 0.375 0.625
vt 0.5 0.75
vt 0.375 0.75
vt 0.375 0.625
vt 0.5 0.625
vt 0.5 0.75
vt 0.75 0.625
vt 0.875 0.75
vt 0.75 0.75
vt 0.75 0.625
vt 0.875 0.625
vt 0.875 0.75
vt 0.125 0.625
vt 0.25 0.75
vt 0.125 0.75
vt 0.125 0.625
vt 0.25 0.625
vt 0.25 0.75
vt 0 0.625
vt 0.125 0.75
vt 0 0.75
vt 0 0.625
vt 0.125 0.625
vt 0.125 0.75
vt 0.5 0.625
vt 0.625 0.75
vt 0.5 0.75
vt 0.5 0.625
vt 0.625 0.625
vt 0.625 0.75
vt 0.25 0.625
vt 0.375 0.75
vt 0.25 0.75
vt 0.25 0.625
vt 0.375 0.625
vt 0.375 0.75
vt 0.625 0.625
vt 0.75 0.75
vt 0.625 0.75
vt 0.625 0.625
vt 0.75 0.625
vt 0.75 0.75
vt 0.5 0.5
vt 0.625 0.625
vt 0.5 0.625
vt 0.5 0.5
vt 0.625 0.5
vt 0.625 0.625
vt 0.875 0.5
vt 1 0.625
vt 0.875 0.625
vt 0.875 0.5
vt 1 0.5
vt 1 0.625
vt 0 0.5
vt 0.125 0.625
vt 0 0.625
vt 0 0.5
vt 0.125 0.5
vt 0.125 0.625
vt 0.125 0.5
vt 0.25 0.625
vt 0.125 0.625
vt 0.125 0.5
vt 0.25 0.5
vt 0.25 0.625
vt 0.25 0.5
vt 0.375 0.625
vt 0.25 0.625
vt 0.25 0.5
vt 0.375 0.5
vt 0.375 0.625
vt 0.375 0.5
vt 0.5 0.625
vt 0.375 0.625
vt 0.375 0.5
vt 0.5 0.5
vt 0.5 0.625
vt 0.25 0.75
vt 0.375 0.875
vt 0.25 0.875
vt 0.25 0.75
vt 0.375 0.75
vt 0.375 0.875
vt 0.25 0.75
vt 0.375 0.875
vt 0.25 0.875
vt 0.25 0.75
vt 0.375 0.75
vt 0.375 0.875
vn 0 0.9999999968027521 0.00007996559117499425
vn 0 0.9999999968027521 0.00007996559117499425
vn 0 0.9999999968027521 0.00007996559117499425
vn 0 0.9999999968027521 0.00007996559117499425
vn 0 0.9999999968027521 0.00007996559117499425
vn 0 0.9999999968027521 0.00007996559117499425
vn 0.6759427822659525 0 0.7369541065104144
vn 0.6759427822659525 0 0.7369541065104144
vn 0.6759427822659525 0 0.7369541065104144
vn 0.6759427822659525 0 0.7369541065104144
vn 0.6759427822659525 0 0.7369541065104144
vn 0.6759427822659525 0 0.7369541065104144
vn 0.9998725522453772 0 0.015964938656799387
vn 0.9998725522453772 0 0.015964938656799387
vn 0.9998725522453772 0 0.015964938656799387
vn 0.9998725522453772 0 0.015964938656799387
vn 0.9998725522453772 0 0.015964938656799387
vn 0.9998725522453772 0 0.015964938656799387
vn 0.6936990188644243 0 -0.7202650006952546
vn 0.6936990188644243 0 -0.7202650006952546
vn 0.6936990188644243 0 -0.7202650006952546
vn 0.6936990188644243 0 -0.7202650006952546
vn 0.6936990188644243 0 -0.7202650006952546
vn 0.6936990188644243 0 -0.7202650006952546
vn -0.6990758346971745 0 0.7150475350229863
vn -0.6990758346971745 0 0.7150475350229863
vn -0.6990758346971745 0 0.7150475350229863
vn -0.6990758346971745 0 0.7150475350229863
vn -0.6990758346971745 0 0.7150475350229863
vn -0.6990758346971745 0 0.7150475350229863
vn 0.9998867087943568 0 0.015052228286510035
vn 0.9998867087943568 0 0.015052228286510035
vn 0.9998867087943568 0 0.015052228286510035
vn 0.9998867087943568 0 0.015052228286510035
vn 0.9998867087943568 0 0.015052228286510035
vn 0.9998867087943568 0 0.015052228286510035
vn -0.6950877408853919 0 -0.7189249143483916
vn -0.6950877408853919 0 -0.7189249143483916
vn -0.6950877408853919 0 -0.7189249143483916
vn -0.6950877408853919 0 -0.7189249143483916
vn -0.6950877408853919 0 -0.7189249143483916
vn -0.6950877408853919 0 -0.7189249143483916
vn 0 0 -0.9999999999999999
vn 0 0 -0.9999999999999999
vn 0 0 -0.9999999999999999
vn 0 0 -0.9999999999999999
vn 0 0 -0.9999999999999999
vn 0 0 -0.9999999999999999
vn 0.013774666258284551 0 0.9999051247840832
vn 0.013774666258284551 0 0.9999051247840832
vn 0.013774666258284551 0 0.9999051247840832
vn 0.013774666258284551 0 0.9999051247840832
vn 0.013774666258284551 0 0.9999051247840832
vn 0.013774666258284551 0 0.9999051247840832
vn -0.9999950778280923 0 -0.003137565869864987
vn -0.9999950778280923 0 -0.003137565869864987
vn -0.9999950778280923 0 -0.003137565869864987
vn -0.9999950778280923 0 -0.003137565869864987
vn -0.9999950778280923 0 -0.003137565869864987
vn -0.9999950778280923 0 -0.003137565869864987
vn 0.6972912364262778 0 0.7167879265187946
vn 0.6972912364262778 0 0.7167879265187946
vn 0.6972912364262778 0 0.7167879265187946
vn 0.6972912364262778 0 0.7167879265187946
vn 0.6972912364262778 0 0.7167879265187946
vn 0.6972912364262778 0 0.7167879265187946
vn 0.012987739278230203 0 0.9999156557572447
vn 0.012987739278230203 0 0.9999156557572447
vn 0.012987739278230203 0 0.9999156557572447
vn 0.012987739278230203 0 0.9999156557572447
vn 0.012987739278230203 0 0.9999156557572447
vn 0.012987739278230203 0 0.9999156557572447
vn 0.6722630947643042 0 -0.7403123201851499
vn 0.6722630947643042 0 -0.7403123201851499
vn 0.6722630947643042 0 -0.7403123201851499
vn 0.6722630947643042 0 -0.7403123201851499
vn 0.6722630947643042 0 -0.7403123201851499
vn 0.6722630947643042 0 -0.7403123201851499
vn 0 0 -1
vn 0 0 -1
vn 0 0 -1
vn 0 0 -1
vn 0 0 -1
vn 0 0 -1
vn -0.6736854218295503 0 -0.7390182355086653
vn -0.6736854218295503 0 -0.7390182355086653
vn -0.6736854218295503 0 -0.7390182355086653
vn -0.6736854218295503 0 -0.7390182355086653
vn -0.6736854218295503 0 -0.7390182355086653
vn -0.6736854218295503 0 -0.7390182355086653
vn -0.9999944630801999 0 -0.0033277333040303988
vn -0.9999944630801999 0 -0.0033277333040303988
vn -0.9999944630801999 0 -0.0033277333040303988
vn -0.9999944630801999 0 -0.0033277333040303988
vn -0.9999944630801999 0 -0.0033277333040303988
vn -0.9999944630801999 0 -0.0033277333040303988
vn -0.677771796053483 0 0.7352723253832119
vn -0.677771796053483 0 0.7352723253832119
vn -0.677771796053483 0 0.7352723253832119
vn -0.677771796053483 0 0.7352723253832119
vn -0.677771796053483 0 0.7352723253832119
vn -0.677771796053483 0 0.7352723253832119
vn -1 0 2.220446115424762e-16
vn -1 0 2.220446115424762e-16
vn -1 0 2.220446115424762e-16
vn -1 0 2.220446115424762e-16
vn -1 0 2.220446115424762e-16
vn -1 0 2.220446115424762e-16
vn 0 0 1
vn 0 0 1
vn 0 0 1
vn 0 0 1
vn 0 0 1
vn 0 0 1
g Scene
usemtl 0
f 1/1/1 2/2/2 3/3/3
f 1/4/4 4/5/5 2/6/6
f 5/7/7 6/8/8 7/9/9
f 5/10/10 8/11/11 6/12/12
f 8/13/13 9/14/14 6/15/15
f 8/16/16 10/17/17 9/18/18
f 11/19/19 12/20/20 13/21/21
f 11/22/22 14/23/23 12/24/24
f 15/25/25 16/26/26 17/27/27
f 15/28/28 18/29/29 16/30/30
f 19/31/31 13/32/32 20/33/33
f 19/34/34 11/35/35 13/36/36
f 21/37/37 22/38/38 23/39/39
f 21/40/40 24/41/41 22/42/42
f 14/43/43 23/44/44 12/45/45
f 14/46/46 21/47/47 23/48/48
f 18/49/49 25/50/50 16/51/51
f 18/52/52 26/53/53 25/54/54
f 24/55/55 17/56/56 22/57/57
f 24/58/58 15/59/59 17/60/60
f 26/61/61 20/62/62 25/63/63
f 26/64/64 19/65/65 20/66/66
f 27/67/67 7/68/68 28/69/69
f 27/70/70 5/71/71 7/72/72
f 10/73/73 29/74/74 9/75/75
f 10/76/76 30/77/77 29/78/78
f 30/79/79 31/80/80 29/81/81
f 30/82/82 32/83/83 31/84/84
f 32/85/85 33/86/86 31/87/87
f 32/88/88 34/89/89 33/90/90
f 34/91/91 35/92/92 33/93/93
f 34/94/94 36/95/95 35/96/96
f 36/97/97 28/98/98 35/99/99
f 36/100/100 27/101/101 28/102/102
f 37/103/103 38/104/104 39/105/105
f 37/106/106 40/107/107 38/108/108
f 41/109/109 42/110/110 43/111/111
f 41/112/112 44/113/113 42/114/114
