o Default
v 0 0 1.7763568394002505e-15
v 0.5 0.5 1.7763568394002505e-15
v 0 0.5 1.7763568394002505e-15
v 0.5 0 1.7763568394002505e-15
v 0.5 0.875 -0.375
v 0 0.875 -0.375
v 0 -0.375 -0.375
v 0.5 -0.375 -0.375
v 0.5 0.875 -0.875
v 0 0.875 -0.875
v 0 -0.375 -0.875
v 0.5 -0.375 -0.875
v 0 0 -1.25
v 0.5 0 -1.25
v 0 0.5 -1.25
v 0.510723352432251 0.5 -1.239276647567749
v -0.375 0 -0.375
v -0.375 0 -0.875
v -0.375 0.5 -0.375
v -0.375 0.5 -0.875
v 0.875 0.5 -0.375
v 0.875 0.5 -0.875
v 0.875 0 -0.375
v 0.875 0 -0.875
vt 0.125 0.625
vt 0.25 0.75
vt 0.125 0.75
vt 0.125 0.625
vt 0.25 0.625
vt 0.25 0.75
vt 0.25 0.625
vt 0.375 0.75
vt 0.25 0.75
vt 0.25 0.625
vt 0.375 0.625
vt 0.375 0.75
vt 0.25 0.5
vt 0.375 0.625
vt 0.25 0.625
vt 0.25 0.5
vt 0.375 0.5
vt 0.375 0.625
vt 0.375 0.625
vt 0.5 0.75
vt 0.375 0.75
vt 0.375 0.625
vt 0.5 0.625
vt 0.5 0.75
vt 0.125 0.5
vt 0.25 0.625
vt 0.125 0.625
vt 0.125 0.5
vt 0.25 0.5
vt 0.25 0.625
vt 0 0.5
vt 0.125 0.625
vt 0 0.625
vt 0 0.5
vt 0.125 0.5
vt 0.125 0.625
vt 0.625 0.625
vt 0.75 0.75
vt 0.625 0.75
vt 0.625 0.625
vt 0.75 0.625
vt 0.75 0.75
vt 0.5 0.625
vt 0.625 0.75
vt 0.5 0.75
vt 0.5 0.625
vt 0.625 0.625
vt 0.625 0.75
vt 0.25 0.3749999701976776
vt 0.375 0.5
vt 0.25 0.5
vt 0.25 0.3749999701976776
vt 0.375 0.3749999701976776
vt 0.375 0.5
vt 0.125 0.3749999701976776
vt 0.25 0.5
vt 0.125 0.5
vt 0.125 0.3749999701976776
vt 0.25 0.3749999701976776
vt 0.25 0.5
vt 0 0.3749999701976776
vt 0.125 0.5
vt 0 0.5
vt 0 0.3749999701976776
vt 0.125 0.3749999701976776
vt 0.125 0.5
vt 0.375 0.5
vt 0.5 0.625
vt 0.375 0.625
vt 0.375 0.5
vt 0.5 0.5
vt 0.5 0.625
vt 0.5 0.5
vt 0.625 0.625
vt 0.5 0.625
vt 0.5 0.5
vt 0.625 0.5
vt 0.625 0.625
vt 0.625 0.5
vt 0.75 0.625
vt 0.625 0.625
vt 0.625 0.5
vt 0.75 0.5
vt 0.75 0.625
vt 0 0.2499999850988388
vt 0.125 0.375
vt 0 0.375
vt 0 0.2499999850988388
vt 0.125 0.2499999850988388
vt 0.125 0.375
vt 0.625 0.3749999701976776
vt 0.75 0.5
vt 0.625 0.5
vt 0.625 0.3749999701976776
vt 0.75 0.3749999701976776
vt 0.75 0.5
vt 0.375 0.3749999701976776
vt 0.5 0.5
vt 0.375 0.5
vt 0.375 0.3749999701976776
vt 0.5 0.3749999701976776
vt 0.5 0.5
vt 0.5 0.3749999701976776
vt 0.625 0.5
vt 0.5 0.5
vt 0.5 0.3749999701976776
vt 0.625 0.3749999701976776
vt 0.625 0.5
vt 0.25 0.875
vt 0.375 0.875
vt 0.3125 1
vt 0.375 0.875
vt 0.5 0.875
vt 0.4375 1
vt 0 0.875
vt 0.125 0.875
vt 0.0625 1
vt 0.125 0.875
vt 0.25 0.875
vt 0.1875 1
vt 0.5 0.875
vt 0.625 0.875
vt 0.5625 1
vt 0.125 0.75
vt 0.25 0.75
vt 0.1875 0.875
vt 0 0.75
vt 0.125 0.75
vt 0.0625 0.875
vt 0.625 0.875
vt 0.75 0.875
vt 0.6875 1
vn 0 0 1
vn 0 0 1
vn 0 0 1
vn 0 0 1
vn 0 0 1
vn 0 0 1
vn 0 0.7071067811865492 0.7071067811865459
vn 0 0.7071067811865492 0.7071067811865459
vn 0 0.7071067811865492 0.7071067811865459
vn 0 0.7071067811865492 0.7071067811865459
vn 0 0.7071067811865492 0.7071067811865459
vn 0 0.7071067811865492 0.7071067811865459
vn 0 -0.7071067811865492 0.7071067811865459
vn 0 -0.7071067811865492 0.7071067811865459
vn 0 -0.7071067811865492 0.7071067811865459
vn 0 -0.7071067811865492 0.7071067811865459
vn 0 -0.7071067811865492 0.7071067811865459
vn 0 -0.7071067811865492 0.7071067811865459
vn 0 1 0
vn 0 1 0
vn 0 1 0
vn 0 1 0
vn 0 1 0
vn 0 1 0
vn 0 -1 0
vn 0 -1 0
vn 0 -1 0
vn 0 -1 0
vn 0 -1 0
vn 0 -1 0
vn 0 -0.7071067811865476 -0.7071067811865476
vn 0 -0.7071067811865476 -0.7071067811865476
vn 0 -0.7071067811865476 -0.7071067811865476
vn 0 -0.7071067811865476 -0.7071067811865476
vn 0 -0.7071067811865476 -0.7071067811865476
vn 0 -0.7071067811865476 -0.7071067811865476
vn 0.020987151120558153 0.020987151120558153 -0.9995594424423621
vn 0.020987151120558153 0.020987151120558153 -0.9995594424423621
vn 0.020987151120558153 0.020987151120558153 -0.9995594424423621
vn 0 0 -1
vn 0 0 -1
vn 0 0 -1
vn 0 0.6967767616565371 -0.7172880484264528
vn 0 0.6967767616565371 -0.7172880484264528
vn 0 0.6967767616565371 -0.7172880484264528
vn 0.014845061683011624 0.7070288622622232 -0.7070288622622232
vn 0.014845061683011624 0.7070288622622232 -0.7070288622622232
vn 0.014845061683011624 0.7070288622622232 -0.7070288622622232
vn -0.7071067811865476 -0.7071067811865476 0
vn -0.7071067811865476 -0.7071067811865476 0
vn -0.7071067811865476 -0.7071067811865476 0
vn -0.7071067811865476 -0.7071067811865476 0
vn -0.7071067811865476 -0.7071067811865476 0
vn -0.7071067811865476 -0.7071067811865476 0
vn -1 0 0
vn -1 0 0
vn -1 0 0
vn -1 0 0
vn -1 0 0
vn -1 0 0
vn -0.7071067811865476 0.7071067811865476 0
vn -0.7071067811865476 0.7071067811865476 0
vn -0.7071067811865476 0.7071067811865476 0
vn -0.7071067811865476 0.7071067811865476 0
vn -0.7071067811865476 0.7071067811865476 0
vn -0.7071067811865476 0.7071067811865476 0
vn 0.7071067811865476 0.7071067811865476 0
vn 0.7071067811865476 0.7071067811865476 0
vn 0.7071067811865476 0.7071067811865476 0
vn 0.7071067811865476 0.7071067811865476 0
vn 0.7071067811865476 0.7071067811865476 0
vn 0.7071067811865476 0.7071067811865476 0
vn 1 0 0
vn 1 0 0
vn 1 0 0
vn 1 0 0
vn 1 0 0
vn 1 0 0
vn 0.7071067811865476 -0.7071067811865476 0
vn 0.7071067811865476 -0.7071067811865476 0
vn 0.7071067811865476 -0.7071067811865476 0
vn 0.7071067811865476 -0.7071067811865476 0
vn 0.7071067811865476 -0.7071067811865476 0
vn 0.7071067811865476 -0.7071067811865476 0
vn 0.7071067811865492 0 0.7071067811865459
vn 0.7071067811865492 0 0.7071067811865459
vn 0.7071067811865492 0 0.7071067811865459
vn 0.7071067811865492 0 0.7071067811865459
vn 0.7071067811865492 0 0.7071067811865459
vn 0.7071067811865492 0 0.7071067811865459
vn 0.7071067811865475 0 -0.7071067811865475
vn 0.7071067811865475 0 -0.7071067811865475
vn 0.7071067811865475 0 -0.7071067811865475
vn 0.7071067811865476 0 -0.7071067811865476
vn 0.7071067811865476 0 -0.7071067811865476
vn 0.7071067811865476 0 -0.7071067811865476
vn -0.7071067811865492 0 0.7071067811865459
vn -0.7071067811865492 0 0.7071067811865459
vn -0.7071067811865492 0 0.7071067811865459
vn -0.7071067811865492 0 0.7071067811865459
vn -0.7071067811865492 0 0.7071067811865459
vn -0.7071067811865492 0 0.7071067811865459
vn -0.7071067811865476 0 -0.7071067811865476
vn -0.7071067811865476 0 -0.7071067811865476
vn -0.7071067811865476 0 -0.7071067811865476
vn -0.7071067811865476 0 -0.7071067811865476
vn -0.7071067811865476 0 -0.7071067811865476
vn -0.7071067811865476 0 -0.7071067811865476
vn -0.5773502691896257 0.5773502691896257 -0.5773502691896257
vn -0.5773502691896257 0.5773502691896257 -0.5773502691896257
vn -0.5773502691896257 0.5773502691896257 -0.5773502691896257
vn -0.5773502691896267 0.5773502691896267 0.577350269189624
vn -0.5773502691896267 0.5773502691896267 0.577350269189624
vn -0.5773502691896267 0.5773502691896267 0.577350269189624
vn 0.5773502691896267 0.5773502691896267 0.577350269189624
vn 0.5773502691896267 0.5773502691896267 0.577350269189624
vn 0.5773502691896267 0.5773502691896267 0.577350269189624
vn 0.5773502691896257 0.5773502691896257 -0.5773502691896257
vn 0.5773502691896257 0.5773502691896257 -0.5773502691896257
vn 0.5773502691896257 0.5773502691896257 -0.5773502691896257
vn 0.5773502691896267 -0.5773502691896267 0.577350269189624
vn 0.5773502691896267 -0.5773502691896267 0.577350269189624
vn 0.5773502691896267 -0.5773502691896267 0.577350269189624
vn -0.5773502691896267 -0.5773502691896267 0.577350269189624
vn -0.5773502691896267 -0.5773502691896267 0.577350269189624
vn -0.5773502691896267 -0.5773502691896267 0.577350269189624
vn -0.5773502691896257 -0.5773502691896257 -0.5773502691896257
vn -0.5773502691896257 -0.5773502691896257 -0.5773502691896257
vn -0.5773502691896257 -0.5773502691896257 -0.5773502691896257
vn 0.5773502691896257 -0.5773502691896257 -0.5773502691896257
vn 0.5773502691896257 -0.5773502691896257 -0.5773502691896257
vn 0.5773502691896257 -0.5773502691896257 -0.5773502691896257
g Scene
usemtl 0
f 1/1/1 2/2/2 3/3/3
f 1/4/4 4/5/5 2/6/6
f 3/7/7 5/8/8 6/9/9
f 3/10/10 2/11/11 5/12/12
f 7/13/13 4/14/14 1/15/15
f 7/16/16 8/17/17 4/18/18
f 6/19/19 9/20/20 10/21/21
f 6/22/22 5/23/23 9/24/24
f 11/25/25 8/26/26 7/27/27
f 11/28/28 12/29/29 8/30/30
f 12/31/31 13/32/32 14/33/33
f 12/34/34 11/35/35 13/36/36
f 14/37/37 15/38/38 16/39/39
f 14/40/40 13/41/41 15/42/42
f 16/43/43 10/44/44 9/45/45
f 16/46/46 15/47/47 10/48/48
f 11/49/49 17/50/50 18/51/51
f 11/52/52 7/53/53 17/54/54
f 18/55/55 19/56/56 20/57/57
f 18/58/58 17/59/59 19/60/60
f 20/61/61 6/62/62 10/63/63
f 20/64/64 19/65/65 6/66/66
f 21/67/67 9/68/68 5/69/69
f 21/70/70 22/71/71 9/72/72
f 23/73/73 22/74/74 21/75/75
f 23/76/76 24/77/77 22/78/78
f 8/79/79 24/80/80 23/81/81
f 8/82/82 12/83/83 24/84/84
f 4/85/85 21/86/86 2/87/87
f 4/88/88 23/89/89 21/90/90
f 24/91/91 16/92/92 22/93/93
f 24/94/94 14/95/95 16/96/96
f 17/97/97 3/98/98 19/99/99
f 17/100/100 1/101/101 3/102/102
f 13/103/103 20/104/104 15/105/105
f 13/106/106 18/107/107 20/108/108
f 15/109/109 20/110/110 10/111/111
f 19/112/112 3/113/113 6/114/114
f 2/115/115 21/116/116 5/117/117
f 22/118/118 16/119/119 9/120/120
f 23/121/121 4/122/122 8/123/123
f 1/124/124 17/125/125 7/126/126
f 18/127/127 13/128/128 11/129/129
f 14/130/130 24/131/131 12/132/132
