o Default
v -0.25 0 0
v 0.25 0.5 0
v -0.25 0.5 0
v 0.25 0 0
v -2.600424764690796e-16 0 0.25
v -1.4902018724145377e-16 0.5 -0.25
v -2.600424764690796e-16 0.5 0.25
v -1.4902018724145377e-16 0 -0.25
vt 0 0
vt 1 1
vt 0 1
vt 0 0
vt 1 0
vt 1 1
vt 0 0
vt 1 1
vt 0 1
vt 0 0
vt 1 0
vt 1 1
vn 0 0 1
vn 0 0 1
vn 0 0 1
vn 0 0 1
vn 0 0 1
vn 0 0 1
vn 1 0 2.220445784552517e-16
vn 1 0 2.220445784552517e-16
vn 1 0 2.220445784552517e-16
vn 1 0 2.220445784552517e-16
vn 1 0 2.220445784552517e-16
vn 1 0 2.220445784552517e-16
g Scene
usemtl 0
f 1/1/1 2/2/2 3/3/3
f 1/4/4 4/5/5 2/6/6
f 5/7/7 6/8/8 7/9/9
f 5/10/10 8/11/11 6/12/12
