# Blender 3.3.0
# www.blender.org
mtllib bedLump.mtl
o Plane.001
v -1.969032 0.639351 0.717410
v -1.548351 1.089483 0.717410
v -1.548351 0.614618 -0.266238
v -1.548351 0.614618 1.701057
v -1.177400 1.207178 0.717410
v -1.040456 0.625772 -0.266238
v -1.040456 0.646781 1.701057
v -0.537338 1.075080 0.717410
v -0.391675 0.614618 -0.266238
v -0.489821 0.614618 1.701057
v -0.002050 1.089483 0.717410
v 0.070624 0.653602 -0.266238
v 0.070624 0.614618 1.701057
v 0.458418 0.678335 0.717410
v -1.911796 0.626984 0.225586
v -1.548351 0.889668 0.225586
v -1.051855 0.875331 0.225586
v -0.513580 0.875331 0.225586
v 0.034287 0.921831 0.225586
v 0.505576 0.626984 0.225586
v -1.943746 0.626984 1.209233
v -1.548351 0.889668 1.209233
v -1.051855 0.875331 1.209233
v -0.513580 0.886486 1.209233
v 0.034287 0.889668 1.209233
v 0.505576 0.638139 1.209233
vn -0.2992 0.8801 0.3687
vn -0.6329 0.7742 -0.0105
vn -0.5428 0.8170 0.1949
vn 0.0082 0.8986 0.4386
vn -0.3754 0.9269 -0.0000
vn 0.0100 0.8870 -0.4618
vn -0.2082 0.8605 -0.4650
vn -0.2999 0.8741 -0.3821
vn 0.0356 0.9994 -0.0053
vn -0.0620 0.9981 -0.0000
vn -0.0273 0.9084 -0.4173
vn -0.0057 0.8899 -0.4561
vn -0.0065 0.9104 0.4136
vn 0.2345 0.9721 0.0100
vn 0.2499 0.9069 -0.3391
vn -0.0340 0.8795 -0.4748
vn 0.2732 0.8912 0.3622
vn 0.5583 0.8296 0.0062
vn 0.5219 0.8342 -0.1780
vn 0.1680 0.8706 -0.4624
vn -0.5718 0.7911 -0.2171
vn 0.1812 0.8640 0.4698
vn 0.4628 0.8672 0.1840
vn 0.0231 0.8748 0.4840
vn -0.0002 0.8903 0.4555
vn -0.2380 0.8477 0.4741
vt 0.169306 0.198274
vt 0.169306 0.201635
vt 0.162887 0.201635
vt 0.175725 0.201635
vt 0.169305 0.206617
vt 0.162887 0.205692
vt 0.175724 0.205692
vt 0.169306 0.209712
vt 0.162887 0.210875
vt 0.175725 0.210091
vt 0.169306 0.213988
vt 0.162886 0.214568
vt 0.175725 0.214568
vt 0.169305 0.217666
vt 0.166096 0.198731
vt 0.166096 0.201635
vt 0.166096 0.205601
vt 0.166096 0.209901
vt 0.166096 0.214278
vt 0.166096 0.218043
vt 0.172515 0.198476
vt 0.172515 0.201635
vt 0.172515 0.205601
vt 0.172515 0.209901
vt 0.172515 0.214278
vt 0.172515 0.218043
s 1
f 22/22/1 1/1/2 21/21/3
f 23/23/4 2/2/5 22/22/1
f 17/17/6 3/3/7 16/16/8
f 23/23/4 8/8/9 5/5/10
f 18/18/11 6/6/12 17/17/6
f 24/24/13 11/11/14 8/8/9
f 19/19/15 9/9/16 18/18/11
f 25/25/17 14/14/18 11/11/14
f 20/20/19 12/12/20 19/19/15
f 14/14/18 19/19/15 11/11/14
f 11/11/14 18/18/11 8/8/9
f 8/8/9 17/17/6 5/5/10
f 2/2/5 17/17/6 16/16/8
f 1/1/2 16/16/8 15/15/21
f 13/13/22 26/26/23 25/25/17
f 10/10/24 25/25/17 24/24/13
f 7/7/25 24/24/13 23/23/4
f 7/7/25 22/22/1 4/4/26
f 15/15/21 16/16/8 3/3/7
f 22/22/1 2/2/5 1/1/2
f 23/23/4 5/5/10 2/2/5
f 17/17/6 6/6/12 3/3/7
f 23/23/4 24/24/13 8/8/9
f 18/18/11 9/9/16 6/6/12
f 24/24/13 25/25/17 11/11/14
f 19/19/15 12/12/20 9/9/16
f 25/25/17 26/26/23 14/14/18
f 14/14/18 20/20/19 19/19/15
f 11/11/14 19/19/15 18/18/11
f 8/8/9 18/18/11 17/17/6
f 2/2/5 5/5/10 17/17/6
f 1/1/2 2/2/5 16/16/8
f 10/10/24 13/13/22 25/25/17
f 7/7/25 10/10/24 24/24/13
f 7/7/25 23/23/4 22/22/1
f 4/4/26 22/22/1 21/21/3
