# Blender 3.3.0
# www.blender.org
mtllib bin.mtl
o Cylinder.009
v -0.077782 0.038574 -0.213287
v -0.077782 0.370146 -0.213287
v 0.059811 0.038574 -0.163208
v 0.059811 0.370146 -0.163208
v 0.133023 0.038574 -0.036401
v 0.133023 0.370146 -0.036401
v 0.107597 0.038574 0.107798
v 0.107597 0.370146 0.107798
v -0.004570 0.038574 0.201917
v -0.004570 0.370146 0.201917
v -0.150994 0.038574 0.201917
v -0.150994 0.370146 0.201917
v -0.263161 0.038574 0.107798
v -0.263161 0.370146 0.107798
v -0.288587 0.038574 -0.036401
v -0.288587 0.370146 -0.036401
v -0.215375 0.038574 -0.163208
v -0.215375 0.370146 -0.163208
v 0.081074 0.519568 -0.188547
v -0.077782 0.519568 -0.246366
v 0.165599 0.519568 -0.042145
v 0.136244 0.519568 0.124337
v 0.006743 0.519568 0.233001
v -0.162307 0.519568 0.233001
v -0.291807 0.519568 0.124337
v -0.321163 0.519568 -0.042145
v -0.236637 0.519568 -0.188547
v 0.074769 0.525922 -0.181034
v -0.077782 0.525922 -0.236558
v 0.155940 0.525922 -0.040442
v 0.127750 0.525922 0.119433
v 0.003389 0.525922 0.223784
v -0.158952 0.525922 0.223784
v -0.283313 0.525922 0.119433
v -0.311503 0.525922 -0.040442
v -0.230333 0.525922 -0.181034
v 0.081806 0.533516 -0.189420
v -0.077782 0.533516 -0.247505
v 0.166721 0.533516 -0.042343
v 0.137230 0.533516 0.124907
v 0.007133 0.533516 0.234071
v -0.162697 0.533516 0.234071
v -0.292794 0.533516 0.124907
v -0.322284 0.533516 -0.042343
v -0.237369 0.533516 -0.189420
v 0.081806 0.547152 -0.189420
v -0.077782 0.547152 -0.247505
v 0.166721 0.547152 -0.042343
v 0.137230 0.547152 0.124907
v 0.007133 0.547152 0.234071
v -0.162697 0.547152 0.234071
v -0.292794 0.547152 0.124907
v -0.322284 0.547152 -0.042343
v -0.237369 0.547152 -0.189420
v 0.072345 0.553096 -0.178145
v -0.077782 0.553096 -0.232787
v 0.152227 0.553096 -0.039787
v 0.124484 0.553096 0.117548
v 0.002099 0.553096 0.220241
v -0.157663 0.553096 0.220241
v -0.280048 0.553096 0.117548
v -0.307790 0.553096 -0.039787
v -0.227909 0.553096 -0.178145
vn 0.3420 -0.0000 -0.9397
vn 0.8660 -0.0000 -0.5000
vn 0.9848 -0.0000 0.1736
vn 0.6428 -0.0000 0.7660
vn -0.0000 -0.0000 1.0000
vn -0.6428 -0.0000 0.7660
vn -0.9848 -0.0000 0.1736
vn 0.8479 -0.2037 -0.4895
vn -0.8660 -0.0000 -0.5000
vn -0.3420 -0.0000 -0.9397
vn -0.0000 -1.0000 -0.0000
vn 0.1941 0.8233 -0.5334
vn -0.3349 -0.2037 -0.9200
vn -0.8479 -0.2037 -0.4895
vn -0.9642 -0.2037 0.1700
vn -0.6293 -0.2037 0.7500
vn -0.0000 -0.2037 0.9790
vn 0.6293 -0.2037 0.7500
vn 0.3349 -0.2037 -0.9200
vn 0.9642 -0.2037 0.1700
vn -0.5849 -0.8045 0.1031
vn -0.4916 0.8233 -0.2838
vn -0.0000 0.8233 0.5676
vn 0.4916 0.8233 -0.2838
vn -0.1941 0.8233 -0.5334
vn -0.3649 0.8233 0.4348
vn 0.5590 0.8233 0.0986
vn -0.5590 0.8233 0.0986
vn 0.3649 0.8233 0.4348
vn 0.3818 -0.8045 0.4550
vn 0.2031 -0.8045 -0.5581
vn -0.5144 -0.8045 -0.2970
vn -0.0000 -0.8045 0.5939
vn 0.5144 -0.8045 -0.2970
vn -0.2031 -0.8045 -0.5581
vn -0.3818 -0.8045 0.4550
vn 0.5849 -0.8045 0.1031
vn -0.3420 0.9187 -0.1974
vn -0.0000 1.0000 -0.0000
vn -0.0000 0.9187 0.3949
vn 0.3420 0.9187 -0.1974
vn -0.1351 0.9187 -0.3710
vn -0.2538 0.9187 0.3025
vn 0.3889 0.9187 0.0686
vn -0.3889 0.9187 0.0686
vn 0.2538 0.9187 0.3025
vn 0.1351 0.9187 -0.3710
vt 1.000000 0.500000
vt 0.000000 0.500000
vt 0.750000 0.490000
vt 0.000000 1.000000
vt 1.000000 1.000000
vt 0.888889 0.500000
vt 0.904269 0.433851
vt 0.888889 1.000000
vt 0.777778 0.500000
vt 0.986354 0.291676
vt 0.777778 1.000000
vt 0.666667 0.500000
vt 0.957846 0.130000
vt 0.666667 1.000000
vt 0.555556 0.500000
vt 0.832085 0.024474
vt 0.555556 1.000000
vt 0.444444 0.500000
vt 0.667915 0.024474
vt 0.444444 1.000000
vt 0.333333 0.500000
vt 0.542154 0.130000
vt 0.333333 1.000000
vt 0.222222 0.500000
vt 0.513646 0.291676
vt 0.222222 1.000000
vt 0.111111 0.500000
vt 0.595731 0.433851
vt 0.111111 1.000000
vt 0.888889 1.000000
vt 1.000000 1.000000
vt 0.000000 1.000000
vt 0.777778 1.000000
vt 0.666667 1.000000
vt 0.555556 1.000000
vt 0.444444 1.000000
vt 0.333333 1.000000
vt 0.222222 1.000000
vt 0.111111 1.000000
vt 0.888889 1.000000
vt 1.000000 1.000000
vt 0.000000 1.000000
vt 0.777778 1.000000
vt 0.666667 1.000000
vt 0.555556 1.000000
vt 0.444444 1.000000
vt 0.333333 1.000000
vt 0.222222 1.000000
vt 0.111111 1.000000
vt 0.888889 1.000000
vt 0.000000 1.000000
vt 1.000000 1.000000
vt 0.777778 1.000000
vt 0.666667 1.000000
vt 0.555556 1.000000
vt 0.444444 1.000000
vt 0.333333 1.000000
vt 0.222222 1.000000
vt 0.111111 1.000000
vt 0.888889 1.000000
vt 0.000000 1.000000
vt 1.000000 1.000000
vt 0.777778 1.000000
vt 0.666667 1.000000
vt 0.555556 1.000000
vt 0.444444 1.000000
vt 0.333333 1.000000
vt 0.222222 1.000000
vt 0.111111 1.000000
vt 0.404269 0.433851
vt 0.888889 1.000000
vt 0.250000 0.490000
vt 0.000000 1.000000
vt 1.000000 1.000000
vt 0.486354 0.291676
vt 0.777778 1.000000
vt 0.457846 0.130000
vt 0.666667 1.000000
vt 0.332085 0.024474
vt 0.555556 1.000000
vt 0.167915 0.024474
vt 0.444444 1.000000
vt 0.042154 0.130000
vt 0.333333 1.000000
vt 0.013646 0.291676
vt 0.222222 1.000000
vt 0.095731 0.433851
vt 0.111111 1.000000
s 0
f 1/1/1 2/5/1 4/8/1 3/6/1
f 3/6/2 4/8/2 6/11/2 5/9/2
f 5/9/3 6/11/3 8/14/3 7/12/3
f 7/12/4 8/14/4 10/17/4 9/15/4
f 9/15/5 10/17/5 12/20/5 11/18/5
f 11/18/6 12/20/6 14/23/6 13/21/6
f 13/21/7 14/23/7 16/26/7 15/24/7
f 6/11/8 4/8/8 19/30/8 21/33/8
f 15/24/9 16/26/9 18/29/9 17/27/9
f 17/27/10 18/29/10 2/4/10 1/2/10
f 1/3/11 3/7/11 5/10/11 7/13/11 9/16/11 11/19/11 13/22/11 15/25/11 17/28/11
f 19/30/12 20/31/12 29/41/12 28/40/12
f 2/4/13 18/29/13 27/39/13 20/32/13
f 18/29/14 16/26/14 26/38/14 27/39/14
f 16/26/15 14/23/15 25/37/15 26/38/15
f 14/23/16 12/20/16 24/36/16 25/37/16
f 12/20/17 10/17/17 23/35/17 24/36/17
f 10/17/18 8/14/18 22/34/18 23/35/18
f 4/8/19 2/5/19 20/31/19 19/30/19
f 8/14/20 6/11/20 21/33/20 22/34/20
f 35/48/21 34/47/21 43/57/21 44/58/21
f 27/39/22 26/38/22 35/48/22 36/49/22
f 24/36/23 23/35/23 32/45/23 33/46/23
f 21/33/24 19/30/24 28/40/24 30/43/24
f 20/32/25 27/39/25 36/49/25 29/42/25
f 25/37/26 24/36/26 33/46/26 34/47/26
f 22/34/27 21/33/27 30/43/27 31/44/27
f 26/38/28 25/37/28 34/47/28 35/48/28
f 23/35/29 22/34/29 31/44/29 32/45/29
f 38/51/10 45/59/10 54/69/10 47/61/10
f 32/45/30 31/44/30 40/54/30 41/55/30
f 28/40/31 29/41/31 38/52/31 37/50/31
f 36/49/32 35/48/32 44/58/32 45/59/32
f 33/46/33 32/45/33 41/55/33 42/56/33
f 30/43/34 28/40/34 37/50/34 39/53/34
f 29/42/35 36/49/35 45/59/35 38/51/35
f 34/47/36 33/46/36 42/56/36 43/57/36
f 31/44/37 30/43/37 39/53/37 40/54/37
f 54/69/38 53/68/38 62/86/38 63/88/38
f 43/57/6 42/56/6 51/66/6 52/67/6
f 40/54/3 39/53/3 48/63/3 49/64/3
f 44/58/7 43/57/7 52/67/7 53/68/7
f 41/55/4 40/54/4 49/64/4 50/65/4
f 37/50/1 38/52/1 47/62/1 46/60/1
f 45/59/9 44/58/9 53/68/9 54/69/9
f 42/56/5 41/55/5 50/65/5 51/66/5
f 39/53/2 37/50/2 46/60/2 48/63/2
f 55/70/39 56/72/39 63/87/39 62/85/39 61/83/39 60/81/39 59/79/39 58/77/39 57/75/39
f 51/66/40 50/65/40 59/80/40 60/82/40
f 48/63/41 46/60/41 55/71/41 57/76/41
f 47/61/42 54/69/42 63/88/42 56/73/42
f 52/67/43 51/66/43 60/82/43 61/84/43
f 49/64/44 48/63/44 57/76/44 58/78/44
f 53/68/45 52/67/45 61/84/45 62/86/45
f 50/65/46 49/64/46 58/78/46 59/80/46
f 46/60/47 47/62/47 56/74/47 55/71/47
o Cube.024
v -0.319238 0.066195 0.096238
v -0.319238 0.085341 0.096238
v -0.340064 0.066195 -0.012118
v -0.340064 0.085341 -0.012118
v -0.253437 0.066195 0.083591
v -0.253437 0.085341 0.083591
v -0.274263 0.066195 -0.024765
v -0.274263 0.085341 -0.024765
v -0.157631 0.572530 0.073659
v -0.158926 0.585433 0.065643
v -0.176623 0.572530 -0.043937
v -0.175129 0.586586 -0.038784
v -0.122034 0.572530 0.067910
v -0.123329 0.585433 0.059894
v -0.141026 0.572530 -0.049686
v -0.139532 0.586586 -0.044533
v -0.172449 0.570300 -0.018095
v -0.173183 0.593553 -0.022635
v -0.136852 0.570300 -0.023844
v -0.137585 0.593553 -0.028384
v -0.162146 0.569714 0.045703
v -0.126005 0.593553 0.043324
v -0.161602 0.593553 0.049073
v -0.126549 0.569714 0.039954
v -0.161602 0.548225 0.049073
v -0.157631 0.548225 0.073659
v -0.141026 0.548225 -0.049686
v -0.176623 0.548225 -0.043937
v -0.137585 0.548225 -0.028384
v -0.122034 0.548225 0.067910
v -0.173183 0.548225 -0.022635
v -0.126005 0.548225 0.043325
v -0.167392 0.593553 0.013219
v -0.131795 0.572530 0.007470
v -0.167392 0.572530 0.013219
v -0.131795 0.593553 0.007470
vn -0.9820 -0.0000 0.1887
vn -0.1887 -0.0000 -0.9820
vn 0.9820 -0.0000 -0.1887
vn 0.1887 -0.0000 0.9820
vn -0.0000 -1.0000 -0.0000
vn -0.0000 1.0000 -0.0000
vn -0.9897 0.0178 0.1422
vn -0.1491 0.3543 -0.9232
vn 0.9872 -0.0000 -0.1594
vn 0.1349 0.5326 0.8355
vn 0.0694 0.9002 0.4300
vn -0.0628 0.9191 -0.3890
vn -0.9872 -0.0000 0.1594
vn 0.9897 -0.0178 -0.1422
vn -0.0136 -0.9964 -0.0842
vn 0.1594 -0.0000 0.9872
vn 0.1561 -0.2039 0.9665
vn -0.1575 -0.1569 -0.9750
vn -0.1594 -0.0000 -0.9872
vn 0.0112 -0.9975 0.0692
vt 0.375000 0.000000
vt 0.375000 1.000000
vt 0.125000 0.750000
vt 0.625000 0.000000
vt 0.625000 1.000000
vt 0.875000 0.750000
vt 0.375000 0.250000
vt 0.125000 0.500000
vt 0.625000 0.250000
vt 0.875000 0.500000
vt 0.375000 0.750000
vt 0.625000 0.750000
vt 0.375000 0.500000
vt 0.625000 0.500000
vt 0.375000 0.000000
vt 0.375000 1.000000
vt 0.625000 1.000000
vt 0.875000 0.750000
vt 0.625000 0.000000
vt 0.375000 0.250000
vt 0.625000 0.250000
vt 0.875000 0.500000
vt 0.375000 0.750000
vt 0.625000 0.750000
vt 0.375000 0.500000
vt 0.625000 0.500000
vt 0.375000 0.204714
vt 0.125000 0.545286
vt 0.625000 0.204714
vt 0.875000 0.545286
vt 0.375000 0.545286
vt 0.625000 0.545286
vt 0.125000 0.697732
vt 0.375000 0.052268
vt 0.625000 0.697732
vt 0.875000 0.697732
vt 0.625000 0.052268
vt 0.375000 0.697732
vt 0.375000 0.052268
vt 0.125000 0.697732
vt 0.375000 0.000000
vt 0.125000 0.750000
vt 0.375000 1.000000
vt 0.375000 0.500000
vt 0.125000 0.500000
vt 0.375000 0.250000
vt 0.375000 0.545286
vt 0.375000 0.750000
vt 0.375000 0.204714
vt 0.125000 0.545286
vt 0.375000 0.697732
vt 0.875000 0.621509
vt 0.625000 0.128491
vt 0.375000 0.621509
vt 0.125000 0.621509
vt 0.375000 0.128491
vt 0.625000 0.621509
s 0
f 64/89/48 65/92/48 67/97/48 66/95/48
f 66/95/49 67/97/49 71/102/49 70/101/49
f 70/101/50 71/102/50 69/100/50 68/99/50
f 68/99/51 69/100/51 65/93/51 64/90/51
f 66/96/52 70/101/52 68/99/52 64/91/52
f 71/102/53 67/98/53 65/94/53 69/100/53
f 80/115/54 81/117/54 75/109/54 74/108/54
f 74/108/55 75/109/55 79/114/55 78/113/55
f 87/126/56 85/123/56 77/112/56 76/111/56
f 76/111/57 77/112/57 73/105/57 72/104/57
f 78/113/56 82/119/56 92/135/56 90/132/56
f 85/123/58 86/124/58 73/106/58 77/112/58
f 79/114/59 75/110/59 81/118/59 83/120/59
f 72/103/60 84/122/60 88/127/60 89/129/60
f 78/113/61 79/114/61 83/120/61 82/119/61
f 98/144/60 96/141/60 81/117/60 80/115/60
f 72/103/60 73/107/60 86/125/60 84/122/60
f 99/145/53 96/140/53 86/124/53 85/123/53
f 98/143/62 97/142/62 87/126/62 84/121/62
f 97/142/56 99/145/56 85/123/56 87/126/56
f 88/128/52 95/139/52 93/136/52 89/130/52
f 91/133/52 90/132/52 92/135/52 94/138/52
f 87/126/56 76/111/56 93/136/56 95/139/56
f 80/115/60 74/108/60 91/134/60 94/137/60
f 76/111/63 72/104/63 89/131/63 93/136/63
f 82/119/64 80/116/64 94/138/64 92/135/64
f 84/121/65 87/126/65 95/139/65 88/128/65
f 74/108/66 78/113/66 90/132/66 91/134/66
f 82/119/56 83/120/56 99/145/56 97/142/56
f 80/116/67 82/119/67 97/142/67 98/143/67
f 83/120/53 81/118/53 96/140/53 99/145/53
f 84/122/60 86/125/60 96/141/60 98/144/60
