# Blender 3.3.0
# www.blender.org
mtllib ceilingLamp.mtl
o Sphere.003
v -0.004241 -0.346956 -0.923110
v 0.142206 0.194240 -0.352784
v 0.266358 -0.022533 -0.652512
v 0.349313 -0.346956 -0.852784
v 0.266358 0.194240 -0.269828
v 0.495759 -0.022533 -0.499230
v 0.649041 -0.346956 -0.652512
v 0.349313 0.194240 -0.145677
v 0.649041 -0.022533 -0.269828
v 0.849313 -0.346956 -0.352784
v 0.378443 0.194240 0.000770
v 0.702866 -0.022533 0.000770
v 0.919639 -0.346956 0.000770
v 0.349313 0.194240 0.147216
v 0.649041 -0.022533 0.271368
v 0.849313 -0.346956 0.354323
v 0.266357 0.194240 0.271368
v 0.495759 -0.022533 0.500770
v 0.649041 -0.346956 0.654051
v 0.142206 0.194240 0.354323
v 0.266357 -0.022533 0.654051
v 0.349313 -0.346956 0.854323
v -0.004241 0.194240 0.383453
v -0.004241 -0.022533 0.707876
v -0.004241 -0.346956 0.924649
v -0.004241 0.270360 0.000770
v -0.150687 0.194240 0.354323
v -0.274839 -0.022533 0.654051
v -0.357794 -0.346956 0.854323
v -0.274839 0.194240 0.271368
v -0.504241 -0.022533 0.500769
v -0.657522 -0.346956 0.654051
v -0.357794 0.194240 0.147216
v -0.657522 -0.022533 0.271367
v -0.857794 -0.346956 0.354323
v -0.386924 0.194240 0.000769
v -0.711347 -0.022533 0.000769
v -0.928120 -0.346956 0.000769
v -0.357794 0.194240 -0.145677
v -0.657522 -0.022533 -0.269829
v -0.857794 -0.346956 -0.352784
v -0.274838 0.194240 -0.269829
v -0.504240 -0.022533 -0.499231
v -0.657522 -0.346956 -0.652512
v -0.150687 0.194240 -0.352784
v -0.274838 -0.022533 -0.652512
v -0.357793 -0.346956 -0.852784
v -0.004240 0.194240 -0.381914
v -0.004240 -0.022533 -0.706337
vn -0.0000 0.5556 -0.8315
vn -0.0000 0.6952 -0.7189
vn 0.2751 0.6952 -0.6641
vn 0.3182 0.5556 -0.7682
vn -0.0000 0.9152 -0.4031
vn -0.0000 1.0000 -0.0000
vn 0.1543 0.9152 -0.3724
vn 0.2850 0.9152 -0.2850
vn 0.5083 0.6952 -0.5083
vn 0.5879 0.5556 -0.5879
vn 0.6641 0.6952 -0.2751
vn 0.7682 0.5556 -0.3182
vn 0.3724 0.9152 -0.1543
vn 0.7189 0.6952 -0.0000
vn 0.8315 0.5556 -0.0000
vn 0.4031 0.9152 -0.0000
vn 0.3724 0.9152 0.1543
vn 0.6641 0.6952 0.2751
vn 0.7682 0.5556 0.3182
vn 0.2850 0.9152 0.2850
vn 0.5083 0.6952 0.5083
vn 0.5879 0.5556 0.5879
vn 0.2751 0.6952 0.6641
vn 0.3182 0.5556 0.7682
vn 0.1543 0.9152 0.3724
vn -0.0000 0.6952 0.7189
vn -0.0000 0.5556 0.8315
vn -0.0000 0.9152 0.4031
vn -0.1543 0.9152 0.3724
vn -0.2751 0.6952 0.6641
vn -0.3182 0.5556 0.7682
vn -0.2850 0.9152 0.2850
vn -0.5083 0.6952 0.5083
vn -0.5879 0.5556 0.5879
vn -0.6641 0.6952 0.2751
vn -0.7682 0.5556 0.3182
vn -0.3724 0.9152 0.1543
vn -0.4031 0.9152 -0.0000
vn -0.7189 0.6952 -0.0000
vn -0.8315 0.5556 -0.0000
vn -0.3724 0.9152 -0.1543
vn -0.6641 0.6952 -0.2751
vn -0.7682 0.5556 -0.3182
vn -0.5083 0.6952 -0.5083
vn -0.5879 0.5556 -0.5879
vn -0.2850 0.9152 -0.2850
vn -0.2751 0.6952 -0.6641
vn -0.3182 0.5556 -0.7682
vn -0.1543 0.9152 -0.3724
vt 0.750000 0.625000
vt 0.687500 0.875000
vt 0.687500 0.750000
vt 0.687500 0.625000
vt 0.625000 0.875000
vt 0.625000 0.750000
vt 0.625000 0.625000
vt 0.562500 0.875000
vt 0.562500 0.750000
vt 0.562500 0.625000
vt 0.500000 0.875000
vt 0.500000 0.750000
vt 0.500000 0.625000
vt 0.437500 0.875000
vt 0.437500 0.750000
vt 0.437500 0.625000
vt 0.375000 0.875000
vt 0.375000 0.750000
vt 0.375000 0.625000
vt 0.312500 0.875000
vt 0.312500 0.750000
vt 0.312500 0.625000
vt 0.250000 0.875000
vt 0.250000 0.750000
vt 0.250000 0.625000
vt 0.718750 1.000000
vt 0.656250 1.000000
vt 0.593750 1.000000
vt 0.531250 1.000000
vt 0.468750 1.000000
vt 0.406250 1.000000
vt 0.343750 1.000000
vt 0.281250 1.000000
vt 0.218750 1.000000
vt 0.156250 1.000000
vt 0.093750 1.000000
vt 0.031250 1.000000
vt 0.968750 1.000000
vt 0.906250 1.000000
vt 0.843750 1.000000
vt 0.781250 1.000000
vt 0.187500 0.875000
vt 0.187500 0.750000
vt 0.187500 0.625000
vt 0.125000 0.875000
vt 0.125000 0.750000
vt 0.125000 0.625000
vt 0.062500 0.875000
vt 0.062500 0.750000
vt 0.062500 0.625000
vt 0.000000 0.875000
vt 1.000000 0.875000
vt 0.000000 0.750000
vt 1.000000 0.750000
vt 0.000000 0.625000
vt 1.000000 0.625000
vt 0.937500 0.875000
vt 0.937500 0.750000
vt 0.937500 0.625000
vt 0.875000 0.875000
vt 0.875000 0.750000
vt 0.875000 0.625000
vt 0.812500 0.875000
vt 0.812500 0.750000
vt 0.812500 0.625000
vt 0.750000 0.875000
vt 0.750000 0.750000
s 1
f 1/1/1 49/67/2 3/3/3 4/4/4
f 48/66/5 26/26/6 2/2/7
f 49/67/2 48/66/5 2/2/7 3/3/3
f 3/3/3 2/2/7 5/5/8 6/6/9
f 4/4/4 3/3/3 6/6/9 7/7/10
f 2/2/7 26/27/6 5/5/8
f 7/7/10 6/6/9 9/9/11 10/10/12
f 5/5/8 26/28/6 8/8/13
f 6/6/9 5/5/8 8/8/13 9/9/11
f 10/10/12 9/9/11 12/12/14 13/13/15
f 8/8/13 26/29/6 11/11/16
f 9/9/11 8/8/13 11/11/16 12/12/14
f 12/12/14 11/11/16 14/14/17 15/15/18
f 13/13/15 12/12/14 15/15/18 16/16/19
f 11/11/16 26/30/6 14/14/17
f 15/15/18 14/14/17 17/17/20 18/18/21
f 16/16/19 15/15/18 18/18/21 19/19/22
f 14/14/17 26/31/6 17/17/20
f 19/19/22 18/18/21 21/21/23 22/22/24
f 17/17/20 26/32/6 20/20/25
f 18/18/21 17/17/20 20/20/25 21/21/23
f 22/22/24 21/21/23 24/24/26 25/25/27
f 20/20/25 26/33/6 23/23/28
f 21/21/23 20/20/25 23/23/28 24/24/26
f 24/24/26 23/23/28 27/42/29 28/43/30
f 25/25/27 24/24/26 28/43/30 29/44/31
f 23/23/28 26/34/6 27/42/29
f 28/43/30 27/42/29 30/45/32 31/46/33
f 29/44/31 28/43/30 31/46/33 32/47/34
f 27/42/29 26/35/6 30/45/32
f 32/47/34 31/46/33 34/49/35 35/50/36
f 30/45/32 26/36/6 33/48/37
f 31/46/33 30/45/32 33/48/37 34/49/35
f 33/48/37 26/37/6 36/51/38
f 34/49/35 33/48/37 36/51/38 37/53/39
f 35/50/36 34/49/35 37/53/39 38/55/40
f 37/54/39 36/52/38 39/57/41 40/58/42
f 38/56/40 37/54/39 40/58/42 41/59/43
f 36/52/38 26/38/6 39/57/41
f 41/59/43 40/58/42 43/61/44 44/62/45
f 39/57/41 26/39/6 42/60/46
f 40/58/42 39/57/41 42/60/46 43/61/44
f 44/62/45 43/61/44 46/64/47 47/65/48
f 42/60/46 26/40/6 45/63/49
f 43/61/44 42/60/46 45/63/49 46/64/47
f 46/64/47 45/63/49 48/66/5 49/67/2
f 47/65/48 46/64/47 49/67/2 1/1/1
f 45/63/49 26/41/6 48/66/5
o Cube.025
v -0.024583 -0.149674 0.021112
v -0.024583 0.470946 0.021112
v -0.024583 -0.149674 -0.019573
v -0.024583 0.470946 -0.019573
v 0.016102 -0.149674 0.021112
v 0.016102 0.470946 0.021112
v 0.016102 -0.149674 -0.019573
v 0.016102 0.470946 -0.019573
v -0.624389 0.592332 0.620918
v -0.624389 0.592332 -0.619379
v 0.615908 0.592332 -0.619379
v 0.615908 0.592332 0.620918
vn -0.7068 -0.0274 0.7068
vn -0.7048 -0.0809 0.7048
vn -0.7048 -0.0809 -0.7048
vn -0.7068 -0.0274 -0.7068
vn 0.7048 -0.0809 -0.7048
vn 0.7068 -0.0274 -0.7068
vn 0.7048 -0.0809 0.7048
vn 0.7068 -0.0274 0.7068
vn 0.7071 0.0001 -0.7071
vn 0.7071 0.0001 0.7071
vn -0.7071 0.0001 -0.7071
vn -0.7071 0.0001 0.7071
vt 0.375000 0.000000
vt 0.375000 1.000000
vt 0.125000 0.750000
vt 0.625000 0.000000
vt 0.625000 1.000000
vt 0.375000 0.250000
vt 0.125000 0.500000
vt 0.625000 0.250000
vt 0.375000 0.750000
vt 0.625000 0.750000
vt 0.375000 0.500000
vt 0.625000 0.500000
vt 0.875000 0.750000
vt 0.625000 0.000000
vt 0.625000 1.000000
vt 0.875000 0.500000
vt 0.625000 0.250000
vt 0.625000 0.500000
vt 0.625000 0.750000
s 1
f 50/68/50 51/71/51 53/75/52 52/73/53
f 52/73/53 53/75/52 57/79/54 56/78/55
f 56/78/55 57/79/54 55/77/56 54/76/57
f 54/76/57 55/77/56 51/72/51 50/69/50
f 52/74/53 56/78/55 54/76/57 50/70/50
f 55/77/56 57/79/54 60/85/58 61/86/59
f 60/85/58 59/83/60 58/80/61 61/86/59
f 53/75/52 51/71/51 58/81/61 59/84/60
f 51/72/51 55/77/56 61/86/59 58/82/61
f 57/79/54 53/75/52 59/84/60 60/85/58
o Sphere.004
v 0.049372 -0.161090 -0.052843
v 0.071579 -0.261463 -0.075050
v 0.049372 -0.361836 -0.052843
v 0.071579 -0.161090 0.000770
v 0.102985 -0.261463 0.000770
v 0.071579 -0.361836 0.000770
v 0.049372 -0.161090 0.054382
v 0.071579 -0.261463 0.076589
v 0.049372 -0.361836 0.054382
v -0.004241 -0.161090 0.076589
v -0.004241 -0.261463 0.107995
v -0.004241 -0.361836 0.076589
v -0.057853 -0.161090 0.054382
v -0.080060 -0.261463 0.076589
v -0.057853 -0.361836 0.054382
v -0.004241 -0.403412 0.000770
v -0.080060 -0.161090 0.000770
v -0.111466 -0.261463 0.000770
v -0.080060 -0.361836 0.000770
v -0.057853 -0.161090 -0.052843
v -0.080060 -0.261463 -0.075050
v -0.057853 -0.361836 -0.052843
v -0.004241 -0.119514 0.000770
v -0.004241 -0.161090 -0.075050
v -0.004241 -0.261463 -0.106456
v -0.004241 -0.361836 -0.075050
vn -0.0000 -1.0000 -0.0000
vn -0.0000 -0.5560 -0.8312
vn 0.5877 -0.5560 -0.5877
vn -0.0000 -0.0000 -1.0000
vn -0.0000 0.5560 -0.8312
vn 0.5877 0.5560 -0.5877
vn 0.7071 -0.0000 -0.7071
vn -0.0000 1.0000 -0.0000
vn 1.0000 -0.0000 -0.0000
vn 0.8312 -0.5560 -0.0000
vn 0.8312 0.5560 -0.0000
vn 0.5877 0.5560 0.5877
vn 0.7071 -0.0000 0.7071
vn 0.5877 -0.5560 0.5877
vn -0.0000 -0.5560 0.8312
vn -0.0000 0.5560 0.8312
vn -0.0000 -0.0000 1.0000
vn -0.5877 -0.5560 0.5877
vn -0.5877 0.5560 0.5877
vn -0.7071 -0.0000 0.7071
vn -0.8312 -0.5560 -0.0000
vn -0.8312 0.5560 -0.0000
vn -1.0000 -0.0000 -0.0000
vn -0.5877 -0.5560 -0.5877
vn -0.5877 0.5560 -0.5877
vn -0.7071 -0.0000 -0.7071
vt 0.625000 0.750000
vt 0.625000 0.500000
vt 0.625000 0.250000
vt 0.500000 0.750000
vt 0.500000 0.500000
vt 0.500000 0.250000
vt 0.375000 0.750000
vt 0.375000 0.500000
vt 0.375000 0.250000
vt 0.250000 0.750000
vt 0.250000 0.500000
vt 0.250000 0.250000
vt 0.125000 0.750000
vt 0.125000 0.500000
vt 0.125000 0.250000
vt 0.687500 0.000000
vt 0.562500 0.000000
vt 0.437500 0.000000
vt 0.312500 0.000000
vt 0.187500 0.000000
vt 0.062500 0.000000
vt 0.937500 0.000000
vt 0.812500 0.000000
vt 0.000000 0.750000
vt 1.000000 0.750000
vt 0.000000 0.500000
vt 1.000000 0.500000
vt 0.000000 0.250000
vt 1.000000 0.250000
vt 0.875000 0.750000
vt 0.875000 0.500000
vt 0.875000 0.250000
vt 0.687500 1.000000
vt 0.562500 1.000000
vt 0.437500 1.000000
vt 0.312500 1.000000
vt 0.187500 1.000000
vt 0.062500 1.000000
vt 0.937500 1.000000
vt 0.812500 1.000000
vt 0.750000 0.750000
vt 0.750000 0.500000
vt 0.750000 0.250000
s 1
f 77/102/62 87/129/63 64/89/64
f 86/128/65 85/127/66 62/87/67 63/88/68
f 87/129/63 86/128/65 63/88/68 64/89/64
f 85/127/66 84/119/69 62/87/67
f 64/89/64 63/88/68 66/91/70 67/92/71
f 62/87/67 84/120/69 65/90/72
f 77/103/62 64/89/64 67/92/71
f 63/88/68 62/87/67 65/90/72 66/91/70
f 66/91/70 65/90/72 68/93/73 69/94/74
f 67/92/71 66/91/70 69/94/74 70/95/75
f 65/90/72 84/121/69 68/93/73
f 77/104/62 67/92/71 70/95/75
f 77/105/62 70/95/75 73/98/76
f 69/94/74 68/93/73 71/96/77 72/97/78
f 70/95/75 69/94/74 72/97/78 73/98/76
f 68/93/73 84/122/69 71/96/77
f 77/106/62 73/98/76 76/101/79
f 72/97/78 71/96/77 74/99/80 75/100/81
f 73/98/76 72/97/78 75/100/81 76/101/79
f 71/96/77 84/123/69 74/99/80
f 77/107/62 76/101/79 80/114/82
f 75/100/81 74/99/80 78/110/83 79/112/84
f 76/101/79 75/100/81 79/112/84 80/114/82
f 74/99/80 84/124/69 78/110/83
f 77/108/62 80/115/82 83/118/85
f 79/113/84 78/111/83 81/116/86 82/117/87
f 80/115/82 79/113/84 82/117/87 83/118/85
f 78/111/83 84/125/69 81/116/86
f 81/116/86 84/126/69 85/127/66
f 77/109/62 83/118/85 87/129/63
f 82/117/87 81/116/86 85/127/66 86/128/65
f 83/118/85 82/117/87 86/128/65 87/129/63
