# Blender 3.3.0
# www.blender.org
mtllib desk.mtl
o Cube.001
v 1.903854 0.753627 -1.000000
v 1.903854 0.674394 -1.000000
v 1.903854 0.753627 1.000000
v 1.903854 0.674394 1.000000
v -1.814221 0.753627 -1.000000
v -1.814221 0.674394 -1.000000
v -1.814221 0.753627 1.000000
v -1.814221 0.674394 1.000000
v 1.689816 0.674394 -1.000000
v 1.689816 0.753627 1.000000
v 1.689816 0.674394 1.000000
v 1.689816 0.753627 -1.000000
v 0.171035 0.674394 -1.000000
v 0.171035 0.753627 1.000000
v 0.171035 0.674394 1.000000
v 0.171035 0.753627 -1.000000
v -1.814221 0.674394 0.891605
v 1.903854 0.753627 0.891605
v -1.814221 0.753627 0.891605
v 1.903854 0.674394 0.891605
v 1.689816 0.674394 0.891605
v 1.689816 0.753627 0.891605
v 0.171035 0.674394 0.891605
v 0.171035 0.753627 0.891605
v -1.814221 0.753627 -0.282699
v 1.903854 0.674394 -0.282699
v -1.814221 0.674394 -0.282699
v 1.903854 0.753627 -0.282699
v 1.689816 0.674394 -0.282699
v 1.689816 0.753627 -0.282699
v 0.171035 0.674394 -0.282699
v 0.171035 0.753627 -0.282699
v 1.689816 0.095861 -0.282699
v 1.689816 0.095861 0.891605
v 0.171035 0.095861 -0.282699
v 0.171035 0.095861 0.891605
v 1.689816 0.133274 0.891605
v 1.689816 0.133274 -0.282699
v 0.171035 0.133274 0.891605
v 0.171035 0.133274 -0.282699
v 0.209627 0.674394 1.000000
v 0.209627 0.753627 -1.000000
v 0.209627 0.674394 -1.000000
v 0.209627 0.753627 1.000000
v 0.209627 0.753627 0.891605
v 0.209627 0.674394 0.891605
v 0.209627 0.674394 -0.282699
v 0.209627 0.753627 -0.282699
v 0.209627 0.095861 0.891605
v 0.209627 0.095861 -0.282699
v 0.209627 0.133274 -0.282699
v 0.209627 0.133274 0.891605
v 1.655489 0.674394 1.000000
v 1.655489 0.753627 -1.000000
v 1.655489 0.753627 0.891605
v 1.655489 0.753627 -0.282699
v 1.655489 0.133274 0.891605
v 1.655489 0.674394 -1.000000
v 1.655489 0.753627 1.000000
v 1.655489 0.674394 0.891605
v 1.655489 0.674394 -0.282699
v 1.655489 0.095861 0.891605
v 1.655489 0.095861 -0.282699
v 1.655489 0.133274 -0.282699
v 1.689816 0.508620 -0.282699
v 0.171035 0.508620 -0.282699
v 1.689816 0.508620 0.891605
v 0.171035 0.508620 0.891605
v 0.209627 0.508620 0.891605
v 0.209627 0.508620 -0.282699
v 1.655489 0.508620 0.891605
v 1.655489 0.508620 -0.282699
v 1.655489 0.674394 0.873718
v 0.209627 0.674394 0.873718
v 0.209627 0.508620 0.873718
v 0.209627 0.133274 0.873718
v 1.655489 0.133274 0.873718
v 1.655489 0.508620 0.873718
v 1.689816 0.494609 0.891605
v 0.171035 0.494609 0.891605
v 0.209627 0.494609 0.891605
v 0.209627 0.494609 -0.282699
v 1.655489 0.494609 0.891605
v 1.655489 0.494609 -0.282699
v 1.689816 0.494609 -0.282699
v 0.171035 0.494609 -0.282699
v 0.209627 0.494609 0.873718
v 1.655489 0.494609 0.873718
v 1.689816 0.501614 -0.282699
v 0.171035 0.501614 -0.282699
v 1.689816 0.501614 0.891605
v 0.171035 0.501614 0.891605
v 0.209627 0.501614 0.891605
v 0.209627 0.501614 -0.282699
v 1.655489 0.501614 0.891605
v 1.655489 0.501614 -0.282699
v 0.209443 0.501614 0.864927
v 1.655306 0.501614 0.864927
v -1.575320 0.674394 -1.000000
v -1.575320 0.753627 1.000000
v -1.575320 0.674394 1.000000
v -1.575320 0.753627 -1.000000
v -1.575320 0.674394 0.891605
v -1.575320 0.753627 0.891605
v -1.575320 0.753627 -0.282699
v -1.575320 0.674394 -0.282699
v -1.814221 0.753627 -0.884825
v 1.903854 0.674394 -0.884825
v -1.814221 0.674394 -0.884825
v 1.903854 0.753627 -0.884825
v 1.689816 0.674394 -0.884825
v 1.689816 0.753627 -0.884825
v 0.171035 0.674394 -0.884825
v 0.171035 0.753627 -0.884825
v 0.209627 0.753627 -0.884825
v 0.209627 0.674394 -0.884825
v 1.655489 0.753627 -0.884825
v 1.655489 0.674394 -0.884825
v -1.575320 0.674394 -0.884825
v -1.575320 0.753627 -0.884825
v -1.814221 0.674394 0.304453
v 1.903854 0.753627 0.304453
v 1.689816 0.674394 0.304453
v 1.689816 0.753627 0.304453
v 0.171035 0.674394 0.304453
v 0.171035 0.753627 0.304453
v -1.814221 0.753627 0.304453
v 1.903854 0.674394 0.304453
v 1.689816 0.095861 0.304453
v 0.171035 0.095861 0.304453
v 0.171035 0.133274 0.304453
v 1.689816 0.133274 0.304453
v 0.209627 0.095861 0.304453
v 0.209627 0.753627 0.304453
v 1.655489 0.753627 0.304453
v 1.655489 0.095861 0.304453
v 1.689816 0.508620 0.304453
v 0.171035 0.508620 0.304453
v 1.689816 0.494609 0.304453
v 0.171035 0.494609 0.304453
v 0.171035 0.501614 0.304453
v 1.689816 0.501614 0.304453
v -1.575320 0.753627 0.304453
v -1.575320 0.674394 0.304453
v -1.814221 0.674394 0.598029
v 1.903854 0.753627 0.598029
v 1.689816 0.674394 0.598029
v 1.689816 0.753627 0.598029
v 0.171035 0.674394 0.598029
v 0.171035 0.753627 0.598029
v 1.689816 0.095861 0.598029
v 0.171035 0.095861 0.598029
v 0.171035 0.133274 0.598029
v 0.209627 0.095861 0.598029
v 0.209627 0.753627 0.598029
v 1.655489 0.753627 0.598029
v 1.655489 0.095861 0.598029
v 0.171035 0.508620 0.598029
v 0.171035 0.494609 0.598029
v 0.171035 0.501614 0.598029
v -1.575320 0.753627 0.598029
v -1.575320 0.674394 0.598029
v -1.814221 0.753627 0.598029
v 1.903854 0.674394 0.598029
v 1.689816 0.133274 0.598029
v 1.689816 0.508620 0.598029
v 1.689816 0.494609 0.598029
v 1.689816 0.501614 0.598029
v -1.814221 0.674394 -0.583762
v 1.903854 0.753627 -0.583762
v 1.689816 0.674394 -0.583762
v 1.689816 0.753627 -0.583762
v 0.171035 0.674394 -0.583762
v 0.171035 0.753627 -0.583762
v 0.209627 0.753627 -0.583762
v 0.209627 0.674394 -0.583762
v 1.655489 0.753627 -0.583762
v 1.655489 0.674394 -0.583762
v -1.575320 0.674394 -0.583762
v -1.575320 0.753627 -0.583762
v -1.814221 0.753627 -0.583762
v 1.903854 0.674394 -0.583762
v -1.814221 -0.643767 -1.074633
v -1.814221 -0.643767 -0.914569
v 1.689816 -0.643767 -1.074633
v 1.689816 -0.643767 -0.914569
v 1.903854 -0.643767 -0.914569
v -1.575320 -0.643767 -0.914569
v -1.575320 -0.643767 -1.074633
v 1.903854 -0.643767 1.085799
v 1.903854 -0.643767 0.939423
v -1.575320 -0.643767 0.939423
v -1.814221 -0.643767 0.939423
v 1.689816 -0.643767 0.939423
v -1.814221 -0.643767 1.085799
v 1.689816 -0.643767 1.085799
v -1.575320 -0.643767 1.085799
v 1.903854 -0.643767 -1.074633
v -2.214703 0.674394 0.891605
v -2.214703 0.674394 1.000000
v 2.304337 0.753627 -1.000000
v 2.304337 0.674394 -1.000000
v -2.214703 0.753627 1.000000
v 2.304337 0.753627 1.000000
v 2.304337 0.674394 1.000000
v -2.214703 0.753627 -1.000000
v -2.214703 0.674394 -1.000000
v 2.304337 0.753627 0.891605
v -2.214703 0.753627 -0.884825
v 2.304337 0.674394 -0.884825
v -2.214703 0.674394 0.598029
v 2.304337 0.753627 0.598029
v -2.214703 0.753627 0.891605
v 2.304337 0.674394 0.891605
v -2.214703 0.753627 0.304453
v -2.214703 0.753627 -0.282699
v 2.304337 0.674394 0.304453
v 2.304337 0.674394 -0.282699
v -2.214703 0.674394 -0.583762
v -2.214703 0.674394 -0.282699
v 2.304337 0.753627 -0.583762
v 2.304337 0.753627 -0.282699
v -2.214703 0.753627 -0.583762
v 2.304337 0.674394 -0.583762
v -2.214703 0.674394 -0.884825
v 2.304337 0.753627 -0.884825
v -2.214703 0.674394 0.304453
v 2.304337 0.753627 0.304453
v -2.214703 0.753627 0.598029
v 2.304337 0.674394 0.598029
vn -0.0000 1.0000 -0.0000
vn -0.0000 -0.0000 1.0000
vn -0.0000 -1.0000 -0.0000
vn -0.0000 -0.0000 -1.0000
vn 1.0000 -0.0000 -0.0000
vn -0.0000 0.3490 -0.9371
vn -1.0000 -0.0000 -0.0000
vn -0.9999 0.0105 0.0041
vn 0.9999 0.0105 -0.0041
vn -0.0000 0.7820 0.6232
vn -0.0000 -0.7820 0.6232
vn 0.9999 -0.0105 -0.0041
vn -0.9999 -0.0105 0.0041
vn -0.0000 -0.4323 0.9017
vn -0.0000 -0.4340 -0.9009
vn -0.0000 0.3470 0.9379
vt 0.349893 0.567980
vt 0.615996 0.229507
vt 0.364078 0.368955
vt 0.642238 0.756492
vt 0.799304 0.587908
vt 0.373748 0.232419
vt 0.784225 0.389078
vt 0.441481 0.761273
vt 0.654233 0.872783
vt 0.916130 0.530098
vt 0.741055 0.092131
vt 0.917794 0.554145
vt 0.092368 0.528167
vt 0.509029 0.893004
vt 0.348416 0.075223
vt 0.128357 0.535772
vt 0.374577 0.363926
vt 0.649913 0.752816
vt 0.790086 0.593310
vt 0.364812 0.237656
vt 0.433733 0.757827
vt 0.773442 0.384281
vt 0.359365 0.573180
vt 0.625337 0.234635
vt 0.485640 0.280339
vt 0.731096 0.691718
vt 0.698040 0.678718
vt 0.275587 0.320447
vt 0.343048 0.691771
vt 0.647225 0.292345
vt 0.452870 0.655543
vt 0.717550 0.315860
vt 0.150338 0.493725
vt 0.383950 0.242009
vt 0.131216 0.562733
vt 0.448718 0.751272
vt 0.441198 0.745152
vt 0.610708 0.986798
vt 0.376030 0.251442
vt 0.357904 0.669294
vt 0.263232 0.977692
vt 0.296804 0.341943
vt 0.616856 0.655058
vt 0.403285 0.959733
vt 0.572220 0.715944
vt 0.189980 0.971930
vt 0.686154 0.344509
vt 0.534796 0.269832
vt 0.599191 0.017989
vt 0.855098 0.982030
vt 0.573852 0.705355
vt 0.350386 0.959487
vt 0.536699 0.281699
vt 0.581185 0.017414
vt 0.029296 0.970281
vt 0.601933 0.601293
vt 0.563873 0.400077
vt 0.581370 0.161702
vt 0.855098 0.236557
vt 0.582600 0.233079
vt 0.154315 0.233883
vt 0.443087 0.162195
vt 0.429722 0.232257
vt 0.576888 0.286177
vt 0.557389 0.109405
vt 0.843623 0.287961
vt 0.427399 0.285845
vt 0.160265 0.285378
vt 0.529062 0.108807
vt 0.653390 0.293422
vt 0.347477 0.692545
vt 0.447873 0.653774
vt 0.712622 0.314115
vt 0.480042 0.281522
vt 0.727004 0.692582
vt 0.280309 0.318528
vt 0.702911 0.676739
vt 0.299288 0.338808
vt 0.277581 0.978248
vt 0.360642 0.671631
vt 0.601176 0.604725
vt 0.582983 0.017485
vt 0.563281 0.396468
vt 0.433677 0.232264
vt 0.447071 0.162412
vt 0.533446 0.109051
vt 0.230239 0.363991
vt 0.431768 0.285852
vt 0.770218 0.383683
vt 0.431417 0.757397
vt 0.362112 0.574041
vt 0.628046 0.235484
vt 0.374606 0.253137
vt 0.536981 0.283632
vt 0.230239 0.393032
vt 0.572563 0.286146
vt 0.377774 0.363224
vt 0.652250 0.752303
vt 0.787320 0.594283
vt 0.362131 0.238600
vt 0.439827 0.744004
vt 0.595697 0.987146
vt 0.573559 0.703578
vt 0.597403 0.017933
vt 0.578852 0.233054
vt 0.577676 0.161762
vt 0.553117 0.109396
vt 0.585607 0.042169
vt 0.784074 0.777113
vt 0.141909 0.775024
vt 0.564506 0.041682
vt 0.510912 0.784284
vt 0.406158 0.783579
vt 0.412254 0.783865
vt 0.565311 0.041718
vt 0.505426 0.784444
vt 0.584903 0.042152
vt 0.016963 0.356024
vt 0.442826 0.741347
vt 0.580659 0.987508
vt 0.291959 0.978758
vt 0.983102 0.356025
vt 0.363149 0.669052
vt 0.982985 0.787551
vt 0.419382 0.784158
vt 0.995430 0.759976
vt 0.229341 0.363991
vt 0.466707 0.285932
vt 0.007885 0.759976
vt 0.229341 0.393032
vt 0.537787 0.285948
vt 0.498143 0.784633
vt 0.016846 0.787550
vt 0.507004 0.757336
vt 0.419707 0.756913
vt 0.425239 0.756913
vt 0.562646 0.045215
vt 0.502176 0.757284
vt 0.583324 0.045636
vt 0.583945 0.045654
vt 0.781896 0.758678
vt 0.561932 0.045195
vt 0.145199 0.756956
vt 0.431786 0.756931
vt 0.995307 0.219395
vt 0.007762 0.219395
vt 0.495717 0.757233
vt 0.584880 0.043950
vt 0.782898 0.767897
vt 0.143645 0.766043
vt 0.562903 0.043470
vt 0.504882 0.770445
vt 0.417805 0.770080
vt 0.422792 0.770210
vt 0.563555 0.043496
vt 0.500418 0.770478
vt 0.584305 0.043935
vt 0.995430 0.208902
vt 0.983103 0.805809
vt 0.431484 0.770432
vt 0.007884 0.208902
vt 0.016964 0.805809
vt 0.491678 0.770526
vt 0.700512 0.105720
vt 0.888158 0.564078
vt 0.543139 0.867330
vt 0.125432 0.503279
vt 0.161973 0.548533
vt 0.395204 0.092984
vt 0.618328 0.845568
vt 0.880722 0.503260
vt 0.183153 0.516406
vt 0.156094 0.529342
vt 0.612531 0.616116
vt 0.673598 0.388662
vt 0.243729 0.972175
vt 0.871722 0.567165
vt 0.633556 0.745859
vt 0.898313 0.513294
vt 0.606331 0.240453
vt 0.641216 0.738809
vt 0.614213 0.248875
vt 0.715674 0.669384
vt 0.695643 0.338686
vt 0.693130 0.335622
vt 0.713122 0.671750
vt 0.615600 0.250432
vt 0.642608 0.737492
vt 0.868032 0.533421
vt 0.847109 0.532482
vt 0.561968 0.953876
vt 0.387073 0.329193
vt 0.457672 0.270648
vt 0.504352 0.707283
vt 0.732896 0.984375
vt 0.928724 0.941361
vt 0.720627 0.940925
vt 0.456004 0.282679
vt 0.146238 0.973978
vt 0.468640 0.595845
vt 0.427492 0.400916
vt 0.370615 0.651750
vt 0.876700 0.941119
vt 0.506804 0.717418
vt 0.585175 0.197291
vt 0.720011 0.234856
vt 0.290385 0.233013
vt 0.431863 0.197088
vt 0.293281 0.285284
vt 0.710745 0.286804
vt 0.435771 0.197132
vt 0.428055 0.397279
vt 0.455762 0.284635
vt 0.581646 0.197298
vt 0.653792 0.778666
vt 0.269429 0.777243
vt 0.650719 0.759237
vt 0.274427 0.758132
vt 0.272472 0.767754
vt 0.651734 0.768931
vt 0.375912 0.613131
vt 0.509083 0.953635
vt 0.396228 0.375430
vt 0.720627 0.954068
vt 0.249244 0.391400
vt 0.614857 0.953560
vt 0.419226 0.260839
vt 0.468068 0.721679
vt 0.671725 0.985601
vt 0.772654 0.940614
vt 0.414614 0.272264
vt 0.204804 0.975887
vt 0.406965 0.626286
vt 0.359880 0.379752
vt 0.584635 0.215014
vt 0.651585 0.233996
vt 0.359527 0.232644
vt 0.430346 0.214645
vt 0.360193 0.285447
vt 0.434274 0.214658
vt 0.361447 0.376300
vt 0.413864 0.274174
vt 0.581080 0.214999
vt 0.335147 0.779416
vt 0.342902 0.758153
vt 0.340878 0.768863
vt 0.263837 0.583999
vt 0.275151 0.429125
vt 0.667738 0.953801
vt 0.249630 0.621508
vt 0.824673 0.940856
vt 0.473749 0.730859
vt 0.643978 0.286387
vt 0.585981 0.780418
vt 0.582094 0.758917
vt 0.582304 0.769590
vt 0.136227 0.971657
vt 0.811951 0.414175
vt 0.573640 0.259316
vt 0.509083 0.959665
vt 0.608994 0.717638
vt 0.297482 0.959219
vt 0.578148 0.270244
vt 0.663800 0.627323
vt 0.632351 0.377911
vt 0.630758 0.374510
vt 0.662031 0.630272
vt 0.578915 0.272057
vt 0.609778 0.716054
vt 0.785995 0.447322
vt 0.082482 0.971413
vt 0.297482 0.971856
vt 0.731038 0.587915
vt 0.744723 0.626787
vt 0.456188 0.959419
vt 0.604640 0.725994
vt 0.413597 0.000000
vt 0.136227 0.009106
vt 0.413221 0.025794
vt 0.189980 0.009310
vt 0.509083 0.012329
vt 0.459600 0.000000
vt 0.297482 0.011881
vt 0.459178 0.028335
vt 0.350386 0.012081
vt 0.474335 0.028561
vt 0.403285 0.012327
vt 0.428620 0.026019
vt 0.243729 0.009555
vt 0.428996 0.000225
vt 0.082482 0.008861
vt 0.297482 0.009307
vt 0.595067 0.025703
vt 0.824673 0.009210
vt 0.595446 0.000222
vt 0.876700 0.009403
vt 0.509083 0.006490
vt 0.550441 0.000221
vt 0.720627 0.006925
vt 0.535290 0.000000
vt 0.561968 0.006731
vt 0.580542 0.000000
vt 0.928724 0.009645
vt 0.720627 0.009207
vt 0.534952 0.023208
vt 0.614857 0.006488
vt 0.580163 0.025481
vt 0.772654 0.008968
vt 0.550103 0.023429
vt 0.667738 0.006729
vt 0.474756 0.000226
vt 0.456188 0.012083
vt 0.081426 0.456685
vt 0.193812 0.838435
vt 0.257876 0.044577
vt 0.063305 0.513753
vt 0.156507 0.833475
vt 0.337132 0.560631
vt 0.758269 0.655736
vt 0.603412 0.222259
vt 0.347233 0.381943
vt 0.629926 0.765986
vt 0.770750 0.271375
vt 0.026903 0.595172
vt 0.441495 0.962128
vt 0.248035 0.145148
vt 0.812084 0.576551
vt 0.280874 0.653873
vt 0.386136 0.221411
vt 0.802480 0.397304
vt 0.261062 0.272339
vt 0.454597 0.767184
vt 0.827223 0.148080
vt 0.722125 0.943676
vt 0.983085 0.600011
vt 0.888125 0.862126
vt 0.824078 0.063728
vt 0.978481 0.533383
vt 0.303463 0.665072
vt 0.396417 0.226508
vt 0.788063 0.169779
vt 0.918436 0.635835
vt 0.750715 0.244196
vt 0.620237 0.757516
vt 0.194769 0.318516
vt 0.297095 0.851455
vt 0.427457 0.241104
vt 0.371663 0.697143
vt 0.283827 0.165515
vt 0.085993 0.628796
vt 0.281321 0.254914
vt 0.461574 0.761219
vt 0.362206 0.720058
vt 0.451138 0.220796
vt 0.610073 0.223577
vt 0.624593 0.724649
vt 0.433351 0.179259
vt 0.512824 0.735068
vt 0.600362 0.181018
vt 0.569564 0.735667
vt 0.737791 0.872535
vt 0.864508 0.351225
vt 0.628718 0.876241
vt 0.712452 0.260921
vt 0.677349 0.695216
vt 0.566583 0.240227
vt 0.599885 0.713856
vt 0.531327 0.248711
vt 0.696973 0.207402
vt 0.768055 0.697947
vt 0.681231 0.199503
vt 0.596763 0.742192
vt 0.847258 0.865553
vt 0.960423 0.480826
vt 0.738987 0.664986
vt 0.594636 0.226469
vt 0.400607 0.862485
vt 0.365611 0.238554
vt 0.445300 0.715426
vt 0.460971 0.249426
vt 0.368795 0.202887
vt 0.226267 0.690492
vt 0.346760 0.214424
vt 0.483593 0.747158
s 0
usemtl Material.001
f 104/173/1 19/35/1 7/13/1 100/167/1
f 101/169/2 100/166/2 7/14/2 8/15/2
f 3/5/2 4/7/2 205/330/2 204/327/2
f 21/37/3 20/36/3 4/8/3 11/21/3
f 127/202/1 25/43/1 216/356/1 215/353/1
f 9/17/4 12/23/4 1/1/4 2/3/4
f 58/97/4 54/91/4 12/23/4 9/17/4
f 60/101/3 21/37/3 11/21/3 53/90/3
f 4/7/2 3/5/2 10/19/2 11/22/2
f 18/34/1 22/39/1 10/20/1 3/6/1
f 103/172/3 23/40/3 15/29/3 101/168/3
f 99/164/4 102/170/4 16/31/4 13/25/4
f 41/70/2 44/77/2 14/27/2 15/30/2
f 45/78/1 24/42/1 14/28/1 44/76/1
f 155/241/1 150/234/1 24/42/1 45/78/1
f 162/248/3 149/233/3 23/40/3 103/172/3
f 146/227/1 148/231/1 22/39/1 18/34/1
f 165/253/5 37/64/5 34/60/5 151/236/5
f 122/193/1 146/227/1 212/347/1 228/380/1
f 147/228/3 164/252/3 20/36/3 21/37/3
f 7/13/1 19/35/1 213/350/1 203/324/1
f 161/247/1 163/250/1 19/35/1 104/173/1
f 180/273/1 181/274/1 25/43/1 105/174/1
f 171/260/6 182/275/6 198/312/6 185/281/6
f 8/15/2 7/14/2 203/325/2 200/315/2
f 178/269/3 171/261/3 29/51/3 61/103/3
f 170/259/1 172/263/1 30/53/1 28/48/1
f 179/270/3 173/264/3 31/56/3 106/175/3
f 175/266/1 174/265/1 32/57/1 48/83/1
f 121/192/3 145/225/3 211/345/3 227/378/3
f 157/243/3 151/235/3 34/60/3 62/105/3
f 52/88/2 39/67/2 36/63/2 49/84/2
f 64/107/4 38/65/4 33/58/4 63/106/4
f 131/209/7 40/68/7 35/61/7 130/207/7
f 140/218/7 86/143/7 40/68/7 131/209/7
f 84/139/4 85/140/4 38/65/4 64/107/4
f 81/136/2 80/135/2 39/67/2 52/88/2
f 167/255/5 79/134/5 37/64/5 165/253/5
f 95/156/8 71/116/8 78/132/8 98/163/8
f 86/142/4 82/137/4 51/86/4 40/69/4
f 40/69/4 51/86/4 50/85/4 35/62/4
f 57/96/2 52/88/2 49/84/2 62/105/2
f 152/238/3 154/240/3 49/84/3 36/63/3
f 177/268/1 175/266/1 48/83/1 56/94/1
f 173/264/3 176/267/3 47/81/3 31/56/3
f 156/242/1 155/241/1 45/78/1 55/93/1
f 55/93/1 45/78/1 44/76/1 59/100/1
f 53/89/2 59/99/2 44/77/2 41/70/2
f 23/40/3 46/80/3 41/71/3 15/29/3
f 13/25/4 16/31/4 42/72/4 43/74/4
f 11/22/2 10/19/2 59/99/2 53/89/2
f 22/39/1 55/93/1 59/100/1 10/20/1
f 148/231/1 156/242/1 55/93/1 22/39/1
f 172/263/1 177/268/1 56/94/1 30/53/1
f 37/64/2 57/96/2 62/105/2 34/60/2
f 79/134/2 83/138/2 57/96/2 37/64/2
f 82/137/4 84/139/4 64/107/4 51/86/4
f 51/86/4 64/107/4 63/106/4 50/85/4
f 154/240/3 157/243/3 62/105/3 49/84/3
f 176/267/3 178/269/3 61/103/3 47/81/3
f 46/80/3 60/101/3 53/90/3 41/71/3
f 43/74/4 42/72/4 54/91/4 58/97/4
f 47/82/4 61/104/4 72/117/4 70/115/4
f 21/38/2 60/102/2 71/116/2 67/112/2
f 31/54/4 47/82/4 70/115/4 66/111/4
f 46/79/5 69/114/5 75/125/5 74/121/5
f 147/229/5 21/38/5 67/112/5 166/254/5
f 46/79/2 23/41/2 68/113/2 69/114/2
f 61/104/4 29/49/4 65/108/4 72/117/4
f 125/199/7 31/55/7 66/110/7 138/216/7
f 88/146/2 87/145/2 76/126/2 77/129/2
f 73/118/2 74/122/2 75/124/2 78/133/2
f 52/87/1 57/95/1 77/130/1 76/127/1
f 60/101/3 46/80/3 74/123/3 73/119/3
f 81/136/5 52/88/5 76/128/5 87/144/5
f 71/116/7 60/102/7 73/120/7 78/132/7
f 93/154/9 81/136/9 87/144/9 97/160/9
f 98/161/10 97/158/10 87/145/10 88/146/10
f 94/155/4 96/157/4 84/139/4 82/137/4
f 91/152/2 95/156/2 83/138/2 79/134/2
f 90/151/4 94/155/4 82/137/4 86/142/4
f 57/96/7 83/138/7 88/147/7 77/131/7
f 168/256/5 91/152/5 79/134/5 167/255/5
f 93/154/2 92/153/2 80/135/2 81/136/2
f 96/157/4 89/148/4 85/140/4 84/139/4
f 141/219/7 90/150/7 86/143/7 140/218/7
f 138/216/7 66/110/7 90/150/7 141/219/7
f 72/117/4 65/108/4 89/148/4 96/157/4
f 69/114/2 68/113/2 92/153/2 93/154/2
f 166/254/5 67/112/5 91/152/5 168/256/5
f 66/111/4 70/115/4 94/155/4 90/151/4
f 67/112/2 71/116/2 95/156/2 91/152/2
f 70/115/4 72/117/4 96/157/4 94/155/4
f 78/133/11 75/124/11 97/159/11 98/162/11
f 69/114/12 93/154/12 97/160/12 75/125/12
f 83/138/13 95/156/13 98/163/13 88/147/13
f 27/46/7 169/257/7 183/278/7 184/280/7
f 174/265/1 180/273/1 105/174/1 32/57/1
f 150/234/1 161/247/1 104/173/1 24/42/1
f 145/225/3 162/248/3 103/172/3 17/33/3
f 6/11/4 5/9/4 102/170/4 99/164/4
f 17/33/3 103/172/3 101/168/3 8/16/3
f 15/30/2 14/27/2 100/166/2 101/169/2
f 24/42/1 104/173/1 100/167/1 14/28/1
f 16/32/1 102/171/1 120/190/1 114/184/1
f 6/12/3 99/165/3 119/189/3 109/179/3
f 43/75/3 58/98/3 118/188/3 116/186/3
f 12/24/1 54/92/1 117/187/1 112/182/1
f 13/26/3 43/75/3 116/186/3 113/183/3
f 54/92/1 42/73/1 115/185/1 117/187/1
f 42/73/1 16/32/1 114/184/1 115/185/1
f 99/165/3 13/26/3 113/183/3 119/189/3
f 1/2/1 12/24/1 112/182/1 110/180/1
f 58/98/3 9/18/3 111/181/3 118/188/3
f 146/227/1 18/34/1 208/340/1 212/347/1
f 9/18/3 2/4/3 108/178/3 111/181/3
f 102/171/1 5/10/1 107/177/1 120/190/1
f 2/3/4 1/1/4 201/318/4 202/321/4
f 27/47/3 106/175/3 144/223/3 121/192/3
f 32/57/1 105/174/1 143/221/1 126/201/1
f 65/109/5 137/215/5 142/220/5 89/149/5
f 158/244/7 138/216/7 141/219/7 160/246/7
f 160/246/7 141/219/7 140/218/7 159/245/7
f 89/149/5 142/220/5 139/217/5 85/141/5
f 149/232/7 125/199/7 138/216/7 158/244/7
f 29/50/5 123/195/5 137/215/5 65/109/5
f 50/85/3 63/106/3 136/214/3 133/211/3
f 30/53/1 56/94/1 135/213/1 124/198/1
f 56/94/1 48/83/1 134/212/1 135/213/1
f 35/62/3 50/85/3 133/211/3 130/208/3
f 85/141/5 139/217/5 132/210/5 38/66/5
f 159/245/7 140/218/7 131/209/7 153/239/7
f 153/239/7 131/209/7 130/207/7 152/237/7
f 63/106/3 33/58/3 129/205/3 136/214/3
f 164/252/3 128/204/3 217/358/3 230/384/3
f 105/174/1 25/43/1 127/202/1 143/221/1
f 29/51/3 26/45/3 128/204/3 123/194/3
f 145/225/3 17/33/3 199/313/3 211/345/3
f 38/66/5 132/210/5 129/206/5 33/59/5
f 28/48/1 30/53/1 124/198/1 122/193/1
f 106/175/3 31/56/3 125/200/3 144/223/3
f 48/83/1 32/57/1 126/201/1 134/212/1
f 163/250/1 127/202/1 215/353/1 229/382/1
f 39/67/7 153/239/7 152/237/7 36/63/7
f 80/135/7 159/245/7 153/239/7 39/67/7
f 23/41/7 149/232/7 158/244/7 68/113/7
f 92/153/7 160/246/7 159/245/7 80/135/7
f 68/113/7 158/244/7 160/246/7 92/153/7
f 26/44/14 29/52/14 186/285/14 187/287/14
f 126/201/1 143/221/1 161/247/1 150/234/1
f 137/215/5 166/254/5 168/256/5 142/220/5
f 142/220/5 168/256/5 167/255/5 139/217/5
f 123/195/5 147/229/5 166/254/5 137/215/5
f 133/211/3 136/214/3 157/243/3 154/240/3
f 124/198/1 135/213/1 156/242/1 148/231/1
f 135/213/1 134/212/1 155/241/1 156/242/1
f 130/208/3 133/211/3 154/240/3 152/238/3
f 139/217/5 167/255/5 165/253/5 132/210/5
f 136/214/3 129/205/3 151/235/3 157/243/3
f 143/221/1 127/202/1 163/250/1 161/247/1
f 121/191/15 144/222/15 192/297/15 193/301/15
f 17/33/3 8/16/3 200/316/3 199/313/3
f 132/210/5 165/253/5 151/236/5 129/206/5
f 122/193/1 124/198/1 148/231/1 146/227/1
f 144/223/3 125/200/3 149/233/3 162/248/3
f 134/212/1 126/201/1 150/234/1 155/241/1
f 110/180/1 170/259/1 221/366/1 226/376/1
f 114/184/1 120/190/1 180/273/1 174/265/1
f 109/179/3 119/189/3 179/270/3 169/258/3
f 116/186/3 118/188/3 178/269/3 176/267/3
f 112/182/1 117/187/1 177/268/1 172/263/1
f 113/183/3 116/186/3 176/267/3 173/264/3
f 117/187/1 115/185/1 175/266/1 177/268/1
f 115/185/1 114/184/1 174/265/1 175/266/1
f 119/189/3 113/183/3 173/264/3 179/270/3
f 110/180/1 112/182/1 172/263/1 170/259/1
f 118/188/3 111/181/3 171/261/3 178/269/3
f 108/178/3 2/4/3 202/322/3 210/344/3
f 111/181/3 108/178/3 182/276/3 171/261/3
f 120/190/1 107/177/1 181/274/1 180/273/1
f 185/282/3 198/311/3 187/286/3 186/284/3
f 183/277/3 189/290/3 188/288/3 184/279/3
f 193/300/3 192/298/3 197/309/3 195/305/3
f 194/302/3 191/295/3 190/293/3 196/307/3
f 145/226/7 121/191/7 193/301/7 195/306/7
f 162/249/16 145/226/16 195/306/16 197/310/16
f 29/52/7 171/262/7 185/283/7 186/285/7
f 123/196/15 128/203/15 191/296/15 194/303/15
f 182/275/5 26/44/5 187/287/5 198/312/5
f 147/230/7 123/197/7 194/304/7 196/308/7
f 144/224/5 162/249/5 197/310/5 192/299/5
f 106/176/14 27/46/14 184/280/14 188/289/14
f 128/203/5 164/251/5 190/294/5 191/296/5
f 169/257/6 179/271/6 189/291/6 183/278/6
f 179/272/5 106/176/5 188/289/5 189/292/5
f 164/251/16 147/230/16 196/308/16 190/294/16
f 225/373/7 209/341/7 206/333/7 207/336/7
f 214/351/5 208/339/5 204/328/5 205/331/5
f 230/383/5 212/348/5 208/339/5 214/351/5
f 200/317/7 203/326/7 213/349/7 199/314/7
f 224/371/5 221/365/5 222/367/5 218/359/5
f 227/377/7 215/354/7 216/355/7 220/363/7
f 202/323/5 201/319/5 226/375/5 210/343/5
f 219/361/7 223/369/7 209/341/7 225/373/7
f 211/346/7 229/381/7 215/354/7 227/377/7
f 218/359/5 222/367/5 228/379/5 217/357/5
f 199/314/7 213/349/7 229/381/7 211/346/7
f 217/357/5 228/379/5 212/348/5 230/383/5
f 220/363/7 216/355/7 223/369/7 219/361/7
f 210/343/5 226/375/5 221/365/5 224/371/5
f 4/8/3 20/36/3 214/352/3 205/332/3
f 128/204/3 26/45/3 218/360/3 217/358/3
f 5/9/4 6/11/4 207/337/4 206/334/4
f 169/258/3 27/47/3 220/364/3 219/362/3
f 170/259/1 28/48/1 222/368/1 221/366/1
f 181/274/1 107/177/1 209/342/1 223/370/1
f 18/34/1 3/6/1 204/329/1 208/340/1
f 19/35/1 163/250/1 229/382/1 213/350/1
f 182/276/3 108/178/3 210/344/3 224/372/3
f 20/36/3 164/252/3 230/384/3 214/352/3
f 27/47/3 121/192/3 227/378/3 220/364/3
f 25/43/1 181/274/1 223/370/1 216/356/1
f 6/12/3 109/179/3 225/374/3 207/338/3
f 107/177/1 5/10/1 206/335/1 209/342/1
f 28/48/1 122/193/1 228/380/1 222/368/1
f 26/45/3 182/276/3 224/372/3 218/360/3
f 1/2/1 110/180/1 226/376/1 201/320/1
f 109/179/3 169/258/3 219/362/3 225/374/3
