# Blender 3.3.0
# www.blender.org
mtllib hologramModule.mtl
o Cube.034
v -0.147398 -0.194459 -0.011626
v -0.147398 0.201358 -0.011626
v -0.147398 -0.194459 -0.048708
v -0.147398 0.201358 -0.048708
v 0.149465 -0.194459 -0.011626
v 0.149465 0.201358 -0.011626
v 0.149465 -0.194459 -0.048708
v 0.149465 0.201358 -0.048708
v -0.136447 0.191137 -0.048708
v -0.136447 -0.184238 -0.048708
v 0.138515 -0.184238 -0.048708
v 0.138515 0.191137 -0.048708
v -0.136447 0.191137 -0.033706
v -0.136447 -0.184238 -0.033706
v 0.138515 -0.184238 -0.033706
v 0.138515 0.191137 -0.033706
vn -1.0000 -0.0000 -0.0000
vn -0.0000 -0.0000 -1.0000
vn 1.0000 -0.0000 -0.0000
vn -0.0000 -0.0000 1.0000
vn -0.0000 -1.0000 -0.0000
vn -0.0000 1.0000 -0.0000
vt 0.375000 0.000000
vt 0.375000 1.000000
vt 0.125000 0.750000
vt 0.625000 0.000000
vt 0.625000 1.000000
vt 0.875000 0.750000
vt 0.375000 0.250000
vt 0.125000 0.500000
vt 0.875000 0.500000
vt 0.625000 0.250000
vt 0.375000 0.750000
vt 0.625000 0.750000
vt 0.375000 0.500000
vt 0.625000 0.500000
vt 0.875000 0.500000
vt 0.625000 0.250000
vt 0.125000 0.500000
vt 0.375000 0.250000
vt 0.375000 0.500000
vt 0.625000 0.500000
vt 0.625000 0.250000
vt 0.875000 0.500000
vt 0.375000 0.250000
vt 0.125000 0.500000
vt 0.375000 0.500000
vt 0.625000 0.500000
s 0
f 1/1/1 2/4/1 4/10/1 3/7/1
f 4/9/2 8/14/2 12/20/2 9/15/2
f 7/13/3 8/14/3 6/12/3 5/11/3
f 5/11/4 6/12/4 2/5/4 1/2/4
f 3/8/5 7/13/5 5/11/5 1/3/5
f 8/14/6 4/9/6 2/6/6 6/12/6
f 11/19/6 10/17/6 14/24/6 15/25/6
f 3/7/2 4/10/2 9/16/2 10/18/2
f 8/14/2 7/13/2 11/19/2 12/20/2
f 7/13/2 3/8/2 10/17/2 11/19/2
f 9/15/5 12/20/5 16/26/5 13/22/5
f 10/18/3 9/16/3 13/21/3 14/23/3
f 12/20/1 11/19/1 15/25/1 16/26/1
f 14/24/2 13/22/2 16/26/2 15/25/2
o Cube.035
v -0.136447 0.191137 -0.040293
v -0.136447 -0.184238 -0.040293
v 0.138515 -0.184238 -0.040293
v 0.138515 0.191137 -0.040293
vn -0.0000 -0.0000 -1.0000
vt 0.625000 0.250000
vt 0.375000 0.250000
vt 0.375000 0.500000
vt 0.625000 0.500000
s 0
f 18/28/7 17/27/7 20/30/7 19/29/7
