# Blender 3.3.0
# www.blender.org
mtllib lamp.mtl
o Sphere
v 0.081824 0.120918 -0.033578
v 0.103113 0.098619 -0.086987
v 0.102101 0.120918 -0.013837
v 0.154921 0.098619 -0.036549
v 0.102480 0.120918 0.014461
v 0.155889 0.098619 0.035750
v 0.082739 0.120918 0.034738
v 0.105451 0.098619 0.087557
v 0.054442 0.120918 0.035117
v 0.033153 0.098619 0.088526
v 0.034165 0.120918 0.015376
v -0.018655 0.098619 0.038088
v 0.033786 0.120918 -0.012921
v -0.019623 0.098619 -0.034211
v 0.053527 0.120918 -0.033199
v 0.030815 0.098619 -0.086018
v 0.050010 0.439314 -0.006454
v 0.050210 0.439314 0.008476
v 0.060909 0.439314 0.018893
v 0.075840 0.439314 0.018693
v 0.086256 0.439314 0.007994
v 0.086056 0.439314 -0.006937
v 0.060426 0.439314 -0.017154
v 0.075357 0.439314 -0.017354
v 0.048184 0.419619 -0.007182
v 0.048404 0.419619 0.009253
v 0.060181 0.419619 0.020719
v 0.076616 0.419619 0.020498
v 0.088082 0.419619 0.008721
v 0.087862 0.419619 -0.007714
v 0.059650 0.419619 -0.018959
v 0.076085 0.419619 -0.019179
v 0.090268 0.419619 -0.239695
v 0.088797 0.439314 -0.236002
v 0.306484 0.439314 -0.008705
v 0.306889 0.439314 0.021493
v -0.168387 0.439314 -0.019886
v -0.167982 0.439314 0.010311
v 0.047403 0.439314 0.239736
v 0.077601 0.439314 0.239332
v 0.058599 0.439314 -0.235597
v -0.172079 0.419619 -0.021358
v -0.171634 0.419619 0.011882
v 0.045931 0.419619 0.243429
v 0.079171 0.419619 0.242984
v 0.310582 0.419619 0.022965
v 0.310136 0.419619 -0.010275
v 0.057029 0.419619 -0.239249
v 0.103113 0.061795 -0.086987
v 0.154921 0.061795 -0.036549
v 0.155889 0.061795 0.035750
v 0.105451 0.061795 0.087557
v 0.033153 0.061795 0.088526
v -0.018655 0.061795 0.038088
v -0.019623 0.061795 -0.034211
v 0.030815 0.061795 -0.086018
vn 0.7069 -0.1743 -0.6855
vn 0.2928 0.6122 -0.7345
vn -0.3123 0.6122 -0.7264
vn -0.7150 -0.1570 -0.6812
vn 0.8301 0.4489 0.3309
vn 0.8209 0.4489 -0.3530
vn 0.7264 0.6122 -0.3123
vn 0.7345 0.6122 0.2928
vn -0.2928 0.6122 0.7345
vn -0.3309 0.4489 0.8301
vn 0.3530 0.4489 0.8209
vn 0.3123 0.6122 0.7264
vn -0.7264 0.6122 0.3123
vn -0.8209 0.4489 0.3530
vn -0.7345 0.6122 -0.2928
vn -0.8301 0.4489 -0.3309
vn -0.3530 0.4489 -0.8209
vn 0.7150 -0.1569 0.6813
vn -0.7069 -0.1743 0.6856
vn -0.6855 -0.1743 -0.7069
vn -0.6812 -0.1570 0.7150
vn 0.3309 0.4489 -0.8301
vn -0.5839 0.7751 0.2413
vn -0.2518 0.7652 0.5926
vn 0.5839 0.7752 -0.2412
vn 0.2519 0.7651 -0.5926
vn 0.6813 -0.1569 -0.7150
vn -0.5454 0.5663 0.6179
vn -0.6571 -0.4192 0.6265
vn 0.6856 -0.1743 0.7069
vn 0.2413 0.7751 0.5839
vn 0.5926 0.7651 0.2520
vn -0.5926 0.7652 -0.2518
vn -0.2411 0.7752 -0.5839
vn -0.6265 -0.4192 -0.6571
vn 0.6328 -0.4154 -0.6535
vn -0.6535 -0.4154 -0.6328
vn -0.5354 0.5613 -0.6311
vn 0.6264 -0.4192 0.6572
vn -0.6327 -0.4154 0.6536
vn 0.6536 -0.4154 0.6327
vn 0.6572 -0.4192 -0.6264
vn 0.5455 0.5664 -0.6178
vn 0.5355 0.5613 0.6310
vn 0.6177 0.5664 0.5456
vn -0.6310 0.5613 0.5355
vn 0.6311 0.5613 -0.5354
vn -0.6179 0.5663 -0.5454
vn -0.3950 -0.0000 -0.9187
vn -0.9289 -0.0000 -0.3703
vn 0.9289 -0.0000 0.3703
vn 0.9187 -0.0000 -0.3950
vn -0.9187 -0.0000 0.3950
vn -0.3703 -0.0000 0.9289
vn 0.3950 -0.0000 0.9187
vn 0.3703 -0.0000 -0.9289
vt 0.750000 0.812500
vt 0.750000 0.562500
vt 0.625000 0.812500
vt 0.625000 0.562500
vt 0.500000 0.812500
vt 0.500000 0.562500
vt 0.375000 0.812500
vt 0.375000 0.562500
vt 0.250000 0.812500
vt 0.250000 0.562500
vt 0.125000 0.812500
vt 0.125000 0.562500
vt 1.000000 0.812500
vt 0.000000 0.812500
vt 0.000000 0.562500
vt 0.875000 0.812500
vt 0.875000 0.562500
vt 0.946978 0.871686
vt 1.000000 0.871686
vt 0.125000 0.871686
vt 0.250000 0.871686
vt 0.375000 0.871686
vt 0.500000 0.871686
vt 0.625000 0.871686
vt 0.875000 0.871686
vt 0.750000 0.871686
vt 0.888402 0.868025
vt 1.000000 0.868025
vt 0.125000 0.868025
vt 0.250000 0.868025
vt 0.375000 0.868025
vt 0.500000 0.868025
vt 0.625000 0.868025
vt 0.875000 0.868025
vt 0.750000 0.868025
vt 0.750000 0.868025
vt 0.750000 0.871686
vt 0.625000 0.871686
vt 0.500000 0.871686
vt 0.946978 0.871686
vt 1.000000 0.871686
vt 0.125000 0.871686
vt 0.250000 0.871686
vt 0.375000 0.871686
vt 0.875000 0.871686
vt 0.888402 0.868025
vt 1.000000 0.868025
vt 0.125000 0.868025
vt 0.250000 0.868025
vt 0.375000 0.868025
vt 0.500000 0.868025
vt 0.625000 0.868025
vt 0.875000 0.868025
vt 0.750000 0.562500
vt 0.625000 0.562500
vt 0.500000 0.562500
vt 0.375000 0.562500
vt 0.250000 0.562500
vt 0.125000 0.562500
vt 0.000000 0.562500
vt 0.875000 0.562500
s 1
f 32/35/1 1/1/2 15/16/3 31/34/4
f 6/6/5 4/4/6 3/3/7 5/5/8
f 9/9/9 10/10/10 8/8/11 7/7/12
f 11/11/13 12/12/14 10/10/10 9/9/9
f 13/13/15 14/15/16 12/12/14 11/11/13
f 15/16/3 16/17/17 14/15/16 13/14/15
f 28/31/18 27/30/19 9/9/9 7/7/12
f 25/28/20 13/13/15 11/11/13 26/29/21
f 3/3/7 4/4/6 2/2/22 1/1/2
f 1/1/2 2/2/22 16/17/17 15/16/3
f 7/7/12 8/8/11 6/6/5 5/5/8
f 27/30/19 19/21/23 18/20/24 26/29/21
f 32/35/1 24/26/25 22/24/26 30/33/27
f 26/29/21 18/20/24 38/42/28 43/48/29
f 28/31/18 29/32/30 21/23/31 20/22/32
f 19/21/23 20/22/32 21/23/31 22/24/26 24/26/25 23/25/33 17/18/34 18/20/24
f 25/27/20 17/18/34 23/25/33 31/34/4
f 13/14/15 25/27/20 31/34/4 15/16/3
f 7/7/12 5/5/8 29/32/30 28/31/18
f 5/5/8 3/3/7 30/33/27 29/32/30
f 1/1/2 32/35/1 30/33/27 3/3/7
f 9/9/9 27/30/19 26/29/21 11/11/13
f 32/35/1 31/34/4 48/53/35 33/36/36
f 17/18/34 25/27/20 42/46/37 37/40/38
f 27/30/19 28/31/18 45/50/39 44/49/40
f 46/51/41 47/52/42 35/38/43 36/39/44
f 37/41/38 42/47/37 43/48/29 38/42/28
f 40/44/45 39/43/46 44/49/40 45/50/39
f 34/37/47 33/36/36 48/53/35 41/45/48
f 22/24/26 21/23/31 36/39/44 35/38/43
f 19/21/23 27/30/19 44/49/40 39/43/46
f 29/32/30 30/33/27 47/52/42 46/51/41
f 28/31/18 20/22/32 40/44/45 45/50/39
f 18/20/24 17/19/34 37/41/38 38/42/28
f 21/23/31 29/32/30 46/51/41 36/39/44
f 20/22/32 19/21/23 39/43/46 40/44/45
f 30/33/27 22/24/26 35/38/43 47/52/42
f 23/25/33 24/26/25 34/37/47 41/45/48
f 25/28/20 26/29/21 43/48/29 42/47/37
f 24/26/25 32/35/1 33/36/36 34/37/47
f 31/34/4 23/25/33 41/45/48 48/53/35
f 14/15/16 16/17/17 56/61/49 55/60/50
f 4/4/6 6/6/5 51/56/51 50/55/52
f 12/12/14 14/15/16 55/60/50 54/59/53
f 8/8/11 10/10/10 53/58/54 52/57/55
f 6/6/5 8/8/11 52/57/55 51/56/51
f 10/10/10 12/12/14 54/59/53 53/58/54
f 2/2/22 4/4/6 50/55/52 49/54/56
f 16/17/17 2/2/22 49/54/56 56/61/49
o Cube.006
v -0.186924 0.367250 0.256215
v -0.106448 0.717191 0.175740
v -0.186924 0.367250 -0.254676
v -0.106448 0.717191 -0.174201
v 0.323968 0.367250 0.256215
v 0.243493 0.717191 0.175740
v 0.323968 0.367250 -0.254676
v 0.243493 0.717191 -0.174201
vn -0.9746 0.2241 -0.0000
vn -0.0000 0.2241 -0.9746
vn 0.9746 0.2241 -0.0000
vn -0.0000 0.2241 0.9746
vt 0.375000 0.000000
vt 0.375000 1.000000
vt 0.625000 0.000000
vt 0.625000 1.000000
vt 0.375000 0.250000
vt 0.625000 0.250000
vt 0.375000 0.750000
vt 0.625000 0.750000
vt 0.375000 0.500000
vt 0.625000 0.500000
s 0
f 57/62/57 58/64/57 60/67/57 59/66/57
f 59/66/58 60/67/58 64/71/58 63/70/58
f 63/70/59 64/71/59 62/69/59 61/68/59
f 61/68/60 62/69/60 58/65/60 57/63/60
