# Blender 3.3.0
# www.blender.org
mtllib monitorScreen.mtl
o Cube
v -1.000000 -0.501418 -0.071832
v -1.000000 0.501418 -0.071832
v -1.000000 -0.501418 -0.106158
v -1.000000 0.501418 -0.106158
v 1.000000 -0.501418 -0.071832
v 1.000000 0.501418 -0.071832
v 1.000000 -0.501418 -0.106158
v 1.000000 0.501418 -0.106158
v -0.004739 -0.501418 -0.017163
v -0.004739 0.501418 -0.017163
v -0.004739 -0.501418 0.017163
v -0.004739 0.501418 0.017163
v 0.497630 0.501418 -0.043368
v 0.497630 -0.501418 -0.009043
v 0.497630 -0.501418 -0.043368
v 0.497630 0.501418 -0.009043
v -0.502370 -0.501418 -0.043368
v -0.502370 0.501418 -0.009043
v -0.502370 0.501418 -0.043368
v -0.502370 -0.501418 -0.009043
v -1.000000 0.484951 -0.071832
v -1.000000 0.484951 -0.106158
v 1.000000 0.484951 -0.106158
v 1.000000 0.484951 -0.071832
v -0.004739 0.484951 0.017163
v -0.004739 0.484951 -0.017163
v 0.497630 0.484951 -0.009043
v 0.497630 0.484951 -0.043368
v -0.502370 0.484951 -0.043368
v -0.502370 0.484951 -0.009043
v -1.000000 -0.483124 -0.106158
v 1.000000 -0.483124 -0.106158
v 1.000000 -0.483124 -0.071832
v -0.004739 -0.483124 0.017163
v -0.004739 -0.483124 -0.017163
v 0.497630 -0.483124 -0.009043
v 0.497630 -0.483124 -0.043368
v -0.502370 -0.483124 -0.043368
v -0.502370 -0.483124 -0.009043
v -1.000000 -0.483124 -0.071832
v -0.984337 -0.501418 -0.104182
v -0.984337 0.501418 -0.069856
v -0.984337 0.501418 -0.104182
v -0.984337 -0.501418 -0.069856
v -0.984337 0.484951 -0.104182
v -0.984337 0.484951 -0.069856
v -0.984337 -0.483124 -0.069856
v -0.984337 -0.483124 -0.104182
v 0.983633 0.501418 -0.104112
v 0.983633 -0.501418 -0.069787
v 0.983633 -0.501418 -0.104112
v 0.983633 0.501418 -0.069787
v 0.983633 0.484951 -0.069787
v 0.983633 0.484951 -0.104112
v 0.983633 -0.483124 -0.104112
v 0.983633 -0.483124 -0.069787
v -0.984337 0.484951 -0.080796
v -0.502370 0.484951 -0.019982
v -0.004739 0.484951 0.006223
v 0.497630 0.484951 -0.019982
v -0.004739 -0.483124 0.006223
v 0.497630 -0.483124 -0.019982
v -0.502370 -0.483124 -0.019982
v -0.984337 -0.483124 -0.080796
v 0.983633 0.484951 -0.080726
v 0.983633 -0.483124 -0.080726
vn -1.0000 -0.0000 -0.0000
vn -0.1240 -0.0000 -0.9923
vn 1.0000 -0.0000 -0.0000
vn -0.1252 -0.0000 0.9921
vn -0.0000 -1.0000 -0.0000
vn -0.0000 1.0000 -0.0000
vn 0.0521 -0.0000 0.9986
vn 0.0526 -0.0000 -0.9986
vn 0.1240 -0.0000 0.9923
vn -0.0521 -0.0000 -0.9986
vn 0.1252 -0.0000 -0.9921
vn -0.0526 -0.0000 0.9986
vt 0.375000 0.000000
vt 0.375000 1.000000
vt 0.125000 0.750000
vt 0.625000 0.000000
vt 0.625000 1.000000
vt 0.875000 0.750000
vt 0.375000 0.250000
vt 0.125000 0.500000
vt 0.875000 0.500000
vt 0.625000 0.250000
vt 0.375000 0.750000
vt 0.625000 0.750000
vt 0.375000 0.500000
vt 0.625000 0.500000
vt 0.249408 0.500000
vt 0.375000 0.374408
vt 0.625000 0.374408
vt 0.750592 0.500000
vt 0.249408 0.750000
vt 0.375000 0.875592
vt 0.750592 0.750000
vt 0.625000 0.875592
vt 0.687796 0.500000
vt 0.625000 0.437204
vt 0.375000 0.812796
vt 0.312204 0.750000
vt 0.375000 0.437204
vt 0.312204 0.500000
vt 0.625000 0.812796
vt 0.687796 0.750000
vt 0.187204 0.500000
vt 0.375000 0.312204
vt 0.812796 0.750000
vt 0.625000 0.937796
vt 0.625000 0.312204
vt 0.812796 0.500000
vt 0.187204 0.750000
vt 0.375000 0.937796
vt 0.620895 1.000000
vt 0.620895 0.000000
vt 0.620895 0.250000
vt 0.620895 0.500000
vt 0.620895 0.750000
vt 0.620895 0.875592
vt 0.620895 0.374408
vt 0.620895 0.812796
vt 0.620895 0.437204
vt 0.620895 0.312204
vt 0.620895 0.937796
vt 0.379561 0.250000
vt 0.379561 0.500000
vt 0.379561 0.750000
vt 0.379561 0.875592
vt 0.379561 0.374408
vt 0.379561 0.812796
vt 0.379561 0.437204
vt 0.379561 0.312204
vt 0.379561 0.937796
vt 0.379561 0.000000
vt 0.379561 1.000000
vt 0.375000 0.251958
vt 0.126958 0.500000
vt 0.873042 0.750000
vt 0.625000 0.998042
vt 0.625000 0.251958
vt 0.873042 0.500000
vt 0.375000 0.998042
vt 0.126958 0.750000
vt 0.620895 0.251958
vt 0.620895 0.998042
vt 0.379561 0.998042
vt 0.379561 0.251958
vt 0.627046 0.500000
vt 0.625000 0.497954
vt 0.375000 0.752046
vt 0.372954 0.750000
vt 0.375000 0.497954
vt 0.372954 0.500000
vt 0.627046 0.750000
vt 0.625000 0.752046
vt 0.620895 0.752046
vt 0.620895 0.497954
vt 0.379561 0.497954
vt 0.379561 0.752046
vt 0.620895 0.251958
vt 0.620895 0.312204
vt 0.620895 0.374408
vt 0.620895 0.437204
vt 0.379561 0.374408
vt 0.379561 0.437204
vt 0.379561 0.312204
vt 0.379561 0.251958
vt 0.620895 0.497954
vt 0.379561 0.497954
s 0
f 21/40/1 2/4/1 4/10/1 22/41/1
f 54/82/2 49/74/2 8/14/2 23/42/2
f 23/42/3 8/14/3 6/12/3 24/43/3
f 46/70/4 42/64/4 2/5/4 21/39/4
f 51/78/5 7/13/5 5/11/5 50/76/5
f 43/66/6 4/9/6 2/6/6 42/63/6
f 13/23/6 10/18/6 12/21/6 16/30/6
f 17/31/5 9/15/5 11/19/5 20/37/5
f 27/46/7 16/29/7 12/22/7 25/44/7
f 29/48/8 19/35/8 10/17/8 26/45/8
f 53/81/9 52/80/9 16/29/9 27/46/9
f 49/73/6 13/23/6 16/30/6 52/79/6
f 9/15/5 15/28/5 14/26/5 11/19/5
f 26/45/10 10/17/10 13/24/10 28/47/10
f 45/69/11 43/65/11 19/35/11 29/48/11
f 41/62/5 17/31/5 20/37/5 44/68/5
f 10/18/6 19/36/6 18/33/6 12/21/6
f 25/44/12 12/22/12 18/34/12 30/49/12
f 34/53/12 25/44/12 30/49/12 39/58/12
f 28/47/5 54/82/5 65/93/5 60/88/5
f 37/56/6 35/54/6 61/89/6 62/90/6
f 56/84/9 53/81/9 27/46/9 36/55/9
f 26/45/5 28/47/5 60/88/5 59/87/5
f 36/55/7 27/46/7 25/44/7 34/53/7
f 47/71/4 46/70/4 21/39/4 40/60/4
f 32/51/3 23/42/3 24/43/3 33/52/3
f 55/83/2 54/82/2 23/42/2 32/51/2
f 40/59/1 21/40/1 22/41/1 31/50/1
f 1/1/1 40/59/1 31/50/1 3/7/1
f 51/77/2 55/83/2 32/51/2 7/13/2
f 7/13/3 32/51/3 33/52/3 5/11/3
f 44/67/4 47/71/4 40/60/4 1/2/4
f 14/25/7 36/55/7 34/53/7 11/20/7
f 17/32/8 38/57/8 35/54/8 9/16/8
f 50/75/9 56/84/9 36/55/9 14/25/9
f 9/16/10 35/54/10 37/56/10 15/27/10
f 41/61/11 48/72/11 38/57/11 17/32/11
f 11/20/12 34/53/12 39/58/12 20/38/12
f 3/7/11 31/50/11 48/72/11 41/61/11
f 20/38/4 39/58/4 47/71/4 44/67/4
f 39/58/4 30/49/4 46/70/4 47/71/4
f 31/50/11 22/41/11 45/69/11 48/72/11
f 3/8/5 41/62/5 44/68/5 1/3/5
f 22/41/11 4/10/11 43/65/11 45/69/11
f 19/36/6 43/66/6 42/63/6 18/33/6
f 30/49/4 18/34/4 42/64/4 46/70/4
f 5/11/9 33/52/9 56/84/9 50/75/9
f 15/27/2 37/56/2 55/83/2 51/77/2
f 54/82/1 55/83/1 66/94/1 65/93/1
f 33/52/9 24/43/9 53/81/9 56/84/9
f 8/14/6 49/73/6 52/79/6 6/12/6
f 24/43/9 6/12/9 52/80/9 53/81/9
f 15/28/5 51/78/5 50/76/5 14/26/5
f 28/47/2 13/24/2 49/74/2 54/82/2
f 64/92/11 57/85/11 58/86/11 63/91/11
f 61/89/10 59/87/10 60/88/10 62/90/10
f 63/91/8 58/86/8 59/87/8 61/89/8
f 62/90/2 60/88/2 65/93/2 66/94/2
f 48/72/3 45/69/3 57/85/3 64/92/3
f 29/48/5 26/45/5 59/87/5 58/86/5
f 38/57/6 48/72/6 64/92/6 63/91/6
f 45/69/5 29/48/5 58/86/5 57/85/5
f 55/83/6 37/56/6 62/90/6 66/94/6
f 35/54/6 38/57/6 63/91/6 61/89/6
