# Blender 3.3.0
# www.blender.org
mtllib monitorStand.mtl
o Cube.002
v -0.081978 -0.779710 0.103085
v -0.081978 -0.134586 0.103085
v -0.081978 -0.779710 0.007437
v -0.081978 -0.075823 0.007437
v 0.074012 -0.779710 0.103085
v 0.074012 -0.134586 0.103085
v 0.074012 -0.779710 0.007437
v 0.074012 -0.075823 0.007437
v -0.003983 -0.779710 0.012389
v -0.003983 -0.075823 0.012389
v -0.003983 -0.779710 0.121112
v -0.003983 -0.134586 0.121112
v -0.081978 -0.235576 0.103085
v -0.081978 -0.235576 0.007437
v 0.074012 -0.235576 0.007437
v 0.074012 -0.235576 0.103085
v -0.003983 -0.235576 0.121112
v -0.003983 -0.235576 0.012389
v -0.081978 -0.706666 0.007437
v 0.074012 -0.706666 0.007437
v 0.074012 -0.706666 0.103085
v -0.003983 -0.706666 0.121112
v -0.003983 -0.706666 0.012389
v -0.081978 -0.706666 0.103085
v -0.309601 -0.781553 0.023569
v -0.309601 -0.781553 0.082530
v -0.309601 -0.730955 0.023569
v -0.003983 -0.781553 -0.014576
v 0.301635 -0.730955 0.023569
v 0.301635 -0.781553 0.023569
v 0.301635 -0.781553 0.082530
v 0.301635 -0.730955 0.082530
v -0.003983 -0.781553 0.184234
v -0.003983 -0.730955 0.184234
v -0.003983 -0.730955 -0.014576
v -0.309601 -0.730955 0.082530
vn -0.7460 0.1951 0.6367
vn -0.6843 -0.0000 -0.7292
vn -0.7827 -0.0000 0.6224
vn -0.0000 0.3778 -0.9259
vn 0.6843 -0.0000 -0.7292
vn -0.0000 -0.0000 -1.0000
vn 0.7460 0.1951 0.6367
vn 0.7827 -0.0000 0.6224
vn -0.0000 0.2356 0.9718
vn -0.0000 -0.0000 1.0000
vn -0.0000 -0.9995 0.0328
vn -0.0068 -0.9999 -0.0156
vn -0.0000 -0.9999 -0.0167
vn 0.6892 0.2537 -0.6787
vn 0.0068 -0.9999 -0.0156
vn 0.0104 -0.9972 0.0736
vn -0.6892 0.2537 -0.6787
vn -0.0000 0.2286 -0.9735
vn -0.4389 0.3533 -0.8261
vn -0.0000 0.3113 0.9503
vn 0.6574 0.4475 0.6063
vn -0.6574 0.4475 0.6063
vn 0.4389 0.3533 -0.8261
vn -0.0000 -0.2627 0.9649
vn 0.7929 0.2262 0.5658
vn 0.7352 0.2196 -0.6413
vn -0.0000 0.2157 -0.9765
vn -0.7352 0.2196 -0.6413
vn -0.0104 -0.9972 0.0736
vn -0.0000 -0.2924 -0.9563
vn 0.7299 -0.2262 -0.6451
vn -0.0000 0.2350 0.9720
vn -0.7929 0.2262 0.5658
vn -0.7299 -0.2262 -0.6451
vn -0.7885 -0.2330 0.5691
vn 0.7885 -0.2330 0.5691
vt 0.125000 0.750000
vt 0.625000 0.000000
vt 0.625000 1.000000
vt 0.875000 0.750000
vt 0.125000 0.500000
vt 0.875000 0.500000
vt 0.625000 0.250000
vt 0.375000 0.750000
vt 0.625000 0.750000
vt 0.375000 0.500000
vt 0.625000 0.500000
vt 0.250000 0.500000
vt 0.750000 0.500000
vt 0.625000 0.375000
vt 0.250000 0.750000
vt 0.750000 0.750000
vt 0.625000 0.875000
vt 0.580436 1.000000
vt 0.580436 0.000000
vt 0.580436 0.250000
vt 0.580436 0.500000
vt 0.580436 0.750000
vt 0.580436 0.875000
vt 0.580436 0.375000
vt 0.449024 0.250000
vt 0.449024 0.500000
vt 0.449024 0.750000
vt 0.449024 0.875000
vt 0.449024 0.375000
vt 0.449024 0.000000
vt 0.449024 1.000000
vt 0.375000 0.250000
vt 0.125000 0.500000
vt 0.375000 0.000000
vt 0.375000 1.000000
vt 0.125000 0.750000
vt 0.449024 0.250000
vt 0.375000 0.375000
vt 0.250000 0.500000
vt 0.449024 0.500000
vt 0.375000 0.500000
vt 0.375000 0.750000
vt 0.449024 0.750000
vt 0.375000 0.875000
vt 0.250000 0.750000
vt 0.449024 0.875000
vt 0.449024 0.375000
vt 0.449024 1.000000
vt 0.449024 0.000000
s 1
f 2/2/1 14/20/2 13/19/3
f 10/14/4 15/21/5 18/24/6
f 15/21/5 6/9/7 16/22/8
f 12/17/9 13/18/3 17/23/10
f 9/12/11 5/8/12 11/15/13
f 10/13/4 2/4/1 12/16/9
f 10/13/4 6/9/7 8/11/14
f 9/12/11 1/1/15 3/5/16
f 6/9/7 17/23/10 16/22/8
f 4/7/17 18/24/6 14/20/2
f 14/20/2 23/29/18 19/25/19
f 16/22/8 22/28/20 21/27/21
f 17/23/10 24/31/22 22/28/20
f 15/21/5 21/27/21 20/26/23
f 18/24/6 20/26/23 23/29/18
f 13/19/3 19/25/19 24/30/22
f 5/8/12 33/45/24 11/15/13
f 20/26/23 32/43/25 29/40/26
f 19/25/19 35/47/27 27/37/28
f 7/10/29 28/39/30 30/41/31
f 20/26/23 35/47/27 23/29/18
f 21/27/21 34/46/32 32/43/25
f 36/49/33 25/32/34 26/34/35
f 35/47/27 30/41/31 28/38/30
f 29/40/26 31/42/36 30/41/31
f 34/46/32 26/35/35 33/44/24
f 32/43/25 33/44/24 31/42/36
f 27/37/28 28/38/30 25/32/34
f 3/5/16 26/36/35 25/33/34
f 24/31/22 34/46/32 22/28/20
f 7/10/29 31/42/36 5/8/12
f 1/1/15 33/45/24 26/36/35
f 19/25/19 36/49/33 24/30/22
f 3/5/16 28/39/30 9/12/11
f 2/2/1 4/7/17 14/20/2
f 10/14/4 8/11/14 15/21/5
f 15/21/5 8/11/14 6/9/7
f 12/17/9 2/3/1 13/18/3
f 9/12/11 7/10/29 5/8/12
f 10/13/4 4/6/17 2/4/1
f 10/13/4 12/16/9 6/9/7
f 9/12/11 11/15/13 1/1/15
f 6/9/7 12/17/9 17/23/10
f 4/7/17 10/14/4 18/24/6
f 14/20/2 18/24/6 23/29/18
f 16/22/8 17/23/10 22/28/20
f 17/23/10 13/18/3 24/31/22
f 15/21/5 16/22/8 21/27/21
f 18/24/6 15/21/5 20/26/23
f 13/19/3 14/20/2 19/25/19
f 5/8/12 31/42/36 33/45/24
f 20/26/23 21/27/21 32/43/25
f 19/25/19 23/29/18 35/47/27
f 7/10/29 9/12/11 28/39/30
f 20/26/23 29/40/26 35/47/27
f 21/27/21 22/28/20 34/46/32
f 36/49/33 27/37/28 25/32/34
f 35/47/27 29/40/26 30/41/31
f 29/40/26 32/43/25 31/42/36
f 34/46/32 36/48/33 26/35/35
f 32/43/25 34/46/32 33/44/24
f 27/37/28 35/47/27 28/38/30
f 3/5/16 1/1/15 26/36/35
f 24/31/22 36/48/33 34/46/32
f 7/10/29 30/41/31 31/42/36
f 1/1/15 11/15/13 33/45/24
f 19/25/19 27/37/28 36/49/33
f 3/5/16 25/33/34 28/39/30
