# Blender 3.3.0
# www.blender.org
mtllib monitorImage.mtl
o Cube.028
v -0.984337 0.484951 -0.080796
v -0.502370 0.484951 -0.019982
v -0.004739 0.484951 0.006223
v 0.497630 0.484951 -0.019982
v -0.004739 -0.483124 0.006223
v 0.497630 -0.483124 -0.019982
v -0.502370 -0.483124 -0.019982
v -0.984337 -0.483124 -0.080796
v 0.983633 0.484951 -0.080726
v 0.983633 -0.483124 -0.080726
vn 0.1252 -0.0000 -0.9921
vn -0.0521 -0.0000 -0.9986
vn 0.0526 -0.0000 -0.9986
vn -0.1240 -0.0000 -0.9923
vt 0.620895 0.251958
vt 0.620895 0.312204
vt 0.620895 0.374408
vt 0.620895 0.437204
vt 0.379561 0.374408
vt 0.379561 0.437204
vt 0.379561 0.312204
vt 0.379561 0.251958
vt 0.620895 0.497954
vt 0.379561 0.497954
s 0
f 8/8/1 1/1/1 2/2/1 7/7/1
f 5/5/2 3/3/2 4/4/2 6/6/2
f 7/7/3 2/2/3 3/3/3 5/5/3
f 6/6/4 4/4/4 9/9/4 10/10/4
