# Blender 3.3.0
# www.blender.org
mtllib mouse.mtl
o Cube.005
v -0.054495 -0.025545 -0.000367
v -0.054495 0.025545 -0.000367
v -0.054495 -0.025545 -0.066012
v -0.054495 0.025545 -0.066012
v 0.054495 -0.025545 -0.000367
v 0.054495 0.025545 -0.000367
v 0.054495 -0.025545 -0.066012
v 0.054495 0.025545 -0.066012
v -0.034949 0.015576 -0.126033
v -0.034949 -0.026035 -0.126033
v 0.034949 -0.026035 -0.126033
v 0.034949 0.015576 -0.126033
v -0.022209 0.000076 -0.144337
v -0.022209 -0.026367 -0.144337
v 0.022209 -0.026367 -0.144337
v 0.022209 0.000076 -0.144337
v -0.054495 0.017923 -0.000367
v -0.054495 0.017923 -0.066012
v 0.054495 0.017923 -0.066012
v 0.054495 0.017923 -0.000367
v -0.034949 0.009368 -0.126033
v 0.034949 0.009368 -0.126033
v -0.022209 -0.003869 -0.144337
v 0.022209 -0.003869 -0.144337
v -0.004598 -0.025545 -0.066012
v -0.004598 0.025545 -0.066012
v -0.004598 -0.025545 -0.000367
v -0.004598 0.025545 -0.000367
v -0.002949 -0.026035 -0.126033
v -0.002949 0.015576 -0.126033
v -0.001874 -0.026367 -0.144337
v -0.001874 0.000076 -0.144337
v -0.001874 -0.003869 -0.144337
v -0.004598 0.017923 -0.000367
v 0.003602 0.025545 -0.066012
v 0.003602 -0.025545 -0.000367
v 0.002310 0.015576 -0.126033
v 0.001468 0.000076 -0.144337
v 0.001468 -0.003869 -0.144337
v 0.003602 -0.025545 -0.066012
v 0.003602 0.025545 -0.000367
v 0.002310 -0.026035 -0.126033
v 0.001468 -0.026367 -0.144337
v 0.003602 0.017923 -0.000367
v -0.049172 -0.002054 0.068566
v -0.049172 0.001990 0.068566
v 0.049114 -0.002054 0.068566
v 0.049114 -0.025121 0.068566
v 0.003219 -0.025121 0.068566
v -0.004176 0.001990 0.068566
v -0.049172 -0.025121 0.068566
v 0.049114 0.001990 0.068566
v -0.004176 -0.002054 0.068566
v -0.004176 -0.025121 0.068566
v 0.003219 -0.002054 0.068566
v 0.003219 0.001990 0.068566
v 0.051804 0.013767 0.034100
v -0.004387 -0.025333 0.034100
v 0.003410 -0.025333 0.034100
v 0.051804 -0.025333 0.034100
v 0.051804 0.007934 0.034100
v -0.004387 0.013767 0.034100
v -0.004387 0.007934 0.034100
v -0.051834 0.013767 0.034100
v -0.051834 -0.025333 0.034100
v -0.051834 0.007934 0.034100
v 0.003410 0.013767 0.034100
v 0.003410 0.007934 0.034100
v 0.050432 0.007759 0.051685
v 0.050432 -0.025225 0.051685
v -0.004280 0.007759 0.051685
v -0.050476 0.007759 0.051685
v -0.050476 -0.025225 0.051685
v 0.003313 0.007759 0.051685
v -0.004280 -0.025225 0.051685
v 0.003313 -0.025225 0.051685
v 0.050432 0.002838 0.051685
v -0.004280 0.002838 0.051685
v -0.050476 0.002838 0.051685
v 0.003313 0.002838 0.051685
v -0.004279 0.013677 0.051636
v -0.004385 0.016773 0.040951
v 0.003313 0.013677 0.051635
v 0.003413 0.016773 0.040950
v -0.054495 -0.025545 -0.026852
v -0.054495 0.025545 -0.026852
v 0.054495 -0.025545 -0.026852
v 0.054495 0.025545 -0.026852
v 0.054495 0.017923 -0.026852
v -0.054495 0.017923 -0.026852
v -0.004598 0.025545 -0.026852
v -0.004598 -0.025545 -0.026852
v 0.003602 0.025545 -0.026852
v 0.003602 -0.025545 -0.026852
v -0.054495 0.011165 -0.066012
v 0.054495 0.011165 -0.066012
v 0.054495 0.011165 -0.000367
v -0.034949 0.003864 -0.126033
v 0.034949 0.003864 -0.126033
v -0.022209 -0.007366 -0.144337
v 0.022209 -0.007366 -0.144337
v -0.054495 0.011165 -0.000367
v -0.001874 -0.007366 -0.144337
v 0.001468 -0.007366 -0.144337
v 0.049114 -0.005640 0.068566
v -0.049172 -0.005640 0.068566
v -0.004176 -0.005640 0.068566
v 0.003219 -0.005640 0.068566
v 0.051804 0.002763 0.034100
v -0.051834 0.002763 0.034100
v 0.050432 -0.001525 0.051685
v -0.050476 -0.001525 0.051685
v -0.054495 0.011165 -0.026852
v 0.054495 0.011165 -0.026852
v -0.054495 0.025545 -0.051560
v 0.054495 -0.025545 -0.051560
v -0.054495 0.017923 -0.051560
v -0.054495 -0.025545 -0.051560
v 0.054495 0.025545 -0.051560
v 0.054495 0.017923 -0.051560
v -0.004598 0.025545 -0.051560
v -0.004598 -0.025545 -0.051560
v 0.003602 0.025545 -0.051560
v 0.003602 -0.025545 -0.051560
v 0.054495 0.011165 -0.051560
v -0.054495 0.011165 -0.051560
v 0.058574 0.017923 -0.025425
v 0.058574 0.017923 -0.001794
v 0.058574 0.011165 -0.001794
v 0.058574 0.011165 -0.025425
v 0.057806 0.017923 -0.050480
v 0.057806 0.017923 -0.027932
v 0.057806 0.011165 -0.027932
v 0.057806 0.011165 -0.050480
vn -1.0000 -0.0000 -0.0000
vn -0.0000 0.9865 -0.1638
vn 1.0000 -0.0000 -0.0000
vn -0.0000 0.9463 0.3233
vn -0.0000 -1.0000 -0.0000
vn -0.0000 1.0000 -0.0000
vn -0.0000 0.7631 -0.6463
vn -0.9509 -0.0000 -0.3096
vn 0.9509 -0.0000 -0.3096
vn -0.0000 -1.0000 0.0082
vn -0.0000 -0.0000 -1.0000
vn -0.8207 -0.0000 -0.5713
vn 0.8207 -0.0000 -0.5713
vn -0.0000 -0.9998 0.0181
vn 1.0000 -0.0000 -0.0061
vn 0.9970 -0.0000 0.0778
vn -0.0000 -0.0000 1.0000
vn -0.0000 -1.0000 0.0061
vn -0.9970 -0.0000 0.0770
vn -0.0000 0.9605 0.2784
vn -1.0000 -0.0000 -0.0056
vn 0.0001 0.0045 1.0000
vn -0.0000 0.6126 -0.7904
vn -1.0000 -0.0023 0.0069
vn 1.0000 -0.0023 0.0063
vn 0.3100 -0.0000 0.9507
vn 0.3303 -0.0000 -0.9439
vn 0.3303 -0.0000 0.9439
vn 0.3100 -0.0000 -0.9507
vt 0.125000 0.750000
vt 0.375000 0.000000
vt 0.875000 0.750000
vt 0.625000 0.000000
vt 0.375000 0.250000
vt 0.125000 0.500000
vt 0.625000 0.250000
vt 0.875000 0.500000
vt 0.375000 0.750000
vt 0.625000 0.750000
vt 0.375000 0.500000
vt 0.625000 0.500000
vt 0.625000 0.250000
vt 0.875000 0.500000
vt 0.125000 0.500000
vt 0.375000 0.250000
vt 0.375000 0.500000
vt 0.625000 0.500000
vt 0.625000 0.250000
vt 0.875000 0.500000
vt 0.125000 0.500000
vt 0.375000 0.250000
vt 0.375000 0.500000
vt 0.625000 0.500000
vt 0.587705 0.000000
vt 0.587705 0.250000
vt 0.587705 0.500000
vt 0.587705 0.750000
vt 0.587705 0.250000
vt 0.587705 0.500000
vt 0.587705 0.250000
vt 0.587705 0.500000
vt 0.239452 0.500000
vt 0.760548 0.500000
vt 0.239452 0.750000
vt 0.625000 0.885548
vt 0.760548 0.750000
vt 0.239452 0.500000
vt 0.760548 0.500000
vt 0.239452 0.500000
vt 0.375000 0.364452
vt 0.625000 0.364452
vt 0.760548 0.500000
vt 0.587705 0.364452
vt 0.587705 0.885548
vt 0.741738 0.500000
vt 0.258262 0.750000
vt 0.741738 0.500000
vt 0.625000 0.383262
vt 0.741738 0.500000
vt 0.587705 0.383262
vt 0.258262 0.500000
vt 0.625000 0.866738
vt 0.741738 0.750000
vt 0.258262 0.500000
vt 0.258262 0.500000
vt 0.375000 0.383262
vt 0.587705 0.866738
vt 0.587705 1.000000
vt 0.587705 0.000000
vt 0.875000 0.750000
vt 0.625000 1.000000
vt 0.625000 0.000000
vt 0.587705 0.750000
vt 0.375000 0.750000
vt 0.258262 0.750000
vt 0.375000 0.866738
vt 0.760548 0.750000
vt 0.625000 0.885548
vt 0.375000 0.000000
vt 0.125000 0.750000
vt 0.375000 1.000000
vt 0.625000 0.750000
vt 0.587705 0.885548
vt 0.239452 0.750000
vt 0.375000 0.885548
vt 0.587705 0.866738
vt 0.741738 0.750000
vt 0.625000 0.866738
vt 0.625000 0.750000
vt 0.239452 0.750000
vt 0.258262 0.750000
vt 0.375000 0.750000
vt 0.587705 0.750000
vt 0.625000 0.885548
vt 0.760548 0.750000
vt 0.587705 0.885548
vt 0.625000 0.000000
vt 0.875000 0.750000
vt 0.125000 0.750000
vt 0.375000 0.000000
vt 0.587705 0.000000
vt 0.625000 0.866738
vt 0.741738 0.750000
vt 0.587705 0.866738
vt 0.625000 0.750000
vt 0.375000 0.750000
vt 0.625000 0.885548
vt 0.760548 0.750000
vt 0.625000 0.000000
vt 0.875000 0.750000
vt 0.125000 0.750000
vt 0.375000 0.000000
vt 0.625000 0.866738
vt 0.741738 0.750000
vt 0.239452 0.750000
vt 0.258262 0.750000
vt 0.587705 0.750000
vt 0.587705 0.885548
vt 0.587705 0.000000
vt 0.587705 0.866738
vt 0.587705 0.885548
vt 0.587705 0.885548
vt 0.587705 0.866738
vt 0.587705 0.866738
vt 0.125000 0.649134
vt 0.375000 0.100866
vt 0.875000 0.649134
vt 0.625000 0.100866
vt 0.375000 0.649134
vt 0.625000 0.649134
vt 0.587705 0.649134
vt 0.587705 0.100866
vt 0.760548 0.649134
vt 0.239452 0.649134
vt 0.741738 0.649134
vt 0.258262 0.649134
vt 0.554637 0.250000
vt 0.554637 0.500000
vt 0.554637 0.750000
vt 0.554637 0.250000
vt 0.554637 0.500000
vt 0.554637 0.250000
vt 0.554637 0.500000
vt 0.554637 0.000000
vt 0.554637 0.364452
vt 0.554637 0.383262
vt 0.554637 0.750000
vt 0.554637 0.000000
vt 0.554637 1.000000
vt 0.554637 0.885548
vt 0.554637 0.866738
vt 0.554637 0.750000
vt 0.554637 0.000000
vt 0.554637 0.750000
vt 0.554637 0.000000
vt 0.554637 0.100866
vt 0.554637 0.649134
vt 0.875000 0.555037
vt 0.625000 0.194963
vt 0.375000 0.555037
vt 0.587705 0.194963
vt 0.375000 0.194963
vt 0.125000 0.555037
vt 0.625000 0.555037
vt 0.587705 0.555037
vt 0.760548 0.555037
vt 0.239452 0.555037
vt 0.741738 0.555037
vt 0.258262 0.555037
vt 0.554637 0.555037
vt 0.554637 0.194963
vt 0.587705 0.649134
vt 0.587705 0.750000
vt 0.554637 0.750000
vt 0.554637 0.649134
vt 0.587705 0.555037
vt 0.587705 0.649134
vt 0.554637 0.649134
vt 0.554637 0.555037
s 0
f 117/152/1 115/150/1 4/7/1 18/26/1
f 35/46/2 8/12/2 12/18/2 37/48/2
f 89/122/3 88/121/3 6/10/3 20/28/3
f 71/99/4 72/101/4 46/61/4 50/68/4
f 94/127/5 87/120/5 5/9/5 36/47/5
f 91/124/6 86/118/6 2/3/6 28/37/6
f 37/48/7 12/18/7 16/24/7 38/50/7
f 18/26/8 4/7/8 9/13/8 21/29/8
f 96/129/9 7/11/9 11/17/9 99/132/9
f 25/33/10 3/6/10 10/15/10 29/38/10
f 39/51/11 38/49/11 16/24/11 24/32/11
f 21/29/12 9/13/12 13/19/12 23/31/12
f 99/132/13 11/17/13 15/23/13 101/134/13
f 29/38/14 10/15/14 14/21/14 31/40/14
f 12/18/13 22/30/13 24/32/13 16/24/13
f 98/131/12 21/29/12 23/31/12 100/133/12
f 104/137/11 39/51/11 24/32/11 101/134/11
f 8/12/9 19/27/9 22/30/9 12/18/9
f 95/128/8 18/26/8 21/29/8 98/131/8
f 78/109/15 71/98/15 50/69/15 53/74/15
f 89/122/6 20/28/6 128/164/6 127/163/6
f 126/162/1 117/152/1 18/26/1 95/128/1
f 77/108/16 69/96/16 52/73/16 47/64/16
f 100/133/11 23/31/11 33/44/11 103/136/11
f 42/55/14 29/38/14 31/40/14 43/56/14
f 23/31/11 13/19/11 32/42/11 33/44/11
f 40/52/10 25/33/10 29/38/10 42/55/10
f 9/14/7 30/39/7 32/43/7 13/20/7
f 93/126/6 91/124/6 28/37/6 41/54/6
f 85/116/5 92/125/5 27/35/5 1/1/5
f 44/58/17 41/53/17 28/36/17 34/45/17
f 4/8/2 26/34/2 30/39/2 9/14/2
f 75/106/18 76/107/18 49/66/18 54/75/18
f 88/121/6 93/126/6 41/54/6 6/10/6
f 7/11/10 40/52/10 42/55/10 11/17/10
f 11/17/14 42/55/14 43/56/14 15/23/14
f 76/107/18 70/97/18 48/65/18 49/66/18
f 103/136/11 33/44/11 39/51/11 104/137/11
f 33/44/11 32/42/11 38/49/11 39/51/11
f 30/39/7 37/48/7 38/50/7 32/43/7
f 92/125/5 94/127/5 36/47/5 27/35/5
f 26/34/2 35/46/2 37/48/2 30/39/2
f 53/74/17 50/69/17 46/62/17 45/59/17
f 107/141/17 53/74/17 45/59/17 106/140/17
f 108/142/17 55/77/17 53/74/17 107/141/17
f 47/64/17 52/73/17 56/79/17 55/77/17
f 105/138/17 47/64/17 55/77/17 108/142/17
f 112/146/19 73/103/19 51/70/19 106/139/19
f 72/100/19 79/110/19 45/60/19 46/63/19
f 73/102/18 75/106/18 54/75/18 51/71/18
f 69/96/4 74/105/4 56/78/4 52/73/4
f 80/111/20 78/109/20 53/74/20 55/77/20
f 111/145/16 77/108/16 47/64/16 105/138/16
f 74/104/21 80/111/21 55/77/21 56/79/21
f 41/53/21 44/58/21 68/95/21 67/93/21
f 97/130/16 20/28/16 61/84/16 109/143/16
f 44/58/20 34/45/20 63/87/20 68/95/20
f 6/10/4 41/54/4 67/94/4 57/80/4
f 1/1/18 27/35/18 58/81/18 65/90/18
f 2/4/19 17/25/19 66/92/19 64/88/19
f 102/135/19 1/2/19 65/91/19 110/144/19
f 36/47/18 5/9/18 60/83/18 59/82/18
f 27/35/18 36/47/18 59/82/18 58/81/18
f 20/28/16 6/10/16 57/80/16 61/84/16
f 34/45/15 28/36/15 62/85/15 63/87/15
f 28/37/4 2/3/4 64/89/4 62/86/4
f 67/93/21 68/95/21 80/111/21 74/104/21
f 109/143/16 61/84/16 77/108/16 111/145/16
f 78/109/22 80/111/22 83/114/22 81/112/22
f 57/80/4 67/94/4 74/105/4 69/96/4
f 65/90/18 58/81/18 75/106/18 73/102/18
f 64/88/19 66/92/19 79/110/19 72/100/19
f 110/144/19 65/91/19 73/103/19 112/146/19
f 59/82/18 60/83/18 70/97/18 76/107/18
f 58/81/18 59/82/18 76/107/18 75/106/18
f 61/84/16 57/80/16 69/96/16 77/108/16
f 63/87/15 62/85/15 71/98/15 78/109/15
f 62/86/4 64/89/4 72/101/4 71/99/4
f 84/115/20 82/113/20 81/112/20 83/114/20
f 68/95/23 63/87/23 82/113/23 84/115/23
f 63/87/24 78/109/24 81/112/24 82/113/24
f 80/111/25 68/95/25 84/115/25 83/114/25
f 122/158/5 124/160/5 94/127/5 92/125/5
f 119/155/6 123/159/6 93/126/6 88/121/6
f 118/154/5 122/158/5 92/125/5 85/116/5
f 123/159/6 121/157/6 91/124/6 93/126/6
f 102/135/1 17/25/1 90/123/1 113/147/1
f 89/122/26 114/148/26 133/169/26 132/168/26
f 121/157/6 115/149/6 86/118/6 91/124/6
f 124/160/5 116/151/5 87/120/5 94/127/5
f 120/156/3 119/155/3 88/121/3 89/122/3
f 17/25/1 2/4/1 86/119/1 90/123/1
f 116/151/3 125/161/3 114/148/3 87/120/3
f 1/2/1 102/135/1 113/147/1 85/117/1
f 66/92/19 110/144/19 112/146/19 79/110/19
f 60/83/16 109/143/16 111/145/16 70/97/16
f 17/25/19 102/135/19 110/144/19 66/92/19
f 5/9/16 97/130/16 109/143/16 60/83/16
f 70/97/16 111/145/16 105/138/16 48/65/16
f 79/110/19 112/146/19 106/139/19 45/60/19
f 48/65/17 105/138/17 108/142/17 49/67/17
f 49/67/17 108/142/17 107/141/17 54/76/17
f 54/76/17 107/141/17 106/140/17 51/72/17
f 31/41/11 103/136/11 104/137/11 43/57/11
f 14/22/11 100/133/11 103/136/11 31/41/11
f 118/153/1 126/162/1 95/128/1 3/5/1
f 87/120/3 114/148/3 97/130/3 5/9/3
f 3/5/8 95/128/8 98/131/8 10/16/8
f 43/57/11 104/137/11 101/134/11 15/23/11
f 10/16/12 98/131/12 100/133/12 14/22/12
f 22/30/13 99/132/13 101/134/13 24/32/13
f 19/27/9 96/129/9 99/132/9 22/30/9
f 85/117/1 113/147/1 126/162/1 118/153/1
f 7/11/3 96/129/3 125/161/3 116/151/3
f 19/27/3 8/12/3 119/155/3 120/156/3
f 40/52/5 7/11/5 116/151/5 124/160/5
f 26/34/6 4/8/6 115/149/6 121/157/6
f 96/129/3 19/27/3 120/156/3 125/161/3
f 35/46/6 26/34/6 121/157/6 123/159/6
f 3/6/5 25/33/5 122/158/5 118/154/5
f 8/12/6 35/46/6 123/159/6 119/155/6
f 25/33/5 40/52/5 124/160/5 122/158/5
f 113/147/1 90/123/1 117/152/1 126/162/1
f 90/123/1 86/119/1 115/150/1 117/152/1
f 130/166/3 127/163/3 128/164/3 129/165/3
f 97/130/5 114/148/5 130/166/5 129/165/5
f 114/148/27 89/122/27 127/163/27 130/166/27
f 20/28/28 97/130/28 129/165/28 128/164/28
f 134/170/3 131/167/3 132/168/3 133/169/3
f 120/156/6 89/122/6 132/168/6 131/167/6
f 125/161/29 120/156/29 131/167/29 134/170/29
f 114/148/5 125/161/5 134/170/5 133/169/5
