# Blender 3.3.0
# www.blender.org
mtllib router.mtl
o Cube.027
v -0.265379 -0.032867 0.023205
v -0.266475 0.293892 0.023205
v -0.265379 -0.032867 -0.031621
v -0.266475 0.293892 -0.031621
v 0.216242 -0.031266 0.023205
v 0.216529 0.293117 0.023205
v 0.216242 -0.031266 -0.031621
v 0.216529 0.293117 -0.031621
v 0.197712 -0.036998 -0.031621
v 0.197712 0.298985 -0.031621
v 0.197712 -0.036998 0.023205
v 0.197712 0.298985 0.023205
v -0.243117 -0.036998 -0.031621
v -0.243117 0.298985 0.023205
v -0.243117 0.298985 -0.031621
v -0.243117 -0.036998 0.023205
v -0.271147 0.273140 0.023205
v -0.271147 0.273140 -0.031621
v 0.223193 0.273140 -0.031621
v 0.223193 0.273140 0.023205
v -0.249314 -0.022107 0.034729
v -0.161341 0.287963 0.034729
v -0.271147 -0.010912 -0.031621
v 0.223193 -0.010912 -0.031621
v 0.223193 -0.010912 0.023205
v 0.183381 -0.001593 0.034729
v 0.183381 0.287963 0.034729
v -0.271147 -0.010912 0.023205
v 0.131102 0.298985 -0.031621
v 0.131102 -0.036998 0.023205
v 0.131102 -0.036998 -0.031621
v 0.131102 0.298985 0.023205
v 0.200963 0.282480 0.034729
v 0.121143 -0.025967 0.034729
v 0.097145 -0.036998 -0.031621
v 0.097145 0.298985 0.023205
v 0.097145 0.298985 -0.031621
v 0.097145 -0.036998 0.023205
v -0.228513 0.287963 0.034729
v 0.183381 -0.025967 0.034729
v -0.171226 -0.036998 -0.031621
v -0.171226 0.298985 0.023205
v -0.171226 0.298985 -0.031621
v -0.171226 -0.036998 0.023205
v 0.200694 -0.020611 0.034729
v 0.207190 -0.001593 0.034729
v -0.131727 0.298985 -0.031621
v -0.131727 -0.036998 0.023205
v -0.250338 0.283204 0.034729
v -0.254703 0.263815 0.034729
v -0.131727 -0.036998 -0.031621
v -0.131727 0.298985 0.023205
v 0.103743 0.304183 -0.020968
v 0.124504 0.304183 -0.020968
v 0.124504 0.304183 0.012552
v 0.103743 0.304183 0.012552
v 0.144157 0.501842 -0.096448
v 0.166842 0.501842 -0.096448
v 0.166842 0.501842 -0.059821
v 0.144157 0.501842 -0.059821
v 0.146790 0.511455 -0.092197
v 0.164209 0.511455 -0.092197
v 0.164209 0.511455 -0.064072
v 0.146790 0.511455 -0.064072
v -0.139137 0.304718 0.012918
v -0.163815 0.304718 0.012918
v -0.163815 0.304718 -0.021335
v -0.139137 0.304718 -0.021335
v -0.198695 0.499725 -0.045175
v -0.223373 0.499725 -0.045175
v -0.223373 0.499725 -0.079429
v -0.198695 0.499725 -0.079429
v -0.201754 0.507437 -0.049422
v -0.220314 0.507437 -0.049422
v -0.220314 0.507437 -0.075183
v -0.201754 0.507437 -0.075183
v -0.250350 0.000874 -0.039484
v -0.245061 -0.019259 -0.039484
v -0.224647 -0.023047 -0.039484
v 0.179587 0.285045 -0.039484
v 0.196842 0.279664 -0.039484
v 0.202953 0.000874 -0.039484
v 0.196579 -0.017790 -0.039484
v 0.179587 -0.023047 -0.039484
v 0.118506 0.285045 -0.039484
v 0.179587 0.000874 -0.039484
v -0.158724 -0.023047 -0.039484
v -0.246066 0.280375 -0.039484
v -0.224647 0.285045 -0.039484
v -0.224647 0.000874 -0.039484
v -0.250350 0.261346 -0.039484
v 0.202953 0.261346 -0.039484
v 0.179587 0.261346 -0.039484
v -0.224647 0.261346 -0.039484
v 0.118506 0.261346 -0.039484
v 0.118506 0.000874 -0.039484
v 0.087369 0.285045 -0.039484
v 0.118506 -0.023047 -0.039484
v 0.087369 0.261346 -0.039484
v 0.087369 0.000874 -0.039484
v 0.087369 -0.023047 -0.039484
v -0.122504 0.285045 -0.039484
v -0.122504 0.261346 -0.039484
v -0.122504 0.000874 -0.039484
v -0.122504 -0.023047 -0.039484
v -0.158724 0.285045 -0.039484
v -0.158724 0.261346 -0.039484
v -0.158724 0.000874 -0.039484
v -0.228513 -0.025967 0.034729
v -0.228513 -0.001593 0.034729
v -0.254703 -0.001593 0.034729
v 0.207190 0.263815 0.034729
v 0.183381 0.263815 0.034729
v -0.228513 0.263815 0.034729
v -0.161341 0.263815 0.034729
v -0.161341 -0.001593 0.034729
v 0.089415 -0.025967 0.034729
v 0.121143 0.287963 0.034729
v 0.121143 0.263815 0.034729
v 0.121143 -0.001593 0.034729
v 0.089415 0.287963 0.034729
v 0.089415 0.263815 0.034729
v 0.089415 -0.001593 0.034729
v -0.124434 -0.025967 0.034729
v -0.124434 0.287963 0.034729
v -0.124434 0.263815 0.034729
v -0.124434 -0.001593 0.034729
v -0.161341 -0.025967 0.034729
v -0.254703 0.095328 0.034729
v -0.271147 0.092817 0.023205
v -0.271147 0.092817 -0.031621
v 0.223193 0.092817 -0.031621
v 0.223193 0.092817 0.023205
v -0.250350 0.095992 -0.039484
v 0.202953 0.095992 -0.039484
v 0.179587 0.095992 -0.039484
v -0.224647 0.095992 -0.039484
v 0.118506 0.095992 -0.039484
v 0.087369 0.095992 -0.039484
v -0.158724 0.095992 -0.039484
v -0.122504 0.095992 -0.039484
v 0.207190 0.095328 0.034729
v 0.183381 0.095328 0.034729
v -0.228513 0.095328 0.034729
v 0.121143 0.095328 0.034729
v 0.089415 0.095328 0.034729
v -0.161341 0.095328 0.034729
v -0.124434 0.095328 0.034729
vn -0.7960 0.0929 0.5982
vn -0.4961 0.6253 0.6024
vn -0.3767 0.4760 -0.7947
vn -0.5906 0.0709 -0.8038
vn -0.0000 -0.0000 1.0000
vn -0.0163 0.1682 0.9856
vn -0.1015 0.1257 0.9869
vn -0.1119 0.0114 0.9937
vn 0.5882 0.1035 -0.8021
vn 0.3876 0.4674 -0.7945
vn 0.5118 0.6151 0.5997
vn 0.7913 0.1356 0.5962
vn 0.1092 -0.7000 -0.7057
vn 0.3860 -0.4693 -0.7942
vn 0.5095 -0.6174 0.5994
vn 0.1320 -0.8644 0.4852
vn -0.0811 0.7144 -0.6950
vn -0.0969 0.8760 0.4724
vn 0.1100 0.6998 -0.7058
vn 0.1329 0.8642 0.4853
vn -0.0000 -0.7572 -0.6532
vn -0.0000 -0.9034 0.4288
vn -0.0088 0.8609 0.5088
vn 0.0100 0.8550 0.5185
vn -0.0000 0.1585 0.9874
vn -0.0000 -0.1365 -0.9906
vn -0.3640 -0.4914 -0.7912
vn -0.0702 -0.7201 -0.6903
vn -0.0836 -0.8802 0.4671
vn -0.4774 -0.6437 0.5981
vn -0.0084 0.7081 -0.7061
vn -0.0100 0.8550 0.5185
vn -0.0000 -0.1585 0.9874
vn 0.8236 -0.0000 0.5672
vn 0.1139 0.0172 0.9933
vn 0.1087 -0.0000 0.9941
vn -0.0074 0.7137 -0.7004
vn 0.0074 0.7137 -0.7004
vn -0.0000 0.1366 -0.9906
vn 0.6240 -0.0000 -0.7815
vn 0.5874 -0.1057 -0.8023
vn 0.0974 -0.0139 -0.9951
vn 0.0937 -0.0000 -0.9956
vn 0.7905 -0.1386 0.5966
vn 0.1140 -0.0176 0.9933
vn 0.1001 -0.1186 0.9879
vn 0.1005 0.1180 0.9879
vn 0.0974 0.0136 -0.9952
vn 0.0834 0.0965 -0.9918
vn -0.8164 -0.0000 0.5775
vn -0.6142 -0.0000 -0.7892
vn -0.7921 -0.1075 0.6008
vn -0.5868 -0.0819 -0.8056
vn -0.0129 0.1433 -0.9896
vn -0.0839 0.1027 -0.9912
vn -0.0139 -0.1670 0.9859
vn -0.0985 -0.1315 0.9864
vn -0.0955 0.0090 -0.9954
vn -0.0929 -0.0000 -0.9957
vn 0.0234 0.1708 0.9850
vn 0.0830 -0.0970 -0.9918
vn -0.1124 -0.0134 0.9936
vn 0.0088 0.8609 0.5088
vn 0.0084 0.7081 -0.7061
vn 0.0185 0.1450 -0.9893
vn -0.0109 -0.1425 -0.9897
vn 0.0232 -0.1707 0.9851
vn -0.1082 -0.0000 0.9941
vn 0.5600 0.2961 -0.7738
vn 0.2631 0.6983 0.6657
vn 0.0183 -0.1450 -0.9893
vn -0.0812 -0.1077 -0.9909
vn 0.2618 0.6787 0.6862
vn -0.2477 0.6359 0.7309
vn -0.0959 -0.0105 -0.9953
vn -0.2704 0.7207 0.6383
vn 0.2773 0.3220 0.9052
vn -0.2568 0.4055 0.8773
vn -0.5515 0.4340 -0.7124
vn -0.0858 0.0079 -0.9963
vn -0.3456 0.6792 0.6475
vn -0.3456 0.6792 -0.6475
vn 0.0897 0.0055 -0.9960
vn 0.3456 0.6792 -0.6475
vn 0.3456 0.6792 0.6475
vn 0.4855 0.4399 -0.7555
vn -0.4796 0.2524 -0.8404
vn -0.0924 0.0219 -0.9955
vn 0.0844 0.0267 -0.9961
vn 0.2333 0.4135 0.8801
vn 0.3569 0.7523 -0.5538
vn 0.3569 0.7523 0.5538
vn -0.2657 0.3020 0.9155
vn -0.3569 0.7523 -0.5538
vn -0.3569 0.7523 0.5538
vn -0.0000 -0.0000 -1.0000
vt 0.125000 0.750000
vt 0.375000 0.000000
vt 0.625000 0.000000
vt 0.875000 0.750000
vt 0.125000 0.500000
vt 0.375000 0.250000
vt 0.875000 0.500000
vt 0.625000 0.250000
vt 0.375000 0.750000
vt 0.625000 0.750000
vt 0.375000 0.500000
vt 0.625000 0.500000
vt 0.362113 0.500000
vt 0.637887 0.500000
vt 0.362113 0.750000
vt 0.637887 0.750000
vt 0.139175 0.500000
vt 0.860825 0.750000
vt 0.860825 0.500000
vt 0.139175 0.750000
vt 0.605769 0.000000
vt 0.605769 0.250000
vt 0.605769 0.500000
vt 0.605769 0.750000
vt 0.125000 0.750000
vt 0.375000 0.000000
vt 0.375000 1.000000
vt 0.824468 0.750000
vt 0.625000 0.949468
vt 0.394410 0.250000
vt 0.394410 0.500000
vt 0.394410 0.750000
vt 0.394410 0.762887
vt 0.637887 0.750000
vt 0.625000 0.762887
vt 0.394410 0.000000
vt 0.671573 0.500000
vt 0.625000 0.453427
vt 0.328427 0.750000
vt 0.328427 0.500000
vt 0.671573 0.750000
vt 0.625000 0.796573
vt 0.625000 0.750000
vt 0.328427 0.750000
vt 0.375000 0.796573
vt 0.311254 0.500000
vt 0.688746 0.750000
vt 0.625000 0.813746
vt 0.625000 0.436254
vt 0.688746 0.500000
vt 0.311254 0.750000
vt 0.860825 0.750000
vt 0.625000 0.985825
vt 0.362113 0.750000
vt 0.375000 0.762887
vt 0.175532 0.500000
vt 0.625000 0.949468
vt 0.824468 0.750000
vt 0.824468 0.500000
vt 0.625000 0.300532
vt 0.175532 0.750000
vt 0.375000 0.750000
vt 0.394410 0.750000
vt 0.804492 0.500000
vt 0.625000 0.320508
vt 0.195508 0.750000
vt 0.625000 1.000000
vt 0.625000 0.000000
vt 0.875000 0.750000
vt 0.605769 1.000000
vt 0.605769 0.000000
vt 0.195508 0.500000
vt 0.625000 0.929492
vt 0.804492 0.750000
vt 0.625000 0.436254
vt 0.688746 0.500000
vt 0.625000 0.453427
vt 0.671573 0.500000
vt 0.625000 0.796573
vt 0.671573 0.750000
vt 0.625000 0.813746
vt 0.688746 0.750000
vt 0.688746 0.500000
vt 0.625000 0.436254
vt 0.671573 0.500000
vt 0.625000 0.453427
vt 0.671573 0.750000
vt 0.625000 0.796573
vt 0.688746 0.750000
vt 0.625000 0.813746
vt 0.688746 0.500000
vt 0.625000 0.436254
vt 0.671573 0.500000
vt 0.625000 0.453427
vt 0.671573 0.750000
vt 0.625000 0.796573
vt 0.688746 0.750000
vt 0.625000 0.813746
vt 0.625000 0.929492
vt 0.804492 0.750000
vt 0.625000 0.949468
vt 0.824468 0.750000
vt 0.625000 0.300532
vt 0.824468 0.500000
vt 0.625000 0.320508
vt 0.804492 0.500000
vt 0.804492 0.750000
vt 0.625000 0.929492
vt 0.824468 0.750000
vt 0.625000 0.949468
vt 0.824468 0.500000
vt 0.625000 0.300532
vt 0.804492 0.500000
vt 0.625000 0.320508
vt 0.804492 0.750000
vt 0.625000 0.929492
vt 0.824468 0.750000
vt 0.625000 0.949468
vt 0.824468 0.500000
vt 0.625000 0.300532
vt 0.804492 0.500000
vt 0.625000 0.320508
vt 0.394410 0.250000
vt 0.125000 0.500000
vt 0.375000 0.250000
vt 0.139175 0.500000
vt 0.375000 0.264175
vt 0.637887 0.500000
vt 0.625000 0.487113
vt 0.625000 0.500000
vt 0.394410 0.500000
vt 0.375000 0.500000
vt 0.362113 0.500000
vt 0.375000 0.487113
vt 0.671573 0.500000
vt 0.625000 0.453427
vt 0.394410 0.487113
vt 0.175532 0.500000
vt 0.375000 0.300532
vt 0.875000 0.500000
vt 0.625000 0.250000
vt 0.860825 0.500000
vt 0.625000 0.264175
vt 0.394410 0.264175
vt 0.605769 0.250000
vt 0.605769 0.500000
vt 0.605769 0.487113
vt 0.605769 0.264175
vt 0.605769 0.453427
vt 0.394410 0.453427
vt 0.688746 0.500000
vt 0.625000 0.436254
vt 0.328427 0.500000
vt 0.375000 0.453427
vt 0.605769 0.436254
vt 0.394410 0.436254
vt 0.311254 0.500000
vt 0.375000 0.436254
vt 0.804492 0.500000
vt 0.625000 0.320508
vt 0.605769 0.320508
vt 0.394411 0.320508
vt 0.195508 0.500000
vt 0.375000 0.320508
vt 0.824468 0.500000
vt 0.625000 0.300532
vt 0.605769 0.300532
vt 0.394410 0.300532
vt 0.139175 0.750000
vt 0.375000 0.985825
vt 0.394410 0.985825
vt 0.394410 0.000000
vt 0.394410 1.000000
vt 0.605769 0.750000
vt 0.605769 0.762887
vt 0.605769 0.985825
vt 0.605769 0.949468
vt 0.394410 0.949468
vt 0.311254 0.750000
vt 0.375000 0.813746
vt 0.671573 0.750000
vt 0.625000 0.796573
vt 0.605769 0.796573
vt 0.394410 0.796573
vt 0.688746 0.750000
vt 0.625000 0.813746
vt 0.605769 0.813746
vt 0.394411 0.813746
vt 0.195508 0.750000
vt 0.375000 0.929492
vt 0.804492 0.750000
vt 0.625000 0.929492
vt 0.605769 0.929492
vt 0.394410 0.929492
vt 0.175532 0.750000
vt 0.375000 0.949468
vt 0.471594 1.000000
vt 0.471594 0.000000
vt 0.471594 0.000000
vt 0.471594 0.250000
vt 0.471594 0.500000
vt 0.471594 0.750000
vt 0.471594 0.250000
vt 0.471594 0.500000
vt 0.471594 0.487113
vt 0.471594 0.264175
vt 0.471594 0.453427
vt 0.471594 0.436254
vt 0.471594 0.300532
vt 0.471594 0.320508
vt 0.471594 0.750000
vt 0.471594 0.762887
vt 0.471594 0.985825
vt 0.471594 0.796573
vt 0.471594 0.813746
vt 0.471594 0.949468
vt 0.471594 0.929492
s 1
f 17/21/1 2/3/2 4/8/3 18/22/4
f 114/176/5 39/53/6 49/67/7 50/70/8
f 19/23/9 8/12/10 6/10/11 20/24/12
f 9/13/13 7/11/14 5/9/15 11/15/16
f 15/19/17 4/7/3 2/4/2 14/18/18
f 8/12/10 10/14/19 12/16/20 6/10/11
f 31/40/21 9/13/13 11/15/16 30/39/22
f 36/47/23 52/74/24 125/191/25 121/185/25
f 31/40/21 35/46/21 101/157/26 98/153/26
f 35/46/21 51/72/21 105/163/26 101/157/26
f 3/5/27 13/17/28 16/20/29 1/1/30
f 43/59/31 15/19/17 14/18/18 42/58/32
f 38/51/22 30/39/22 34/44/33 117/179/33
f 133/202/34 20/24/12 112/174/35 142/211/36
f 37/49/37 29/38/38 85/136/39 97/152/39
f 132/201/40 24/31/41 82/131/42 135/204/43
f 5/9/15 25/32/44 46/63/45 45/62/46
f 20/24/12 6/10/11 33/43/47 112/174/35
f 132/201/40 19/23/9 20/24/12 133/202/34
f 8/12/10 19/23/9 92/146/48 81/130/49
f 130/199/50 17/21/1 18/22/4 131/200/51
f 1/2/30 28/36/52 23/30/53 3/6/27
f 4/7/3 15/19/17 89/142/54 88/140/55
f 7/11/14 24/31/41 25/32/44 5/9/15
f 2/3/2 17/21/1 50/71/8 49/68/7
f 1/1/30 16/20/29 109/169/56 21/25/57
f 15/19/17 43/59/31 106/165/39 89/142/54
f 131/200/51 18/22/4 91/145/58 134/203/59
f 16/20/29 44/61/22 128/195/33 109/169/56
f 6/10/11 12/16/20 27/34/60 33/43/47
f 18/22/4 4/8/3 88/141/55 91/145/58
f 24/31/41 7/11/14 83/132/61 82/131/42
f 48/66/22 38/51/22 117/179/33 124/189/33
f 28/36/52 1/2/30 21/26/57 111/172/62
f 10/14/19 29/37/38 32/41/63 12/16/20
f 47/64/64 37/50/37 97/151/39 102/159/39
f 35/46/21 31/40/21 30/39/22 38/51/22
f 51/72/21 35/46/21 38/51/22 48/66/22
f 29/37/38 10/14/19 80/128/65 85/135/39
f 41/56/21 13/17/28 79/126/66 87/138/26
f 10/14/19 8/12/10 81/130/49 80/128/65
f 30/39/22 11/15/16 40/54/67 34/44/33
f 42/58/32 14/18/18 39/52/6 22/28/25
f 130/199/50 28/36/52 111/172/62 129/198/68
f 32/41/63 29/37/38 54/78/69 55/80/70
f 7/11/14 9/13/13 84/133/71 83/132/61
f 43/60/31 47/65/64 102/160/39 106/166/39
f 13/17/28 3/5/27 78/124/72 79/126/66
f 13/17/28 41/56/21 44/61/22 16/20/29
f 44/61/22 48/66/22 124/189/33 128/195/33
f 52/73/24 42/57/32 22/29/25 125/192/25
f 12/16/20 32/41/63 118/181/25 27/34/60
f 42/57/32 52/73/24 65/99/73 66/101/74
f 37/50/37 47/64/64 52/74/24 36/47/23
f 14/18/18 2/4/2 49/69/7 39/52/6
f 32/42/63 36/48/23 121/186/25 118/182/25
f 11/15/16 5/9/15 45/62/46 40/54/67
f 51/72/21 41/56/21 87/138/26 105/163/26
f 3/6/27 23/30/53 77/123/75 78/125/72
f 9/13/13 31/40/21 98/153/26 84/133/71
f 41/56/21 51/72/21 48/66/22 44/61/22
f 56/81/76 55/79/70 59/88/77 60/90/78
f 29/38/38 37/49/37 53/75/79 54/77/69
f 37/50/37 36/47/23 56/82/76 53/76/79
f 36/48/23 32/42/63 55/79/70 56/81/76
f 57/83/80 60/89/78 64/97/81 61/91/82
f 54/77/69 53/75/79 57/84/80 58/86/83
f 53/76/79 56/82/76 60/89/78 57/83/80
f 55/80/70 54/78/69 58/85/83 59/87/77
f 62/93/84 61/91/82 64/97/81 63/95/85
f 59/87/77 58/85/83 62/93/84 63/95/85
f 60/90/78 59/88/77 63/96/85 64/98/81
f 58/86/83 57/84/80 61/92/82 62/94/84
f 68/105/86 67/103/87 71/112/88 72/114/89
f 43/59/31 42/58/32 66/102/74 67/104/87
f 52/74/24 47/64/64 68/106/86 65/100/73
f 47/65/64 43/60/31 67/103/87 68/105/86
f 69/107/90 72/113/89 76/121/91 73/115/92
f 66/101/74 65/99/73 69/108/90 70/110/93
f 65/100/73 68/106/86 72/113/89 69/107/90
f 67/104/87 66/102/74 70/109/93 71/111/88
f 76/121/91 75/119/94 74/117/95 73/115/92
f 71/111/88 70/109/93 74/117/95 75/119/94
f 72/114/89 71/112/88 75/120/94 76/122/91
f 70/110/93 69/108/90 73/116/92 74/118/95
f 93/147/96 80/129/65 81/130/49 92/146/48
f 95/149/96 85/136/39 80/129/65 93/147/96
f 91/145/58 88/141/55 89/143/54 94/148/96
f 134/203/59 91/145/58 94/148/96 137/206/96
f 138/207/96 95/149/96 93/147/96 136/205/96
f 136/205/96 93/147/96 92/146/48 135/204/43
f 84/134/71 86/137/96 82/131/42 83/132/61
f 98/154/26 96/150/96 86/137/96 84/134/71
f 78/125/72 77/123/75 90/144/96 79/127/66
f 101/158/26 100/156/96 96/150/96 98/154/26
f 139/208/96 99/155/96 95/149/96 138/207/96
f 99/155/96 97/152/39 85/136/39 95/149/96
f 103/161/96 102/160/39 97/152/39 99/155/96
f 141/210/96 103/161/96 99/155/96 139/208/96
f 105/164/26 104/162/96 100/156/96 101/158/26
f 79/127/66 90/144/96 108/168/96 87/139/26
f 137/206/96 94/148/96 107/167/96 140/209/96
f 94/148/96 89/143/54 106/166/39 107/167/96
f 87/139/26 108/168/96 104/162/96 105/164/26
f 140/209/96 107/167/96 103/161/96 141/210/96
f 107/167/96 106/166/39 102/160/39 103/161/96
f 112/174/35 33/43/47 27/35/60 113/175/5
f 115/177/5 22/29/25 39/53/6 114/176/5
f 147/216/5 115/177/5 114/176/5 144/213/5
f 142/211/36 112/174/35 113/175/5 143/212/5
f 144/213/5 114/176/5 50/70/8 129/197/68
f 109/170/56 110/171/5 111/173/62 21/27/57
f 45/62/46 46/63/45 26/33/5 40/55/67
f 128/196/33 116/178/5 110/171/5 109/170/56
f 40/55/67 26/33/5 120/184/5 34/45/33
f 143/212/5 113/175/5 119/183/5 145/214/5
f 113/175/5 27/35/60 118/182/25 119/183/5
f 34/45/33 120/184/5 123/188/5 117/180/33
f 145/214/5 119/183/5 122/187/5 146/215/5
f 119/183/5 118/182/25 121/186/25 122/187/5
f 124/190/33 127/194/5 116/178/5 128/196/33
f 148/217/5 126/193/5 115/177/5 147/216/5
f 126/193/5 125/192/25 22/29/25 115/177/5
f 122/187/5 121/186/25 125/192/25 126/193/5
f 146/215/5 122/187/5 126/193/5 148/217/5
f 117/180/33 123/188/5 127/194/5 124/190/33
f 123/188/5 146/215/5 148/217/5 127/194/5
f 127/194/5 148/217/5 147/216/5 116/178/5
f 120/184/5 145/214/5 146/215/5 123/188/5
f 26/33/5 143/212/5 145/214/5 120/184/5
f 110/171/5 144/213/5 129/197/68 111/173/62
f 46/63/45 142/211/36 143/212/5 26/33/5
f 116/178/5 147/216/5 144/213/5 110/171/5
f 108/168/96 140/209/96 141/210/96 104/162/96
f 90/144/96 137/206/96 140/209/96 108/168/96
f 104/162/96 141/210/96 139/208/96 100/156/96
f 100/156/96 139/208/96 138/207/96 96/150/96
f 86/137/96 136/205/96 135/204/43 82/131/42
f 96/150/96 138/207/96 136/205/96 86/137/96
f 77/123/75 134/203/59 137/206/96 90/144/96
f 17/21/1 130/199/50 129/198/68 50/71/8
f 23/30/53 131/200/51 134/203/59 77/123/75
f 28/36/52 130/199/50 131/200/51 23/30/53
f 24/31/41 132/201/40 133/202/34 25/32/44
f 19/23/9 132/201/40 135/204/43 92/146/48
f 25/32/44 133/202/34 142/211/36 46/63/45
