# Blender 3.3.0
# www.blender.org
mtllib shelf.mtl
o Cube.030
v -2.707049 0.993355 0.359241
v -2.707049 1.057187 0.359241
v -2.707049 0.993355 -0.357702
v -2.707049 1.057187 -0.357702
v 0.689052 0.993355 0.359241
v 0.689052 1.057187 0.359241
v 0.689052 0.993355 -0.357702
v 0.689052 1.057187 -0.357702
v -2.707049 0.947542 -0.312984
v -2.707049 0.947542 0.314523
v 0.689052 0.947542 -0.312984
v 0.689052 0.947542 0.314523
v 0.966848 1.057187 -0.209154
v 0.966848 0.993355 -0.209154
v 0.966848 0.993355 0.210693
v 0.966848 1.057187 0.210693
v 0.966848 0.947542 0.184506
v 0.966848 0.947542 -0.182967
v -3.012486 0.993355 -0.232075
v -3.012486 0.993355 0.233614
v -3.012486 1.057187 0.233614
v -3.012486 1.057187 -0.232075
v -3.012486 0.947542 -0.203028
v -3.012486 0.947542 0.204568
v -1.008999 0.993355 -0.357702
v -1.008999 1.057187 -0.357702
v -1.008999 0.993355 0.359241
v -1.008999 1.057187 0.359241
v -1.008999 0.947542 -0.312984
v -1.008999 0.947542 0.314523
v -0.159974 1.057187 -0.357702
v -0.159974 0.993355 0.359241
v -0.159974 0.947542 0.314523
v -0.159974 0.993355 -0.357702
v -0.159974 1.057187 0.359241
v -0.159974 0.947542 -0.312984
v -1.858024 0.993355 -0.357702
v -1.858024 1.057187 0.359241
v -1.858024 0.947542 -0.312984
v -1.858024 1.057187 -0.357702
v -1.858024 0.993355 0.359241
v -1.858024 0.947542 0.314523
v 0.264539 1.057187 -0.357702
v 0.264539 0.993355 0.359241
v 0.264539 0.947542 0.314523
v 0.264539 0.993355 -0.357702
v 0.264539 1.057187 0.359241
v 0.264539 0.947542 -0.312984
v -2.282536 0.993355 -0.357702
v -2.282536 1.057187 0.359241
v -2.282536 0.947542 -0.312984
v -2.282536 1.057187 -0.357702
v -2.282536 0.993355 0.359241
v -2.282536 0.947542 0.314523
v 0.052283 0.993355 -0.357702
v 0.052283 1.057187 0.359241
v 0.052283 0.947542 -0.312984
v 0.052283 1.057187 -0.357702
v 0.052283 0.993355 0.359241
v 0.052283 0.947542 0.314523
v -2.070280 1.057187 -0.357702
v -2.070280 0.993355 0.359241
v -2.070280 0.947542 0.314523
v -2.070280 0.993355 -0.357702
v -2.070280 1.057187 0.359241
v -2.070280 0.947542 -0.312984
v 0.158411 1.057187 -0.357702
v 0.158411 0.993355 0.359241
v 0.158411 0.947542 0.314523
v 0.158411 0.993355 -0.357702
v 0.158411 1.057187 0.359241
v 0.158411 0.947542 -0.312984
v -2.176408 0.993355 -0.357702
v -2.176408 1.057187 0.359241
v -2.176408 0.947542 -0.312984
v -2.176408 1.057187 -0.357702
v -2.176408 0.993355 0.359241
v -2.176408 0.947542 0.314523
v -2.707049 1.057187 0.203657
v 0.689052 1.057187 0.203657
v -2.707049 0.947542 0.178347
v 0.689052 0.947542 0.178347
v 0.966848 0.993355 0.119582
v 0.966848 1.057187 0.119582
v 0.966848 0.947542 0.104761
v -3.012486 0.993355 0.132555
v -3.012486 1.057187 0.132555
v -3.012486 0.947542 0.116115
v -1.008999 0.947542 0.178347
v -1.008999 1.057187 0.203657
v -0.159974 1.057187 0.203657
v -0.159974 0.947542 0.178347
v -1.858024 0.947542 0.178347
v -1.858024 1.057187 0.203657
v 0.264539 1.057187 0.203657
v 0.264539 0.947542 0.178347
v -2.282536 0.947542 0.178347
v -2.282536 1.057187 0.203657
v 0.052283 0.947542 0.178347
v 0.052283 1.057187 0.203657
v -2.070280 1.057187 0.203657
v -2.070280 0.947542 0.178347
v 0.158411 1.057187 0.203657
v 0.158411 0.947542 0.178347
v -2.176408 0.947542 0.178347
v -2.176408 1.057187 0.203657
v -2.707049 1.057187 0.050347
v 0.689052 0.947542 0.044162
v 0.966848 0.993355 0.029802
v 0.966848 0.947542 0.026181
v -3.012486 1.057187 0.032972
v 0.689052 1.057187 0.050347
v -2.707049 0.947542 0.044162
v 0.966848 1.057187 0.029802
v -3.012486 0.993355 0.032972
v -3.012486 0.947542 0.028955
v -1.008999 0.947542 0.044162
v -1.008999 1.057187 0.050347
v -0.159974 1.057187 0.050347
v -0.159974 0.947542 0.044162
v -1.858024 0.947542 0.044162
v -1.858024 1.057187 0.050347
v 0.264539 1.057187 0.050347
v 0.264539 0.947542 0.044162
v -2.282536 0.947542 0.044162
v -2.282536 1.057187 0.050347
v 0.052283 0.947542 0.044162
v 0.052283 1.057187 0.050347
v -2.070280 1.057187 0.050347
v -2.070280 0.947542 0.044162
v 0.158411 1.057187 0.050347
v 0.158411 0.947542 0.044162
v -2.176408 0.947542 0.044162
v -2.176408 1.057187 0.050347
v 0.250939 0.843836 0.061357
v 0.250939 0.843836 0.161153
v -2.269726 0.843836 0.060359
v -2.269726 0.843836 0.162150
v 0.172010 0.843836 0.061357
v 0.172010 0.843836 0.161153
v -2.189219 0.843836 0.060359
v -2.189219 0.843836 0.162150
v 0.272741 0.802944 0.033792
v 0.272741 0.802944 0.188717
v -2.291963 0.802944 0.032243
v -2.291963 0.802944 0.190266
v 0.150209 0.802944 0.033792
v 0.150209 0.802944 0.188717
v -2.166981 0.802944 0.032243
v -2.166981 0.802944 0.190266
v 0.272741 0.641986 0.128875
v 0.272741 0.751534 0.238424
v -2.291963 0.640890 0.127780
v -2.291963 0.752630 0.239519
v 0.150209 0.641986 0.128875
v 0.150209 0.751534 0.238424
v -2.166981 0.640890 0.127780
v -2.166981 0.752630 0.239519
v 0.272741 0.615211 0.418055
v 0.272741 0.724760 0.527603
v -2.291963 0.614116 0.416959
v -2.291963 0.725855 0.528699
v 0.150209 0.615211 0.418055
v 0.150209 0.724760 0.527603
v -2.166981 0.614116 0.416959
v -2.166981 0.725855 0.528699
vn -0.3804 -0.0000 0.9248
vn -0.0000 -0.0000 -1.0000
vn 0.3686 -0.5689 0.7352
vn -0.0000 -0.0000 1.0000
vn -0.0000 -0.6985 0.7156
vn -0.0000 1.0000 -0.0000
vn -0.0000 -1.0000 -0.0000
vn -0.0000 -0.6985 -0.7156
vn -0.3804 -0.0000 -0.9248
vn 1.0000 -0.0000 -0.0000
vn 0.4716 -0.0000 -0.8818
vn 0.4716 -0.0000 0.8818
vn 0.3686 -0.5689 -0.7352
vn -1.0000 -0.0000 -0.0000
vn -0.2877 -0.6006 -0.7460
vn -0.2877 -0.6006 0.7460
vn 0.9915 -0.1300 -0.0000
vn -0.9915 -0.1300 -0.0000
vn -0.0000 0.5666 0.8240
vn -0.0000 0.5590 -0.8292
vn 0.9925 -0.1226 -0.0000
vn -0.0000 -0.1636 -0.9865
vn -0.0000 -0.1543 -0.9880
vn -0.0000 -0.1543 0.9880
vn -0.9925 -0.1226 -0.0000
vn -0.0000 -0.1636 0.9865
vn -0.0000 0.6951 0.7189
vn -0.8824 0.4705 -0.0000
vn 0.8824 0.4705 -0.0000
vn -0.0000 0.5666 -0.8240
vn -0.0000 0.5590 0.8292
vn 0.8785 0.4777 -0.0000
vn -0.8785 0.4777 -0.0000
vn -0.0000 -0.9957 -0.0922
vn -0.0000 -0.5086 -0.8610
vn -0.0000 0.6995 0.7146
vn -0.0000 -0.5079 -0.8614
vn -0.0000 -0.7071 0.7071
vn -0.0000 0.9957 0.0922
s 0
f 1//1 2//1 21//1 20//1
f 46//2 43//2 8//2 7//2
f 5//3 12//3 17//3 15//3
f 53//4 50//4 2//4 1//4
f 53//5 1//5 10//5 54//5
f 98//6 79//6 2//6 50//6
f 96//7 82//7 12//7 45//7
f 46//8 7//8 11//8 48//8
f 4//9 3//9 19//9 22//9
f 80//6 6//6 16//6 84//6
f 83//10 84//10 16//10 15//10
f 83//10 15//10 17//10 85//10
f 7//11 8//11 13//11 14//11
f 6//12 5//12 15//12 16//12
f 11//13 7//13 14//13 18//13
f 108//7 11//7 18//7 110//7
f 115//14 111//14 22//14 19//14
f 115//14 19//14 23//14 116//14
f 81//7 10//7 24//7 88//7
f 3//15 9//15 23//15 19//15
f 107//6 4//6 22//6 111//6
f 10//16 1//16 20//16 24//16
f 37//8 25//8 29//8 39//8
f 93//7 89//7 30//7 42//7
f 91//6 90//6 28//6 35//6
f 32//5 27//5 30//5 33//5
f 32//4 35//4 28//4 27//4
f 37//2 40//2 26//2 25//2
f 59//4 56//4 35//4 32//4
f 59//5 32//5 33//5 60//5
f 100//6 91//6 35//6 56//6
f 25//8 34//8 36//8 29//8
f 89//7 92//7 33//7 30//7
f 25//2 26//2 31//2 34//2
f 64//2 61//2 40//2 37//2
f 102//7 93//7 42//7 63//7
f 64//8 37//8 39//8 66//8
f 90//6 94//6 38//6 28//6
f 27//5 41//5 42//5 30//5
f 27//4 28//4 38//4 41//4
f 80//6 95//6 47//6 6//6
f 5//5 44//5 45//5 12//5
f 5//4 6//4 47//4 44//4
f 70//8 46//8 48//8 72//8
f 104//7 96//7 45//7 69//7
f 70//2 67//2 43//2 46//2
f 3//8 49//8 51//8 9//8
f 81//7 97//7 54//7 10//7
f 3//2 4//2 52//2 49//2
f 106//6 98//6 50//6 74//6
f 77//5 53//5 54//5 78//5
f 77//4 74//4 50//4 53//4
f 34//2 31//2 58//2 55//2
f 92//7 99//7 60//7 33//7
f 34//8 55//8 57//8 36//8
f 103//6 100//6 56//6 71//6
f 68//5 59//5 60//5 69//5
f 68//4 71//4 56//4 59//4
f 41//4 38//4 65//4 62//4
f 41//5 62//5 63//5 42//5
f 94//6 101//6 65//6 38//6
f 73//8 64//8 66//8 75//8
f 105//7 102//7 63//7 78//7
f 73//2 76//2 61//2 64//2
f 44//4 47//4 71//4 68//4
f 44//5 68//5 69//5 45//5
f 95//6 103//6 71//6 47//6
f 55//2 58//2 67//2 70//2
f 99//7 104//7 69//7 60//7
f 55//8 70//8 72//8 57//8
f 49//2 52//2 76//2 73//2
f 97//7 105//7 78//7 54//7
f 49//8 73//8 75//8 51//8
f 62//4 65//4 74//4 77//4
f 62//5 77//5 78//5 63//5
f 101//6 106//6 74//6 65//6
f 129//6 134//6 106//6 101//6
f 124//17 96//17 136//17 135//17
f 127//7 132//7 104//7 99//7
f 123//6 131//6 103//6 95//6
f 133//7 130//7 102//7 105//7
f 122//6 129//6 101//6 94//6
f 131//6 128//6 100//6 103//6
f 120//7 127//7 99//7 92//7
f 134//6 126//6 98//6 106//6
f 113//7 125//7 97//7 81//7
f 104//18 132//18 139//18 140//18
f 112//6 123//6 95//6 80//6
f 118//6 122//6 94//6 90//6
f 130//7 121//7 93//7 102//7
f 117//7 120//7 92//7 89//7
f 128//6 119//6 91//6 100//6
f 119//6 118//6 90//6 91//6
f 121//7 117//7 89//7 93//7
f 2//6 79//6 87//6 21//6
f 113//7 81//7 88//7 116//7
f 20//14 86//14 88//14 24//14
f 20//14 21//14 87//14 86//14
f 12//7 82//7 85//7 17//7
f 109//10 83//10 85//10 110//10
f 109//10 114//10 84//10 83//10
f 112//6 80//6 84//6 114//6
f 124//7 108//7 82//7 96//7
f 126//6 107//6 79//6 98//6
f 52//6 4//6 107//6 126//6
f 48//7 11//7 108//7 124//7
f 8//6 112//6 114//6 13//6
f 14//10 13//10 114//10 109//10
f 14//10 109//10 110//10 18//10
f 9//7 113//7 116//7 23//7
f 39//7 29//7 117//7 121//7
f 31//6 26//6 118//6 119//6
f 58//6 31//6 119//6 128//6
f 29//7 36//7 120//7 117//7
f 66//7 39//7 121//7 130//7
f 26//6 40//6 122//6 118//6
f 8//6 43//6 123//6 112//6
f 72//7 48//7 124//7 132//7
f 9//7 51//7 125//7 113//7
f 76//6 52//6 126//6 134//6
f 36//7 57//7 127//7 120//7
f 67//6 58//6 128//6 131//6
f 40//6 61//6 129//6 122//6
f 75//7 66//7 130//7 133//7
f 43//6 67//6 131//6 123//6
f 57//7 72//7 132//7 127//7
f 51//7 75//7 133//7 125//7
f 61//6 76//6 134//6 129//6
f 79//6 107//6 111//6 87//6
f 86//14 115//14 116//14 88//14
f 86//14 87//14 111//14 115//14
f 82//7 108//7 110//7 85//7
f 142//19 138//19 146//19 150//19
f 139//20 135//20 143//20 147//20
f 133//21 105//21 142//21 141//21
f 132//22 124//22 135//22 139//22
f 125//23 133//23 141//23 137//23
f 105//24 97//24 138//24 142//24
f 97//25 125//25 137//25 138//25
f 96//26 104//26 140//26 136//26
f 149//10 150//10 158//10 157//10
f 144//27 148//27 156//27 152//27
f 140//28 139//28 147//28 148//28
f 135//29 136//29 144//29 143//29
f 137//30 141//30 149//30 145//30
f 136//31 140//31 148//31 144//31
f 141//32 142//32 150//32 149//32
f 138//33 137//33 145//33 146//33
f 153//34 157//34 165//34 161//34
f 151//10 152//10 160//10 159//10
f 146//14 145//14 153//14 154//14
f 147//35 143//35 151//35 155//35
f 150//36 146//36 154//36 158//36
f 148//14 147//14 155//14 156//14
f 143//10 144//10 152//10 151//10
f 145//37 149//37 157//37 153//37
f 161//38 165//38 166//38 162//38
f 163//38 159//38 160//38 164//38
f 152//39 156//39 164//39 160//39
f 157//10 158//10 166//10 165//10
f 154//14 153//14 161//14 162//14
f 155//34 151//34 159//34 163//34
f 158//39 154//39 162//39 166//39
f 156//14 155//14 163//14 164//14
