# Blender 3.3.0
# www.blender.org
mtllib shoe.mtl
o Cube.031
v -0.164599 -0.133867 0.095999
v -0.164599 0.073736 0.095999
v -0.164599 -0.129284 -0.163382
v -0.164599 0.073736 -0.163382
v 0.163704 -0.133867 0.095999
v 0.163704 0.073736 0.095999
v 0.163704 -0.129284 -0.163382
v 0.163704 0.073736 -0.163382
v -0.164599 0.015242 -0.316926
v -0.164599 -0.135606 -0.316926
v 0.163704 -0.135606 -0.316926
v 0.163704 0.015242 -0.316926
v -0.103768 0.015242 -0.699666
v -0.103768 -0.135606 -0.699666
v 0.102874 -0.135606 -0.699666
v 0.102874 0.015242 -0.699666
v -0.164599 0.103859 0.092824
v -0.164599 0.132860 -0.160207
v 0.163704 0.132860 -0.160207
v 0.163704 0.103859 0.092824
v -0.212913 -0.126526 -0.033691
v -0.212913 0.051517 -0.033691
v 0.194660 -0.126526 -0.033691
v 0.194660 0.051517 -0.033691
v -0.212913 0.066959 -0.033691
v 0.194660 0.066959 -0.033691
v -0.000447 -0.129284 -0.163382
v -0.000447 0.073736 -0.240280
v -0.000447 -0.142726 0.182588
v -0.000447 0.073736 0.182588
v -0.000447 -0.135606 -0.316926
v -0.000447 0.015242 -0.316926
v -0.000447 -0.135606 -0.699666
v -0.000447 0.015242 -0.699666
v -0.000447 0.153382 -0.237106
v -0.000447 0.095386 0.179413
v -0.163308 -0.076774 -0.033406
v -0.000447 -0.133871 -0.033691
v -0.164599 -0.041745 0.095999
v -0.201390 -0.027774 -0.163382
v 0.192005 -0.027774 -0.163382
v 0.163704 -0.041745 0.095999
v -0.201390 -0.070992 -0.316926
v 0.192005 -0.070992 -0.316926
v -0.140560 -0.070992 -0.699666
v 0.131175 -0.070992 -0.699666
v 0.194660 -0.041745 -0.033691
v -0.212913 -0.041745 -0.033691
v -0.000447 -0.041745 0.182588
v -0.109561 -0.070992 -0.746687
v -0.080971 -0.116382 -0.746687
v -0.000684 -0.116382 -0.746687
v -0.000684 -0.003982 -0.746687
v 0.079604 -0.003982 -0.746687
v 0.101596 -0.070992 -0.746687
v 0.079604 -0.116382 -0.746687
v -0.080971 -0.003982 -0.746687
v -0.000684 -0.070992 -0.746687
v -0.163308 0.066959 -0.033406
v -0.126390 0.126133 -0.130078
v -0.000959 0.146655 -0.188838
v 0.124472 0.126133 -0.130078
v 0.148126 0.066959 -0.033406
v 0.124472 0.110587 0.063267
v -0.000959 0.102113 0.129431
v -0.126390 0.110587 0.063267
v -0.126390 -0.054981 -0.130078
v -0.000959 -0.054981 -0.188838
v 0.124472 -0.054981 -0.130078
v 0.148126 -0.076774 -0.033406
v 0.124472 -0.098567 0.063267
v -0.000959 -0.098567 0.129431
v -0.126390 -0.098567 0.063267
v -0.000959 -0.076774 -0.033406
vn -0.9961 -0.0000 -0.0885
vn -0.9142 0.3900 -0.1098
vn 0.9727 -0.0000 0.2322
vn -0.4666 -0.0000 0.8845
vn 0.0323 -0.9986 -0.0409
vn 0.9727 -0.0000 -0.2322
vn -0.0000 1.0000 -0.0000
vn 0.9605 -0.2678 0.0754
vn -0.0000 -0.9992 0.0411
vn -0.0000 0.7949 -0.6067
vn -0.7165 -0.4513 -0.5319
vn -0.9101 0.3883 -0.1446
vn 0.9064 -0.3970 -0.1441
vn -0.0000 -1.0000 -0.0000
vn -0.1622 0.8992 0.4064
vn -0.9371 -0.0000 0.3491
vn 0.4627 0.1286 0.8771
vn -0.4276 0.0360 -0.9032
vn -0.9372 0.0187 -0.3482
vn 0.3076 0.9311 -0.1963
vn 0.9727 0.0243 0.2309
vn -0.0000 -0.9994 -0.0353
vn 0.9998 -0.0000 -0.0205
vn -0.0345 -0.9994 0.0084
vn 0.0032 0.8532 0.5215
vn 0.4237 0.0486 -0.9045
vn -0.4608 0.0930 0.8826
vn -0.0593 0.9888 0.1372
vn -0.0000 0.9256 -0.3784
vn -0.1645 0.9218 -0.3511
vn -0.0345 -0.9985 -0.0437
vn 0.4666 -0.0000 0.8845
vn 0.9395 0.3083 -0.1493
vn -0.8608 -0.4902 -0.1368
vn 0.8156 0.2677 -0.5130
vn 0.9583 0.2672 -0.1018
vn -0.8688 -0.4947 0.0204
vn -0.9371 -0.0000 -0.3491
vn -0.0000 -0.0000 -1.0000
vn -0.7865 0.3355 -0.5185
vn 0.7831 -0.3794 -0.4927
vn -0.0000 -0.9256 -0.3784
vn 0.9342 -0.0000 -0.3568
vn -0.4666 -0.0000 -0.8845
vn -0.4242 -0.0000 0.9056
vn 0.4666 -0.0000 -0.8845
vn 0.0191 0.9909 0.1332
vn -0.0307 0.9825 0.1840
vn 0.0016 0.9598 -0.2806
vn 0.0123 0.9724 0.2332
vn -0.0698 0.9887 0.1323
vn 0.0649 0.9882 0.1386
vn -0.0000 0.9755 0.2199
vn -0.9713 -0.0000 -0.2377
vn 0.9342 -0.0000 0.3568
vn 0.4242 -0.0000 0.9056
vn -0.9713 -0.0000 0.2377
vn -0.9025 0.3271 -0.2802
vn -0.9323 0.3379 -0.1287
vn 0.0376 -0.9982 -0.0475
vn 0.9727 0.0124 -0.2315
vn 0.9159 -0.4011 0.0165
vn 0.1645 0.9218 -0.3511
vn -0.7540 -0.4293 -0.4971
vn -0.0030 0.8534 0.5212
vn -0.9371 0.0366 0.3472
vn 0.4608 0.0930 0.8826
vn -0.4237 0.0486 -0.9045
vn -0.0025 0.9112 -0.4119
vn 0.0376 -0.9992 0.0123
vn 0.9474 0.2641 -0.1809
vn 0.1713 0.8903 0.4219
vn 0.4276 0.0360 -0.9032
vn -0.4627 0.1286 0.8771
vn -0.0357 0.9648 0.2607
vn -0.0323 -0.9986 -0.0409
vn 0.9621 -0.2682 -0.0486
vn 0.9465 0.3106 -0.0874
vn -0.9359 -0.3392 0.0955
vn -0.9334 -0.3383 -0.1194
vn 0.7794 -0.3414 -0.5253
vn 0.0303 0.9826 0.1834
vn -0.0193 0.9909 0.1336
vn -0.3623 0.8936 -0.2649
vn 0.0964 0.9857 0.1384
vn -0.0649 0.9882 0.1386
vn 0.0698 0.9887 0.1323
vt 0.250896 0.044557
vt 0.501512 0.635390
vt 0.345303 0.633900
vt 0.282538 0.236818
vt 0.499912 0.440177
vt 0.962350 0.436172
vt 0.218609 0.699173
vt 0.347151 0.438721
vt 0.707945 0.063943
vt 0.007117 0.084674
vt 0.551734 0.065410
vt 0.038759 0.276934
vt 0.706310 0.259148
vt 0.218609 0.946230
vt 0.715292 0.436280
vt 0.553547 0.260583
vt 0.392258 0.323601
vt 0.962350 0.322519
vt 0.301183 0.350095
vt 0.505763 0.324683
vt 0.712141 0.374638
vt 0.057405 0.390211
vt 0.715292 0.322627
vt 0.598634 0.375705
vt 0.916459 0.034757
vt 0.395531 0.035340
vt 0.509036 0.036423
vt 0.302641 0.640825
vt 0.149200 0.666075
vt 0.715292 0.663105
vt 0.601785 0.664171
vt 0.760955 0.034825
vt 0.322660 0.631295
vt 0.721539 0.659594
vt 0.302641 0.440685
vt 0.263126 0.699173
vt 0.894322 0.741344
vt 0.509036 0.258612
vt 1.000000 0.518029
vt 0.263125 0.946230
vt 0.529090 0.068012
vt 0.827218 0.436280
vt 0.302641 0.135082
vt 0.496478 0.537951
vt 0.362511 0.536673
vt 0.000000 0.184885
vt 0.703086 0.161341
vt 0.569116 0.162600
vt 0.790934 0.732693
vt 0.350892 0.536562
vt 0.557497 0.162709
vt 0.922129 0.455458
vt 0.160649 0.256876
vt 0.217963 0.822702
vt 0.838798 0.378406
vt 0.509036 0.699920
vt 0.118374 0.000000
vt 0.715292 0.000000
vt 0.346161 0.698367
vt 0.552414 0.001530
vt 0.179294 0.370153
vt 0.838821 0.322573
vt 0.225920 0.653450
vt 0.838707 0.034791
vt 0.277922 0.822702
vt 1.000000 0.654677
vt 0.536146 0.004072
vt 0.329893 0.695822
vt 0.715292 0.519980
vt 0.059711 0.926399
vt 0.307816 0.839322
vt 0.144806 0.160610
vt 0.432196 0.634729
vt 0.423201 0.439604
vt 0.629707 0.259646
vt 0.638628 0.064594
vt 0.456814 0.324374
vt 0.663300 0.374875
vt 0.460087 0.036114
vt 0.666451 0.663342
vt 0.639292 0.161940
vt 0.432686 0.537342
vt 0.639309 0.000714
vt 0.433054 0.699195
vt 0.906832 0.741344
vt 0.460701 0.000601
vt 0.495110 0.000806
vt 0.872677 0.762858
vt 0.291624 0.679552
vt 0.872677 0.823277
vt 0.232007 0.689362
vt 0.838886 0.000026
vt 0.957256 0.823277
vt 0.778467 0.000053
vt 0.616762 0.699597
vt 0.957256 0.883695
vt 0.667012 0.698953
vt 0.906832 0.900245
vt 0.872677 0.883695
vt 0.701338 0.698803
vt 0.172390 0.699173
vt 0.899305 0.000000
vt 0.957256 0.762858
vt 0.410536 0.000000
vt 0.906832 0.823277
vt 0.806707 0.698859
vt 0.414792 0.823374
vt 0.885955 0.705579
vt 0.448440 0.745101
vt 0.458306 0.699920
vt 0.664690 0.914139
vt 0.966842 0.639416
vt 0.966706 0.534941
vt 0.654762 0.868490
vt 0.906956 0.487019
vt 0.621249 0.790028
vt 0.664690 0.722862
vt 0.872677 0.930124
vt 0.834866 0.472557
vt 0.866856 0.835734
vt 0.749286 0.536489
vt 0.872677 0.741344
vt 0.458306 0.890729
vt 0.754115 0.643195
vt 0.137935 0.932323
vt 0.313644 0.765197
vt 0.514631 0.891710
vt 0.217963 0.865565
vt 0.308236 0.722292
vt 0.217963 0.761344
vt 0.519975 0.848344
vt 0.159063 0.714137
vt 0.514281 0.774040
vt 0.715292 0.930124
vt 0.085071 0.699173
vt 0.509036 0.699597
vt 0.715848 0.835734
vt 0.000000 0.763571
vt 0.302641 0.913935
vt 0.715292 0.741344
vt 0.005042 0.870151
vt 0.111503 0.815748
s 0
f 22/45/1 40/74/1 48/82/1
f 40/74/2 9/17/2 43/77/2
f 24/48/3 42/76/3 47/81/3
f 30/59/4 39/73/4 49/84/4
f 38/72/5 5/10/5 29/57/5
f 8/16/6 26/51/6 24/48/6
f 32/62/7 16/32/7 34/64/7
f 7/13/8 44/78/8 41/75/8
f 3/4/9 31/61/9 27/53/9
f 28/55/10 12/23/10 32/62/10
f 14/27/11 50/86/11 51/87/11
f 9/17/12 45/79/12 43/77/12
f 11/21/13 46/80/13 44/78/13
f 31/61/14 14/28/14 33/63/14
f 25/49/15 60/108/15 18/37/15
f 2/3/16 25/50/16 22/45/16
f 6/11/17 36/67/17 30/60/17
f 28/54/18 18/36/18 35/65/18
f 4/8/19 25/50/19 18/35/19
f 26/52/20 64/119/20 20/42/20
f 6/11/21 26/51/21 20/41/21
f 7/12/22 38/72/22 27/53/22
f 41/75/23 24/48/23 47/81/23
f 39/73/16 22/45/16 48/82/16
f 3/4/24 38/72/24 21/43/24
f 26/52/25 62/113/25 63/115/25
f 28/54/26 19/40/26 8/14/26
f 2/3/27 36/68/27 17/33/27
f 18/37/28 61/112/28 35/66/28
f 31/61/14 15/29/14 11/22/14
f 34/64/29 54/94/29 53/92/29
f 28/55/30 9/18/30 4/6/30
f 27/53/9 11/22/9 7/12/9
f 32/62/7 13/25/7 9/18/7
f 38/72/31 1/1/31 21/43/31
f 6/11/32 49/83/32 42/76/32
f 42/76/32 29/58/32 5/9/32
f 34/64/29 57/102/29 13/25/29
f 39/73/16 21/44/16 1/2/16
f 7/13/6 47/81/6 23/47/6
f 12/24/33 46/80/33 16/31/33
f 10/20/34 45/79/34 14/27/34
f 46/80/35 54/95/35 16/31/35
f 41/75/36 12/24/36 8/16/36
f 49/84/4 1/2/4 29/56/4
f 23/47/3 42/76/3 5/9/3
f 3/5/37 43/77/37 10/20/37
f 48/82/38 3/5/38 21/44/38
f 58/105/39 54/96/39 55/98/39
f 57/103/39 58/105/39 50/85/39
f 51/88/39 58/105/39 52/90/39
f 58/105/39 56/99/39 52/90/39
f 13/26/40 50/86/40 45/79/40
f 46/80/41 56/100/41 55/97/41
f 33/63/42 56/101/42 15/29/42
f 33/63/42 51/89/42 52/91/42
f 59/107/43 73/139/43 37/71/43
f 65/120/44 71/134/44 72/137/44
f 62/114/45 68/127/45 69/131/45
f 65/120/46 73/140/46 66/122/46
f 20/42/47 65/121/47 36/69/47
f 17/34/48 65/121/48 66/124/48
f 17/34/49 59/106/49 25/49/49
f 35/66/50 62/113/50 19/39/50
f 74/142/51 73/141/51 72/138/51
f 67/125/52 74/142/52 68/128/52
f 69/130/53 74/142/53 70/132/53
f 74/142/53 71/135/53 70/132/53
f 63/116/54 71/136/54 64/117/54
f 59/107/55 67/126/55 60/109/55
f 60/109/56 68/129/56 61/110/56
f 63/116/57 69/131/57 70/133/57
f 22/45/58 4/8/58 40/74/58
f 40/74/59 4/8/59 9/17/59
f 24/48/3 6/11/3 42/76/3
f 30/59/4 2/3/4 39/73/4
f 38/72/60 23/46/60 5/10/60
f 8/16/61 19/38/61 26/51/61
f 32/62/7 12/23/7 16/32/7
f 7/13/62 11/21/62 44/78/62
f 3/4/9 10/19/9 31/61/9
f 28/55/63 8/15/63 12/23/63
f 14/27/64 45/79/64 50/86/64
f 9/17/12 13/26/12 45/79/12
f 11/21/13 15/30/13 46/80/13
f 31/61/14 10/19/14 14/28/14
f 25/49/65 59/106/65 60/108/65
f 2/3/66 17/33/66 25/50/66
f 6/11/67 20/41/67 36/67/67
f 28/54/68 4/7/68 18/36/68
f 4/8/38 22/45/38 25/50/38
f 26/52/69 63/115/69 64/119/69
f 6/11/3 24/48/3 26/51/3
f 7/12/70 23/46/70 38/72/70
f 41/75/71 8/16/71 24/48/71
f 39/73/16 2/3/16 22/45/16
f 3/4/22 27/53/22 38/72/22
f 26/52/72 19/39/72 62/113/72
f 28/54/73 35/65/73 19/40/73
f 2/3/74 30/59/74 36/68/74
f 18/37/75 60/108/75 61/112/75
f 31/61/14 33/63/14 15/29/14
f 34/64/29 16/32/29 54/94/29
f 28/55/10 32/62/10 9/18/10
f 27/53/9 31/61/9 11/22/9
f 32/62/7 34/64/7 13/25/7
f 38/72/76 29/57/76 1/1/76
f 6/11/32 30/60/32 49/83/32
f 42/76/32 49/83/32 29/58/32
f 34/64/29 53/92/29 57/102/29
f 39/73/16 48/82/16 21/44/16
f 7/13/77 41/75/77 47/81/77
f 12/24/33 44/78/33 46/80/33
f 10/20/34 43/77/34 45/79/34
f 46/80/35 55/97/35 54/95/35
f 41/75/78 44/78/78 12/24/78
f 49/84/4 39/73/4 1/2/4
f 23/47/3 47/81/3 42/76/3
f 3/5/79 40/74/79 43/77/79
f 48/82/80 40/74/80 3/5/80
f 58/105/39 53/93/39 54/96/39
f 57/103/39 53/93/39 58/105/39
f 51/88/39 50/85/39 58/105/39
f 58/105/39 55/98/39 56/99/39
f 13/26/40 57/104/40 50/86/40
f 46/80/81 15/30/81 56/100/81
f 33/63/42 52/91/42 56/101/42
f 33/63/42 14/28/42 51/89/42
f 59/107/43 66/123/43 73/139/43
f 65/120/44 64/118/44 71/134/44
f 62/114/45 61/111/45 68/127/45
f 65/120/46 72/137/46 73/140/46
f 20/42/82 64/119/82 65/121/82
f 17/34/83 36/69/83 65/121/83
f 17/34/84 66/124/84 59/106/84
f 35/66/85 61/112/85 62/113/85
f 74/142/53 37/70/53 73/141/53
f 67/125/53 37/70/53 74/142/53
f 69/130/86 68/128/86 74/142/86
f 74/142/87 72/138/87 71/135/87
f 63/116/54 70/133/54 71/136/54
f 59/107/55 37/71/55 67/126/55
f 60/109/56 67/126/56 68/129/56
f 63/116/57 62/114/57 69/131/57
