# Blender 3.3.0
# www.blender.org
mtllib vase.mtl
o Cylinder.010
v 0.104225 -0.142070 -0.112844
v 0.104225 -0.044911 -0.184712
v 0.209293 -0.142070 -0.069324
v 0.260110 -0.044911 -0.120142
v 0.252813 -0.142070 0.035744
v 0.324681 -0.044911 0.035744
v 0.209293 -0.142070 0.140812
v 0.260110 -0.044911 0.191630
v 0.104225 -0.142070 0.184332
v 0.104225 -0.044911 0.256200
v -0.000843 -0.142070 0.140812
v -0.051661 -0.044911 0.191630
v -0.044364 -0.142070 0.035744
v -0.116231 -0.044911 0.035744
v -0.000843 -0.142070 -0.069324
v -0.051661 -0.044911 -0.120142
v 0.260110 0.218632 -0.120142
v 0.104225 0.218632 -0.184712
v 0.324681 0.218632 0.035744
v 0.260110 0.218632 0.191630
v 0.104225 0.218632 0.256200
v -0.051661 0.218632 0.191630
v -0.116231 0.218632 0.035744
v -0.051661 0.218632 -0.120142
v 0.184386 0.366665 -0.044417
v 0.104225 0.366665 -0.077621
v 0.217590 0.366665 0.035744
v 0.184386 0.366665 0.115905
v 0.104225 0.366665 0.149109
v 0.024064 0.366665 0.115905
v -0.009140 0.366665 0.035744
v 0.024064 0.366665 -0.044417
v 0.154855 0.474359 -0.014886
v 0.104225 0.474359 -0.035857
v 0.175826 0.474359 0.035744
v 0.154855 0.474359 0.086374
v 0.104225 0.474359 0.107346
v 0.053595 0.474359 0.086374
v 0.032623 0.474359 0.035744
v 0.053595 0.474359 -0.014886
v 0.154855 0.607279 -0.014886
v 0.104225 0.607279 -0.035857
v 0.175826 0.607279 0.035744
v 0.154855 0.607279 0.086374
v 0.104225 0.607279 0.107346
v 0.053595 0.607279 0.086374
v 0.032623 0.607279 0.035744
v 0.053595 0.607279 -0.014886
v 0.171830 0.680319 -0.031861
v 0.104225 0.680319 -0.059864
v 0.199833 0.680319 0.035744
v 0.171830 0.680319 0.103349
v 0.104225 0.680319 0.131352
v 0.036620 0.680319 0.103349
v 0.008616 0.680319 0.035744
v 0.036620 0.680319 -0.031861
vn -0.0000 -0.9530 -0.3029
vn -0.0000 -0.3341 -0.9426
vn 0.6665 -0.3341 -0.6665
vn 0.2142 -0.9530 -0.2142
vn 0.9425 -0.3341 -0.0000
vn 0.3029 -0.9530 -0.0000
vn 0.6665 -0.3341 0.6665
vn 0.2142 -0.9530 0.2142
vn -0.0000 -0.3341 0.9426
vn -0.0000 -0.9530 0.3029
vn -0.6665 -0.3341 0.6665
vn -0.2142 -0.9530 0.2142
vn -0.9426 -0.3341 -0.0000
vn -0.3029 -0.9530 -0.0000
vn 0.6680 0.3279 0.6680
vn -0.0000 0.3279 0.9447
vn -0.6665 -0.3341 -0.6665
vn -0.2142 -0.9530 -0.2142
vn 0.6680 0.3279 -0.6680
vn -0.0000 0.3279 -0.9447
vn -0.0000 0.4895 -0.8720
vn 0.6166 0.4895 -0.6166
vn -0.9447 0.3279 -0.0000
vn -0.6680 0.3279 -0.6680
vn 0.9447 0.3279 -0.0000
vn -0.6680 0.3279 0.6680
vn -0.6166 0.4895 -0.6166
vn -0.8720 0.4895 -0.0000
vn -0.9813 0.1925 -0.0000
vn -0.6939 0.1925 -0.6939
vn -0.6166 0.4895 0.6166
vn 0.6166 0.4895 0.6166
vn -0.0000 0.4895 0.8720
vn 0.8720 0.4895 -0.0000
vn 0.9813 0.1925 -0.0000
vn 0.6939 0.1925 -0.6939
vn 0.6976 -0.1638 -0.6976
vn 0.9865 -0.1638 -0.0000
vn -0.0000 0.1925 0.9813
vn -0.6939 0.1925 0.6939
vn 0.6939 0.1925 0.6939
vn -0.0000 0.1925 -0.9813
vn -0.0000 -0.1638 -0.9865
vn -0.6976 -0.1638 -0.6976
vn -0.2890 0.9127 -0.2890
vn -0.0000 0.9127 -0.4087
vn -0.9865 -0.1638 -0.0000
vn -0.0000 -0.1638 0.9865
vn -0.6976 -0.1638 0.6976
vn 0.6976 -0.1638 0.6976
vn 0.2890 0.9127 -0.2890
vn -0.4087 0.9127 -0.0000
vn -0.2890 0.9127 0.2890
vn -0.0000 0.9127 0.4087
vn 0.2890 0.9127 0.2890
vn 0.4087 0.9127 -0.0000
vt 1.000000 0.500000
vt 0.000000 0.500000
vt 0.750000 0.490000
vt 0.000000 1.000000
vt 1.000000 1.000000
vt 0.875000 0.500000
vt 0.919706 0.419706
vt 0.875000 1.000000
vt 0.750000 0.500000
vt 0.990000 0.250000
vt 0.750000 1.000000
vt 0.625000 0.500000
vt 0.919706 0.080294
vt 0.625000 1.000000
vt 0.500000 0.500000
vt 0.750000 0.010000
vt 0.500000 1.000000
vt 0.375000 0.500000
vt 0.580294 0.080294
vt 0.375000 1.000000
vt 0.250000 0.500000
vt 0.510000 0.250000
vt 0.250000 1.000000
vt 0.125000 0.500000
vt 0.580294 0.419706
vt 0.125000 1.000000
vt 0.875000 1.000000
vt 1.000000 1.000000
vt 0.000000 1.000000
vt 0.750000 1.000000
vt 0.625000 1.000000
vt 0.500000 1.000000
vt 0.375000 1.000000
vt 0.250000 1.000000
vt 0.125000 1.000000
vt 0.875000 1.000000
vt 1.000000 1.000000
vt 0.000000 1.000000
vt 0.750000 1.000000
vt 0.625000 1.000000
vt 0.500000 1.000000
vt 0.375000 1.000000
vt 0.250000 1.000000
vt 0.125000 1.000000
vt 0.875000 1.000000
vt 1.000000 1.000000
vt 0.000000 1.000000
vt 0.750000 1.000000
vt 0.625000 1.000000
vt 0.500000 1.000000
vt 0.375000 1.000000
vt 0.250000 1.000000
vt 0.125000 1.000000
vt 0.875000 1.000000
vt 0.000000 1.000000
vt 1.000000 1.000000
vt 0.750000 1.000000
vt 0.625000 1.000000
vt 0.500000 1.000000
vt 0.375000 1.000000
vt 0.250000 1.000000
vt 0.125000 1.000000
vt 0.875000 1.000000
vt 0.000000 1.000000
vt 1.000000 1.000000
vt 0.750000 1.000000
vt 0.625000 1.000000
vt 0.500000 1.000000
vt 0.375000 1.000000
vt 0.250000 1.000000
vt 0.125000 1.000000
s 1
f 1/1/1 2/5/2 4/8/3 3/6/4
f 3/6/4 4/8/3 6/11/5 5/9/6
f 5/9/6 6/11/5 8/14/7 7/12/8
f 7/12/8 8/14/7 10/17/9 9/15/10
f 9/15/10 10/17/9 12/20/11 11/18/12
f 11/18/12 12/20/11 14/23/13 13/21/14
f 10/17/9 8/14/7 20/31/15 21/32/16
f 13/21/14 14/23/13 16/26/17 15/24/18
f 15/24/18 16/26/17 2/4/2 1/2/1
f 1/3/1 3/7/4 5/10/6 7/13/8 9/16/10 11/19/12 13/22/14 15/25/18
f 17/27/19 18/28/20 26/37/21 25/36/22
f 16/26/17 14/23/13 23/34/23 24/35/24
f 6/11/5 4/8/3 17/27/19 19/30/25
f 12/20/11 10/17/9 21/32/16 22/33/26
f 2/4/2 16/26/17 24/35/24 18/29/20
f 4/8/3 2/5/2 18/28/20 17/27/19
f 8/14/7 6/11/5 19/30/25 20/31/15
f 14/23/13 12/20/11 22/33/26 23/34/23
f 32/44/27 31/43/28 39/52/29 40/53/30
f 18/29/20 24/35/24 32/44/27 26/38/21
f 23/34/23 22/33/26 30/42/31 31/43/28
f 21/32/16 20/31/15 28/40/32 29/41/33
f 19/30/25 17/27/19 25/36/22 27/39/34
f 24/35/24 23/34/23 31/43/28 32/44/27
f 22/33/26 21/32/16 29/41/33 30/42/31
f 20/31/15 19/30/25 27/39/34 28/40/32
f 35/48/35 33/45/36 41/54/37 43/57/38
f 30/42/31 29/41/33 37/50/39 38/51/40
f 28/40/32 27/39/34 35/48/35 36/49/41
f 25/36/22 26/37/21 34/46/42 33/45/36
f 26/38/21 32/44/27 40/53/30 34/47/42
f 31/43/28 30/42/31 38/51/40 39/52/29
f 29/41/33 28/40/32 36/49/41 37/50/39
f 27/39/34 25/36/22 33/45/36 35/48/35
f 42/55/43 48/62/44 56/71/45 50/64/46
f 40/53/30 39/52/29 47/61/47 48/62/44
f 38/51/40 37/50/39 45/59/48 46/60/49
f 36/49/41 35/48/35 43/57/38 44/58/50
f 33/45/36 34/46/42 42/56/43 41/54/37
f 34/47/42 40/53/30 48/62/44 42/55/43
f 39/52/29 38/51/40 46/60/49 47/61/47
f 37/50/39 36/49/41 44/58/50 45/59/48
f 49/63/51 50/65/46 56/71/45 55/70/52 54/69/53 53/68/54 52/67/55 51/66/56
f 47/61/47 46/60/49 54/69/53 55/70/52
f 45/59/48 44/58/50 52/67/55 53/68/54
f 43/57/38 41/54/37 49/63/51 51/66/56
f 48/62/44 47/61/47 55/70/52 56/71/45
f 46/60/49 45/59/48 53/68/54 54/69/53
f 44/58/50 43/57/38 51/66/56 52/67/55
f 41/54/37 42/56/43 50/65/46 49/63/51
