# Blender 4.2.0
# www.blender.org
mtllib towerTopCollisions.mtl
o Cube.001_-noimp
v -58.577160 4.029358 9.277716
v -56.229939 -4.029137 8.905951
v -58.577168 4.029350 -9.277710
v -56.229946 4.029350 -8.905944
v -56.229946 4.029114 8.905953
v -56.229946 -4.029144 -8.905944
v -52.843224 4.029335 -26.924965
v -50.725758 4.029335 -25.846060
v -50.725758 -4.029160 -25.846060
v -41.936623 4.029320 -41.936611
v -40.256195 4.029320 -40.256191
v -40.256195 -4.029175 -40.256191
v -26.924969 4.029312 -52.843224
v -25.846069 4.029312 -50.725765
v -25.846069 -4.029190 -50.725765
v -9.277710 4.029297 -58.577164
v -8.905949 4.029297 -56.229939
v -8.905949 -4.029198 -56.229939
v 9.277716 4.029282 -58.577171
v 8.905950 4.029282 -56.229946
v 8.905948 -4.029213 -56.229950
v 26.924969 4.029266 -52.843227
v 25.846067 4.029266 -50.725769
v 25.846067 -4.029228 -50.725769
v 41.936623 4.029259 -41.936623
v 40.256191 4.029251 -40.256199
v 40.256207 -4.029236 -40.256199
v 52.843231 4.029251 -26.924967
v 50.725773 4.029251 -25.846069
v 50.725773 -4.029251 -25.846069
v 58.577168 4.029236 -9.277708
v 56.229946 4.029236 -8.905946
v 56.229946 -4.029259 -8.905946
v 58.577168 4.029221 9.277714
v 56.229946 4.029221 8.905948
v 56.229946 -4.029274 8.905948
v 52.843224 4.029213 26.924971
v 50.725761 4.029213 25.846071
v 50.725761 -4.029289 25.846071
v 41.936615 4.029198 41.936623
v 40.256195 4.029198 40.256191
v 40.256195 -4.029297 40.256191
v 26.924959 4.029190 52.843227
v 25.846062 4.029190 50.725765
v 25.846062 -4.029312 50.725765
v 9.277704 4.029175 58.577164
v 8.905942 4.029175 56.229942
v 8.905942 -4.029320 56.229942
v -4.574243 4.029175 58.683052
v 5.912503 4.029175 58.683052
v -9.277710 4.029167 58.577168
v -4.574246 4.029175 56.276943
v 5.912485 4.029175 56.276951
v -8.905950 4.029167 56.229946
v -4.574246 -4.029327 56.276943
v 5.912485 -4.029327 56.276951
v -8.905950 -4.029327 56.229946
v -26.924969 4.029152 52.843224
v -25.846067 4.029152 50.725769
v -25.846067 -4.029343 50.725769
v -41.936623 4.029144 41.936623
v -40.256199 4.029144 40.256203
v -40.256199 -4.029358 40.256203
v -52.843227 4.029129 26.924974
v -50.725773 4.029129 25.846077
v -50.725773 -4.029366 25.846077
v -58.577168 -3.989532 -9.277710
v -58.577168 -3.989639 9.277712
v -52.843224 -3.989540 -26.924965
v -41.936623 -3.989555 -41.936611
v -26.924969 -3.989563 -52.843224
v -9.277710 -3.989578 -58.577164
v 9.277716 -3.989594 -58.577171
v 26.924969 -3.989609 -52.843227
v 41.936623 -3.989616 -41.936623
v 52.843231 -3.989624 -26.924967
v 58.577168 -3.989639 -9.277708
v 58.577168 -3.989655 9.277714
v 52.843224 -3.989670 26.924971
v 41.936615 -3.989677 41.936623
v 26.924959 -3.989685 52.843227
v 9.277704 -3.989700 58.577164
v -9.277710 -3.989716 58.577168
v -4.574243 -3.989700 58.683052
v 5.912503 -3.989700 58.683052
v -26.924969 -3.989723 52.843224
v -41.936623 -3.989731 41.936623
v -52.843227 -3.989746 26.924974
vn -0.9877 -0.0000 0.1564
vn -0.9877 -0.0000 -0.1564
vn 0.0001 1.0000 -0.0000
vn 1.0000 -0.0000 -0.0000
vn -0.8910 -0.0000 -0.4540
vn -0.0000 1.0000 -0.0000
vn 0.9511 -0.0000 0.3090
vn -0.7071 -0.0000 -0.7071
vn 0.8090 -0.0000 0.5878
vn -0.4540 -0.0000 -0.8910
vn 0.5878 -0.0000 0.8090
vn -0.1564 -0.0000 -0.9877
vn 0.3090 -0.0000 0.9511
vn 0.1564 -0.0000 -0.9877
vn -0.0000 -0.0000 1.0000
vn 0.4540 -0.0000 -0.8910
vn -0.3090 -0.0000 0.9511
vn 0.7071 -0.0000 -0.7071
vn -0.5878 -0.0000 0.8090
vn 0.8910 -0.0000 -0.4540
vn -0.8090 -0.0000 0.5878
vn 0.9877 -0.0000 -0.1564
vn -0.9511 -0.0000 0.3090
vn 0.9877 -0.0000 0.1564
vn -1.0000 -0.0000 -0.0000
vn 0.8910 -0.0000 0.4540
vn -0.9511 -0.0000 -0.3090
vn 0.7071 -0.0000 0.7071
vn -0.8090 -0.0000 -0.5878
vn 0.4540 -0.0000 0.8910
vn -0.5878 -0.0000 -0.8090
vn 0.1719 -0.0000 0.9851
vn -0.3090 -0.0000 -0.9511
vn -0.1675 -0.0000 0.9859
vn 0.7029 -0.0000 0.7113
vn 0.6991 -0.0000 0.7150
vn -0.6997 -0.0000 0.7144
vn -0.6959 -0.0000 0.7181
vn -0.0157 -0.0000 -0.9999
vn 0.0108 -0.0000 -0.9999
vn -0.4540 -0.0000 0.8910
vn 0.3090 -0.0000 -0.9511
vn -0.7071 -0.0000 0.7071
vn 0.5878 -0.0000 -0.8090
vn -0.8910 -0.0000 0.4540
vn 0.8090 -0.0000 -0.5878
vn 0.9511 -0.0000 -0.3090
vn -0.0003 -0.9999 0.0166
vn -0.0052 -0.9999 0.0160
vn -0.0099 -0.9999 0.0137
vn -0.0137 -0.9999 0.0099
vn -0.0160 -0.9999 0.0052
vn -0.0168 -0.9999 -0.0000
vn -0.0160 -0.9999 -0.0052
vn -0.0137 -0.9999 -0.0099
vn -0.0099 -0.9999 -0.0137
vn -0.0052 -0.9999 -0.0161
vn -0.0000 -0.9999 -0.0169
vn 0.0052 -0.9999 -0.0161
vn 0.0099 -0.9999 -0.0137
vn 0.0137 -0.9999 -0.0099
vn 0.0161 -0.9999 -0.0052
vn 0.0169 -0.9999 -0.0000
vn 0.0161 -0.9999 0.0052
vn 0.0137 -0.9999 0.0099
vn 0.0099 -0.9999 0.0137
vn 0.0052 -0.9999 0.0161
vn 0.0004 -0.9999 0.0166
vt 0.000000 0.000000
vt 1.000000 0.125000
vt 1.000000 0.000000
vt 1.000000 1.000000
s 1
f 68/1/1 1/1/1 3/1/2 67/1/2
s 0
f 1/1/3 5/1/3 4/1/3 3/1/3
f 5/1/4 2/1/4 6/1/4 4/1/4
s 1
f 69/2/5 67/3/2 3/3/2 7/2/5
s 0
f 7/2/6 3/3/6 4/3/6 8/2/6
f 8/2/7 4/3/7 6/3/7 9/2/7
s 1
f 70/2/8 69/3/5 7/3/5 10/2/8
s 0
f 10/2/6 7/3/6 8/3/6 11/2/6
f 11/2/9 8/3/9 9/3/9 12/2/9
s 1
f 71/2/10 70/3/8 10/3/8 13/2/10
s 0
f 13/2/6 10/3/6 11/3/6 14/2/6
f 14/2/11 11/3/11 12/3/11 15/2/11
s 1
f 72/2/12 71/3/10 13/3/10 16/2/12
s 0
f 16/2/6 13/3/6 14/3/6 17/2/6
f 17/2/13 14/3/13 15/3/13 18/2/13
s 1
f 73/2/14 72/3/12 16/3/12 19/2/14
s 0
f 19/2/6 16/3/6 17/3/6 20/2/6
f 20/2/15 17/3/15 18/3/15 21/2/15
s 1
f 74/2/16 73/3/14 19/3/14 22/2/16
s 0
f 22/2/6 19/3/6 20/3/6 23/2/6
f 23/2/17 20/3/17 21/3/17 24/2/17
s 1
f 75/2/18 74/3/16 22/3/16 25/2/18
s 0
f 25/2/6 22/3/6 23/3/6 26/2/6
f 26/2/19 23/3/19 24/3/19 27/2/19
s 1
f 76/2/20 75/3/18 25/3/18 28/2/20
s 0
f 28/2/6 25/3/6 26/3/6 29/2/6
f 29/2/21 26/3/21 27/3/21 30/2/21
s 1
f 77/2/22 76/3/20 28/3/20 31/2/22
s 0
f 31/2/6 28/3/6 29/3/6 32/2/6
f 32/2/23 29/3/23 30/3/23 33/2/23
s 1
f 78/2/24 77/3/22 31/3/22 34/2/24
s 0
f 34/2/6 31/3/6 32/3/6 35/2/6
f 35/2/25 32/3/25 33/3/25 36/2/25
s 1
f 79/2/26 78/3/24 34/3/24 37/2/26
s 0
f 37/2/6 34/3/6 35/3/6 38/2/6
f 38/2/27 35/3/27 36/3/27 39/2/27
s 1
f 80/2/28 79/3/26 37/3/26 40/2/28
s 0
f 40/2/6 37/3/6 38/3/6 41/2/6
f 41/2/29 38/3/29 39/3/29 42/2/29
s 1
f 81/2/30 80/3/28 40/3/28 43/2/30
s 0
f 43/2/6 40/3/6 41/3/6 44/2/6
f 44/2/31 41/3/31 42/3/31 45/2/31
s 1
f 82/2/32 81/3/30 43/3/30 46/2/32
s 0
f 46/2/6 43/3/6 44/3/6 47/2/6
f 47/2/33 44/3/33 45/3/33 48/2/33
s 1
f 83/1/34 84/1/35 49/1/36 51/1/34
f 85/2/37 82/3/32 46/3/32 50/2/38
s 0
f 50/2/6 46/3/6 47/3/6 53/2/6
f 51/1/6 49/1/6 52/1/6 54/1/6
f 53/2/39 47/3/39 48/3/39 56/2/39
f 54/1/40 52/1/40 55/1/40 57/1/40
s 1
f 86/2/41 83/3/34 51/3/34 58/2/41
s 0
f 58/2/6 51/3/6 54/3/6 59/2/6
f 59/2/42 54/3/42 57/3/42 60/2/42
s 1
f 87/2/43 86/3/41 58/3/41 61/2/43
s 0
f 61/2/6 58/3/6 59/3/6 62/2/6
f 62/2/44 59/3/44 60/3/44 63/2/44
s 1
f 88/2/45 87/3/43 61/3/43 64/2/45
s 0
f 64/2/6 61/3/6 62/3/6 65/2/6
f 65/2/46 62/3/46 63/3/46 66/2/46
s 1
f 68/2/1 88/3/45 64/3/45 1/2/1
s 0
f 1/2/3 64/3/3 65/3/3 5/2/3
f 5/2/47 65/3/47 66/3/47 2/2/47
s 1
f 49/1/36 84/1/35 55/1/4 52/1/4
f 85/1/37 50/1/38 53/1/25 56/1/25
s 0
f 83/1/48 57/1/48 55/1/48 84/1/48
f 60/2/49 57/4/49 83/3/49 86/2/49
f 63/2/50 60/4/50 86/3/50 87/2/50
f 66/2/51 63/4/51 87/3/51 88/2/51
f 2/2/52 66/4/52 88/3/52 68/2/52
f 6/1/53 2/2/53 68/1/53 67/1/53
f 9/2/54 6/4/54 67/3/54 69/2/54
f 12/2/55 9/4/55 69/3/55 70/2/55
f 15/2/56 12/4/56 70/3/56 71/2/56
f 18/2/57 15/4/57 71/3/57 72/2/57
f 21/2/58 18/4/58 72/3/58 73/2/58
f 24/2/59 21/4/59 73/3/59 74/2/59
f 27/2/60 24/4/60 74/3/60 75/2/60
f 30/2/61 27/4/61 75/3/61 76/2/61
f 33/2/62 30/4/62 76/3/62 77/2/62
f 36/2/63 33/4/63 77/3/63 78/2/63
f 39/2/64 36/4/64 78/3/64 79/2/64
f 42/2/65 39/4/65 79/3/65 80/2/65
f 45/2/66 42/4/66 80/3/66 81/2/66
f 48/2/67 45/4/67 81/3/67 82/2/67
f 56/2/68 48/4/68 82/3/68 85/2/68
