# Blender 3.3.0
# www.blender.org
mtllib armLowPolyA.mtl
o Human_BaseMesh.002
v 53.117180 35.448090 -1.693266
v 53.040436 35.244965 1.105421
v 50.906898 32.822998 -0.424863
v 50.975609 33.424576 -3.106596
v 52.729885 33.103149 -5.048352
v 54.348999 34.741531 -3.937538
v 54.888855 31.901154 -5.358791
v 56.032539 33.484680 -4.965644
v 55.808540 30.789597 -4.608439
v 57.226978 32.350845 -4.604496
v 57.999214 31.774490 -2.727617
v 55.837029 30.070618 -3.121830
v 57.790882 30.578934 4.475934
v 55.300179 29.481308 -0.234122
v 52.835995 30.947922 1.813053
v 55.656849 31.904984 5.288470
v 55.010632 38.232849 2.462123
v 55.577370 38.192947 -0.589069
v 58.023651 40.501770 0.672730
v 57.151665 40.520905 3.841200
v 56.755585 37.447220 -3.257462
v 58.270683 36.128235 -4.645630
v 60.285675 38.318192 -3.818840
v 59.498947 39.482056 -2.166992
v 59.607147 34.850754 -4.116093
v 61.387924 37.211578 -3.347095
v 59.914093 34.567368 -2.096574
v 61.169968 38.167740 -1.291504
v 58.822990 34.798355 0.406542
v 59.797081 39.127640 1.246446
v 66.674255 42.748611 5.292952
v 66.602409 42.300751 6.508700
v 66.444672 43.351654 7.160277
v 66.572182 43.791840 5.908718
v 53.812275 34.391907 3.585217
v 56.018135 34.251709 4.864428
v 60.552124 37.185654 7.360947
v 60.389671 36.780548 8.557966
v 58.965034 37.059799 8.103315
v 59.174175 37.373260 7.055041
v 58.562664 31.673416 0.101152
v 58.536724 33.053024 3.405940
v 67.139023 41.962753 2.319987
v 66.553925 41.081619 1.927012
v 66.189392 41.254959 3.280463
v 66.683510 42.328461 3.427924
v 55.103821 36.872284 4.783393
v 56.622322 39.271027 6.021011
v 62.834412 45.277771 9.668907
v 61.945984 45.006119 10.353468
v 61.455715 45.355591 9.543531
v 62.217873 45.566788 8.998619
v 65.207062 38.965439 -0.052211
v 65.469482 39.723816 0.105857
v 66.132042 39.464096 -0.735874
v 65.660591 38.549469 -1.048219
v 60.790775 42.298859 3.195979
v 60.452324 41.990479 4.938034
v 61.471916 41.124405 2.968402
v 61.411190 40.813034 4.840836
v 59.142609 39.115005 4.257731
v 61.544525 40.727661 1.399868
v 62.219284 40.704590 -0.244483
v 61.277550 42.170547 1.144191
v 61.905083 41.829224 -0.330914
v 58.928185 42.562454 6.214486
v 58.859901 42.033386 7.714674
v 59.987480 41.594376 6.170654
v 59.690178 41.091507 7.502651
v 58.113747 38.141510 6.196275
v 62.861717 38.861832 -2.724934
v 62.402847 39.784302 -3.050339
v 62.404564 39.182816 -1.479660
v 61.888878 40.099548 -1.946171
v 63.664780 43.205963 6.458914
v 63.820099 43.676224 4.864544
v 64.397903 42.516754 4.500650
v 64.377869 41.924927 6.029756
v 64.090126 41.626526 2.292628
v 64.365303 41.569504 0.828629
v 64.426544 42.962631 2.415998
v 64.747719 42.641937 1.047313
v 61.669907 44.159973 7.595413
v 60.870441 43.786621 8.498674
v 62.174881 43.303101 7.574236
v 61.810730 42.821457 8.888691
v 64.321709 38.895187 -1.944206
v 64.245613 39.990112 -2.112923
v 63.884201 39.254684 -0.785359
v 63.796883 40.281830 -0.994858
v 49.950535 29.549911 -1.650467
v 49.110687 31.165863 -3.029587
v 49.839378 31.867004 -5.183509
v 51.985561 30.999802 -6.704171
v 54.089661 29.475540 -6.547208
v 54.626926 28.271881 -5.220265
v 53.611275 27.842545 -3.771907
v 51.742214 28.264450 -2.473058
v 60.449142 35.170761 5.707970
v 58.435276 35.728546 5.775459
v 60.152725 34.473984 7.123782
v 58.310280 35.133636 7.041153
v 56.518841 35.667603 5.343614
v 57.976295 35.233521 3.191839
v 22.982496 11.760178 -8.254082
v 23.759888 10.469650 -5.078159
v 19.540102 8.154541 -0.580018
v 15.655745 9.783188 -5.293672
v 22.527464 10.506409 -12.856528
v 14.641435 7.733093 -11.879406
v 23.865294 6.446838 -14.808269
v 17.570143 3.165314 -14.527560
v 25.539108 3.261932 -12.791344
v 21.134880 -0.114075 -12.086919
v 25.350883 2.312485 -8.625675
v 23.251474 -0.402145 -7.967012
v 24.564487 4.316269 -5.080841
v 22.153923 1.704514 -3.190551
v 23.964235 7.675552 -3.696815
v 21.612770 4.292938 -0.898153
v 35.380093 16.382767 -8.964458
v 29.745106 13.870728 -6.508499
v 29.141071 14.467270 -10.007164
v 34.744431 16.858185 -11.785709
v 34.405949 14.941513 -14.196057
v 29.265289 12.873260 -13.191153
v 35.124645 12.399521 -15.762744
v 29.894234 9.618744 -15.612294
v 31.057400 7.089752 -13.308036
v 35.704136 10.366791 -14.512242
v 30.727253 6.098953 -10.498515
v 36.847889 9.746399 -12.346101
v 30.526119 8.004074 -7.157840
v 36.960766 11.916840 -9.621601
v 36.535316 13.736130 -8.619669
v 30.135822 10.856186 -5.664822
v 43.414810 22.882080 -6.702103
v 40.654503 19.527405 -8.725901
v 39.766876 21.224609 -11.096714
v 42.766937 24.598877 -8.974396
v 43.483887 24.883057 -11.865456
v 40.484592 21.325378 -14.270925
v 45.988281 22.724884 -13.637199
v 42.674458 18.619080 -16.421986
v 44.495274 16.034515 -15.676460
v 48.127159 20.152603 -12.884719
v 45.110973 15.005859 -12.271901
v 48.574532 18.771454 -10.070503
v 43.991467 16.056076 -9.056360
v 46.889965 19.796448 -7.488305
v 42.695408 17.714264 -8.288664
v 45.496780 20.986877 -7.013695
v 46.864063 26.798904 -4.472260
v 46.528992 28.157623 -6.348969
v 47.019100 28.611191 -8.466605
v 49.197670 27.278015 -9.908386
v 51.244278 25.364105 -9.465294
v 51.751511 24.128586 -7.568970
v 50.300323 24.607254 -5.670700
v 48.720123 25.322861 -4.730148
v 38.095795 17.051636 -10.793205
v 37.319778 17.705933 -12.416479
v 37.678944 17.565872 -15.369969
v 38.315865 14.577469 -16.817093
v 39.599621 12.200424 -16.426426
v 41.561192 11.973663 -13.549335
v 41.181889 13.391174 -10.424213
v 39.642979 15.196655 -9.628811
vn -0.6278 0.7474 -0.2177
vn -0.8532 0.3507 0.3861
vn -0.8561 0.4549 0.2454
vn -0.6649 0.7100 -0.2322
vn -0.2368 0.8013 -0.5494
vn 0.0539 0.4195 -0.9062
vn 0.0169 0.2690 -0.9630
vn -0.4116 0.6442 -0.6447
vn 0.7807 -0.3695 -0.5040
vn 0.8230 -0.3657 0.4347
vn 0.8920 -0.4450 0.0795
vn 0.6773 -0.3281 -0.6585
vn 0.9406 -0.2266 0.2527
vn 0.8680 -0.3256 0.3749
vn 0.8616 -0.5072 0.0200
vn 0.8853 -0.1960 0.4217
vn 0.9817 -0.1610 -0.1019
vn -0.3478 0.8933 -0.2846
vn -0.5616 0.4419 0.6996
vn 0.4793 0.1881 0.8573
vn 0.7160 0.6843 -0.1378
vn -0.6060 -0.4609 0.6484
vn 0.2708 -0.9292 0.2514
vn 0.3510 -0.8496 0.3937
vn -0.4845 -0.4018 0.7770
vn -0.6250 0.7217 -0.2974
vn -0.8017 0.5931 0.0748
vn -0.6176 0.7861 0.0233
vn -0.4262 0.8694 -0.2498
vn 0.5103 -0.8310 -0.2215
vn 0.9741 0.2201 -0.0525
vn 0.3329 0.4582 0.8242
vn -0.0286 -0.5990 0.8002
vn -0.4990 0.5039 0.7051
vn -0.0711 0.8540 -0.5155
vn 0.3587 -0.4724 0.8051
vn 0.3263 -0.6281 0.7064
vn -0.6653 0.2968 0.6851
vn -0.7116 0.2021 0.6729
vn 0.0745 0.6525 -0.7542
vn 0.7487 -0.4484 -0.4883
vn 0.6157 -0.5544 0.5599
vn -0.6311 -0.0691 0.7726
vn 0.6995 -0.2691 -0.6621
vn 0.2237 -0.7639 0.6053
vn 0.8412 -0.4282 0.3303
vn -0.0432 0.9167 -0.3973
vn 0.4654 -0.2834 -0.8385
vn 0.1353 -0.4290 0.8931
vn -0.4428 0.8060 0.3928
vn -0.2799 -0.6108 0.7406
vn 0.4187 -0.6228 -0.6609
vn -0.1853 0.8407 0.5088
vn 0.3073 0.6832 -0.6624
vn 0.1279 0.9188 -0.3735
vn 0.8763 0.4368 0.2032
vn 0.8457 -0.2139 -0.4890
vn 0.0658 0.6914 -0.7195
vn 0.9595 0.1950 -0.2031
vn 0.5130 -0.7488 -0.4196
vn 0.5738 -0.6212 -0.5337
vn 0.1684 0.5683 -0.8054
vn 0.4368 0.6118 -0.6595
vn 0.2833 -0.7909 -0.5424
vn 0.0735 -0.6800 0.7295
vn -0.1732 0.8559 0.4872
vn -0.8279 0.3548 0.4345
vn 0.3153 -0.6834 0.6585
vn 0.1035 0.1300 0.9861
vn -0.7200 0.6234 0.3048
vn 0.1503 -0.2725 0.9504
vn -0.4509 0.2658 0.8521
vn -0.7317 0.1702 0.6601
vn -0.7750 0.1137 0.6217
vn 0.7992 -0.1128 -0.5904
vn -0.3358 0.7025 -0.6275
vn -0.9228 0.1932 -0.3334
vn -0.8565 0.4064 0.3181
vn -0.3221 0.9459 0.0391
vn -0.0241 -0.0482 -0.9985
vn -0.6045 -0.4247 -0.6740
vn 0.4796 -0.8744 0.0732
vn 0.5824 -0.8044 0.1177
vn 0.3735 -0.7266 -0.5766
vn 0.2432 -0.7321 -0.6363
vn 0.4226 -0.6865 -0.5917
vn -0.1825 -0.9270 -0.3278
vn -0.0410 -0.0435 -0.9982
vn -0.3734 0.6781 -0.6331
vn 0.6466 0.0996 -0.7563
vn 0.1002 0.5912 -0.8003
vn -0.1572 0.6617 -0.7331
vn 0.3383 0.1991 -0.9197
vn -0.3977 0.9157 -0.0572
vn -0.0745 0.7006 0.7096
vn 0.0164 0.7490 0.6623
vn -0.3911 0.9177 -0.0699
vn 0.5422 0.0685 0.8375
vn 0.0564 -0.4737 0.8789
vn 0.0467 -0.7577 0.6510
vn 0.7051 -0.4129 0.5765
vn -0.4748 0.6047 -0.6394
vn 0.2454 -0.5975 -0.7634
vn 0.5449 -0.8382 -0.0221
vn -0.0722 -0.3748 0.9243
vn -0.1755 -0.3026 0.9368
vn 0.2795 -0.6169 0.7358
vn 0.3157 -0.5645 0.7627
vn -0.2274 -0.0436 -0.9728
vn 0.3722 0.0241 0.9279
vn 0.0252 -0.1170 0.9928
vn -0.3689 0.5387 0.7574
vn -0.0030 0.7364 0.6766
vn 0.3394 0.0099 0.9406
vn -0.8137 0.5484 0.1929
vn -0.6140 0.0936 0.7837
vn -0.5686 0.0460 0.8213
vn -0.7801 0.5863 0.2184
vn 0.4800 -0.5340 0.6961
vn 0.5484 -0.5110 0.6619
vn 0.0560 -0.7772 0.6267
vn -0.0096 -0.5282 0.8491
vn 0.3710 -0.6459 0.6672
vn 0.5162 -0.7760 0.3624
vn 0.7244 -0.4138 -0.5513
vn 0.8550 -0.4923 -0.1633
vn 0.7272 0.0094 -0.6864
vn 0.2149 0.5297 -0.8205
vn -0.4892 0.6626 -0.5672
vn -0.4116 0.7616 -0.5006
vn 0.7513 -0.1342 -0.6462
vn 0.2562 0.4378 -0.8618
vn 0.6450 -0.7617 -0.0614
vn -0.1898 0.0452 -0.9808
vn 0.1177 0.2702 -0.9556
vn 0.5935 -0.3172 -0.7397
vn 0.6928 -0.7105 0.1234
vn 0.1471 -0.9553 0.2566
vn 0.6932 -0.7201 0.0309
vn 0.7856 -0.6092 0.1080
vn 0.3573 -0.6416 0.6787
vn -0.5163 0.7736 -0.3675
vn -0.4280 0.7907 -0.4377
vn -0.5894 -0.0518 0.8062
vn -0.7951 0.5619 0.2283
vn 0.8301 -0.5555 0.0483
vn -0.3215 0.2092 0.9235
vn -0.2816 0.9181 0.2789
vn -0.5925 -0.3160 0.7410
vn -0.8461 0.4418 0.2982
vn -0.6300 0.7742 0.0607
vn -0.3317 0.8127 -0.4791
vn 0.6027 0.7817 -0.1601
vn -0.3697 0.4321 0.8226
vn 0.4044 0.3386 0.8496
vn -0.0621 -0.3644 0.9292
vn 0.5444 -0.3926 -0.7413
vn 0.0642 0.1792 -0.9817
vn -0.5351 0.5565 -0.6356
vn -0.3539 0.6138 -0.7056
vn -0.4623 0.7761 -0.4288
vn 0.8038 0.1607 -0.5728
vn 0.0708 -0.8895 0.4514
vn 0.7350 -0.2464 -0.6317
vn 0.6147 -0.6858 0.3897
vn 0.5049 0.4218 0.7531
vn 0.7505 -0.6315 -0.1950
vn -0.4607 -0.5142 0.7234
vt 0.802768 0.707642
vt 0.785553 0.703590
vt 0.789468 0.725100
vt 0.706089 0.702142
vt 0.803847 0.727800
vt 0.700296 0.716874
vt 0.698682 0.732328
vt 0.818339 0.726627
vt 0.819146 0.710066
vt 0.699538 0.747361
vt 0.832036 0.723724
vt 0.833627 0.711530
vt 0.700056 0.757489
vt 0.841321 0.724550
vt 0.843992 0.712872
vt 0.856894 0.714205
vt 0.698323 0.649331
vt 0.701441 0.768100
vt 0.850406 0.728553
vt 0.747813 0.721311
vt 0.762676 0.741310
vt 0.864204 0.737162
vt 0.706420 0.664981
vt 0.713825 0.685674
vt 0.772741 0.723386
vt 0.753763 0.708795
vt 0.780726 0.681134
vt 0.801748 0.682659
vt 0.799295 0.655796
vt 0.771803 0.658085
vt 0.821807 0.686216
vt 0.837564 0.689921
vt 0.840883 0.668799
vt 0.826228 0.659829
vt 0.850283 0.692230
vt 0.854035 0.670076
vt 0.865037 0.693115
vt 0.874170 0.658856
vt 0.885811 0.698764
vt 0.908613 0.660122
vt 0.958542 0.623926
vt 0.963394 0.626046
vt 0.771228 0.602733
vt 0.776240 0.602497
vt 0.768819 0.700097
vt 0.928663 0.726725
vt 0.906845 0.759413
vt 0.717341 0.700468
vt 0.719825 0.695587
vt 0.912653 0.757819
vt 0.874026 0.717858
vt 0.896864 0.727541
vt 0.822129 0.606656
vt 0.896624 0.603724
vt 0.903372 0.603120
vt 0.817465 0.606301
vt 0.763465 0.685630
vt 0.757345 0.670354
vt 0.995219 0.680204
vt 0.995698 0.684472
vt 0.722340 0.634099
vt 0.725222 0.630620
vt 0.854568 0.631929
vt 0.847141 0.631935
vt 0.849722 0.633716
vt 0.852053 0.634819
vt 0.784130 0.634414
vt 0.774373 0.634044
vt 0.934266 0.647533
vt 0.947205 0.653803
vt 0.937580 0.678346
vt 0.902491 0.638392
vt 0.888038 0.636468
vt 0.810428 0.634176
vt 0.819267 0.636194
vt 0.749613 0.648168
vt 0.742493 0.653792
vt 0.964022 0.681204
vt 0.966035 0.691329
vt 0.943187 0.700256
vt 0.852946 0.651014
vt 0.845248 0.651326
vt 0.863810 0.647046
vt 0.838551 0.648522
vt 0.771524 0.614800
vt 0.779907 0.615005
vt 0.949864 0.631820
vt 0.958660 0.636112
vt 0.903411 0.616899
vt 0.892391 0.617665
vt 0.814241 0.616453
vt 0.820975 0.619081
vt 0.734609 0.636289
vt 0.729307 0.641642
vt 0.983239 0.679281
vt 0.984805 0.687833
vt 0.852820 0.640231
vt 0.847736 0.640928
vt 0.859057 0.637435
vt 0.842769 0.638501
vt 0.685719 0.686842
vt 0.684275 0.702061
vt 0.681618 0.716293
vt 0.680381 0.733108
vt 0.682426 0.748968
vt 0.684324 0.760511
vt 0.682522 0.655855
vt 0.684691 0.771661
vt 0.683458 0.670302
vt 0.903622 0.748461
vt 0.914800 0.745717
vt 0.726296 0.707926
vt 0.732041 0.698081
vt 0.932204 0.716323
vt 0.910101 0.708886
vt 0.426233 0.696271
vt 0.425575 0.669379
vt 0.379323 0.651978
vt 0.370553 0.690885
vt 0.424997 0.730671
vt 0.371404 0.732381
vt 0.425981 0.763893
vt 0.379087 0.768991
vt 0.428598 0.793873
vt 0.389890 0.803592
vt 0.428787 0.824994
vt 0.406934 0.835162
vt 0.429155 0.620012
vt 0.440676 0.849884
vt 0.426603 0.865873
vt 0.410795 0.608023
vt 0.421455 0.645075
vt 0.395305 0.624622
vt 0.518906 0.684233
vt 0.475079 0.678548
vt 0.476463 0.703034
vt 0.521298 0.704311
vt 0.516894 0.728369
vt 0.476006 0.728073
vt 0.517170 0.752222
vt 0.473789 0.757615
vt 0.474740 0.784204
vt 0.515050 0.772221
vt 0.471239 0.804581
vt 0.519891 0.789705
vt 0.480435 0.828759
vt 0.471577 0.637316
vt 0.520348 0.650130
vt 0.528512 0.813468
vt 0.519576 0.664113
vt 0.470255 0.658030
vt 0.616311 0.685348
vt 0.586402 0.684022
vt 0.584722 0.703355
vt 0.614518 0.703257
vt 0.610782 0.720343
vt 0.581580 0.722739
vt 0.607507 0.741063
vt 0.576206 0.744601
vt 0.576208 0.762413
vt 0.608060 0.759800
vt 0.582967 0.781263
vt 0.613175 0.776453
vt 0.592125 0.800396
vt 0.585424 0.652727
vt 0.615847 0.656083
vt 0.621975 0.793757
vt 0.588307 0.666271
vt 0.616218 0.667663
vt 0.651796 0.687892
vt 0.650202 0.703562
vt 0.647097 0.717501
vt 0.645439 0.735772
vt 0.646882 0.753040
vt 0.650507 0.767044
vt 0.656513 0.780942
vt 0.653148 0.659677
vt 0.652445 0.671925
vt 0.553396 0.687661
vt 0.550399 0.701982
vt 0.551240 0.723931
vt 0.544924 0.746516
vt 0.545321 0.765140
vt 0.554464 0.785067
vt 0.564055 0.805021
vt 0.557162 0.651584
vt 0.556371 0.668056
s 1
usemtl Material.002
f 4/6/1 3/3/2 2/2/3 1/1/4
f 24/34/5 23/33/6 22/32/7 21/31/8
f 26/36/9 28/38/10 27/37/11 25/35/12
f 29/39/13 27/37/11 28/38/10 30/40/14
f 41/51/15 29/39/13 104/115/16 42/52/17
f 40/50/18 39/49/19 38/48/20 37/47/21
f 15/24/22 14/21/23 13/20/24 16/26/25
f 18/28/26 17/27/27 20/30/28 19/29/29
f 56/66/30 55/65/31 54/64/32 53/63/33
f 19/29/29 20/30/28 58/68/34 57/67/35
f 70/80/36 69/79/37 67/77/38 48/58/39
f 28/38/10 24/34/5 65/75/40 63/73/41
f 101/112/42 38/48/20 39/49/19 102/113/43
f 25/35/12 22/32/7 23/33/6 26/36/9
f 30/40/14 59/69/44 60/70/45 61/71/46
f 57/67/35 76/86/47 77/87/48 59/69/44
f 19/29/29 30/40/14 62/72/49 64/74/50
f 79/89/51 62/72/49 63/73/41 80/90/52
f 81/91/53 82/92/54 65/75/40 64/74/50
f 52/62/55 49/59/56 85/95/57 83/93/58
f 43/53/59 44/54/60 80/90/52 82/92/54
f 71/81/61 72/82/62 88/98/63 87/97/64
f 79/89/51 80/90/52 44/54/60 45/55/65
f 90/100/66 54/64/32 55/65/31 88/98/63
f 102/113/43 16/26/25 13/20/24 101/112/42
f 84/94/67 86/96/68 50/60/69 51/61/70
f 103/114/71 36/46/72 42/52/17 104/115/16
f 36/46/72 103/114/71 47/57/73 35/45/74
f 68/78/75 69/79/37 70/80/36 61/71/46
f 49/59/56 52/62/55 51/61/70 50/60/69
f 109/120/76 110/121/77 108/119/78 105/116/79
f 111/122/80 112/123/81 110/121/77 109/120/76
f 132/145/82 131/144/83 129/142/84 130/143/85
f 111/122/80 113/124/86 114/125/87 112/123/81
f 65/75/40 24/34/5 19/29/29 64/74/50
f 87/97/64 88/98/63 55/65/31 56/66/30
f 128/141/88 111/122/80 109/120/76 126/139/89
f 95/105/90 94/104/91 5/8/92 7/10/93
f 123/136/94 122/135/95 121/134/96 124/137/97
f 119/132/98 120/133/99 118/130/100 117/128/101
f 126/139/89 123/136/94 124/137/97 125/138/102
f 132/145/82 130/143/85 165/183/103 166/184/104
f 152/169/105 151/168/106 149/164/107 150/166/108
f 129/142/84 128/141/88 127/140/109 130/143/85
f 126/139/89 125/138/102 127/140/109 128/141/88
f 121/134/96 135/150/110 168/187/111 161/179/112
f 106/117/113 119/132/98 136/151/114 122/135/95
f 139/154/115 138/153/116 137/152/117 140/155/118
f 131/144/83 132/145/82 134/148/119 133/146/120
f 98/109/121 160/178/122 159/176/123 97/107/124
f 122/135/95 136/151/114 135/150/110 121/134/96
f 135/150/110 136/151/114 133/146/120 134/148/119
f 7/11/93 9/13/125 96/106/126 95/105/90
f 122/135/95 123/136/94 105/116/79 106/117/113
f 95/105/90 157/174/127 156/173/128 94/104/91
f 142/157/129 139/154/115 140/155/118 141/156/130
f 157/174/127 146/161/131 143/158/132 156/173/128
f 97/108/124 96/106/126 9/14/125 12/17/133
f 164/182/134 144/159/135 145/160/136 165/183/103
f 113/124/86 115/126/137 116/127/138 114/125/87
f 150/166/108 149/164/107 147/162/139 148/163/140
f 142/157/129 141/156/130 143/158/132 144/159/135
f 161/179/112 168/187/111 151/168/106 138/153/116
f 148/163/140 147/162/139 145/160/136 146/161/131
f 167/185/141 166/184/104 147/162/139 149/165/107
f 145/160/136 144/159/135 143/158/132 146/161/131
f 47/57/73 48/58/39 20/30/28 17/27/27
f 5/7/92 94/104/91 93/103/142 4/5/1
f 138/153/116 151/168/106 152/169/105 137/152/117
f 141/156/130 155/172/143 156/173/128 143/158/132
f 137/152/117 153/170/144 154/171/145 140/155/118
f 159/176/123 158/175/146 96/106/126 97/107/124
f 146/161/131 157/174/127 158/175/146 148/163/140
f 106/117/113 105/116/79 108/119/78 107/118/147
f 74/84/148 90/100/66 88/98/63 72/82/62
f 154/171/145 153/170/144 91/101/149 92/102/150
f 162/180/151 124/137/97 121/134/96 161/179/112
f 66/76/152 20/30/28 48/58/39 67/77/38
f 34/44/153 76/86/47 75/85/154 33/43/155
f 73/83/156 74/84/148 24/34/5 28/38/10
f 22/32/7 25/35/12 10/15/157 8/12/158
f 124/137/97 162/180/151 163/181/159 125/138/102
f 6/9/160 5/7/92 4/5/1 1/1/4
f 86/96/68 69/79/37 68/78/75 85/95/57
f 149/165/107 151/168/106 168/187/111 167/185/141
f 2/2/3 3/4/2 15/25/22 35/45/74
f 132/145/82 166/184/104 167/186/141 134/149/119
f 18/28/26 1/1/4 2/2/3 17/27/27
f 4/6/1 93/103/142 92/102/150 3/3/2
f 100/111/161 99/110/162 42/52/17 36/46/72
f 92/102/150 93/103/142 155/172/143 154/171/145
f 164/182/134 127/140/109 125/138/102 163/181/159
f 15/24/22 91/101/149 98/109/121 14/21/23
f 95/105/90 96/106/126 158/175/146 157/174/127
f 14/23/23 98/109/121 97/108/124 12/19/133
f 75/85/154 58/68/34 60/70/45 78/88/163
f 74/84/148 72/82/62 23/33/6 24/34/5
f 62/72/49 79/89/51 81/91/53 64/74/50
f 31/41/164 34/44/153 33/43/155 32/42/165
f 45/55/65 44/54/60 43/53/59 46/56/166
f 32/42/165 33/43/155 75/85/154 78/88/163
f 57/67/35 59/69/44 30/40/14 19/29/29
f 123/136/94 126/139/89 109/120/76 105/116/79
f 119/132/98 117/129/101 133/147/120 136/151/114
f 129/142/84 113/124/86 111/122/80 128/141/88
f 129/142/84 131/144/83 115/126/137 113/124/86
f 163/181/159 162/180/151 139/154/115 142/157/129
f 141/156/130 140/155/118 154/171/145 155/172/143
f 166/184/104 165/183/103 145/160/136 147/162/139
f 139/154/115 162/180/151 161/179/112 138/153/116
f 142/157/129 144/159/135 164/182/134 163/181/159
f 152/169/105 150/167/108 159/177/123 160/178/122
f 72/82/62 71/81/61 26/36/9 23/33/6
f 107/118/147 108/119/78 110/121/77 112/123/81 114/125/87 116/127/138 118/131/100 120/133/99
f 115/126/137 117/128/101 118/131/100 116/127/138
f 18/28/26 19/29/29 24/34/5 21/31/8
f 94/104/91 156/173/128 155/172/143 93/103/142
f 100/111/161 40/50/18 37/47/21 99/110/162
f 92/102/150 91/101/149 15/25/22 3/4/2
f 57/67/35 58/68/34 75/85/154 76/86/47
f 5/8/92 6/9/160 8/12/158 7/10/93
f 10/15/157 9/13/125 7/11/93 8/12/158
f 61/71/46 60/70/45 58/68/34 20/30/28
f 36/46/72 35/45/74 15/25/22 16/26/25
f 45/55/65 46/56/166 81/91/53 79/89/51
f 68/78/75 61/71/46 20/30/28 66/76/152
f 59/69/44 77/87/48 78/88/163 60/70/45
f 27/37/11 29/39/13 41/51/15 11/16/167
f 25/35/12 27/37/11 11/16/167 10/15/157
f 86/96/68 85/95/57 49/59/56 50/60/69
f 10/15/157 11/16/167 12/18/133 9/14/125
f 83/93/58 66/76/152 67/77/38 84/94/67
f 69/79/37 86/96/68 84/94/67 67/77/38
f 29/39/13 30/40/14 61/71/46 104/115/16
f 89/99/168 53/63/33 54/64/32 90/100/66
f 42/52/17 99/110/162 101/112/42 13/20/24
f 73/83/156 89/99/168 90/100/66 74/84/148
f 48/58/39 47/57/73 103/114/71 70/80/36
f 63/73/41 62/72/49 30/40/14 28/38/10
f 34/44/153 31/41/164 77/87/48 76/86/47
f 78/88/163 77/87/48 31/41/164 32/42/165
f 17/27/27 2/2/3 35/45/74 47/57/73
f 21/31/8 6/9/160 1/1/4 18/28/26
f 115/126/137 131/144/83 133/147/120 117/129/101
f 82/92/54 81/91/53 46/56/166 43/53/59
f 41/51/15 42/52/17 13/20/24 14/22/23
f 100/111/161 102/113/43 39/49/19 40/50/18
f 56/66/30 53/63/33 89/99/168 87/97/64
f 65/75/40 82/92/54 80/90/52 63/73/41
f 106/117/113 107/118/147 120/133/99 119/132/98
f 61/71/46 70/80/36 103/114/71 104/115/16
f 102/113/43 100/111/161 36/46/72 16/26/25
f 71/81/61 73/83/156 28/38/10 26/36/9
f 71/81/61 87/97/64 89/99/168 73/83/156
f 99/110/162 37/47/21 38/48/20 101/112/42
f 21/31/8 22/32/7 8/12/158 6/9/160
f 66/76/152 83/93/58 85/95/57 68/78/75
f 83/93/58 84/94/67 51/61/70 52/62/55
f 14/23/23 12/19/133 11/16/167 41/51/15
f 91/101/149 153/170/144 160/178/122 98/109/121
f 165/183/103 130/143/85 127/140/109 164/182/134
f 168/187/111 135/150/110 134/149/119 167/186/141
f 137/152/117 152/169/105 160/178/122 153/170/144
f 150/167/108 148/163/140 158/175/146 159/177/123
