# Blender 4.2.0
# www.blender.org
mtllib floorHole.mtl
o Cube
v 0.548069 1.000000 -7.530234
v 0.548069 0.602252 -7.530234
v 0.548069 1.000000 7.665591
v 0.548069 0.602252 7.665591
v -8.774158 1.000000 -7.530234
v -8.774158 0.602252 -7.530234
v -8.774158 1.000000 7.665591
v -8.774158 0.602252 7.665591
v -8.774158 0.602252 0.067679
v 0.548069 1.000000 0.067679
v -8.774158 1.000000 0.067679
v 0.548069 0.602252 0.067679
v -8.774158 0.602252 3.866635
v 0.548069 1.000000 3.866635
v -8.774158 1.000000 3.866635
v 0.548069 0.602252 3.866635
v -2.559340 0.602252 -7.530234
v -5.666749 0.602252 -7.530234
v -2.559340 1.000000 7.665591
v -5.666749 1.000000 7.665591
v -5.666749 0.602252 7.665591
v -2.559340 0.602252 7.665591
v -5.666749 1.000000 -7.530234
v -2.559340 1.000000 -7.530234
v -2.698303 0.602252 0.407945
v -5.751574 0.602252 -1.083876
v -5.751574 1.000000 -1.083876
v -2.698303 1.000000 0.407945
v -2.210848 0.602252 3.827347
v -5.836191 0.602252 4.206849
v -5.836191 1.000000 4.206849
v -2.210848 1.000000 3.827347
v -8.774158 1.000000 1.967157
v 0.548069 0.602252 1.967157
v -8.774158 0.602252 1.967157
v 0.548069 1.000000 1.967157
v -3.164248 1.000000 2.211790
v -6.292799 1.000000 1.967157
v -6.292799 0.602252 1.967157
v -3.164248 0.602252 2.211790
v -8.774158 0.602252 2.902254
v 0.548069 1.000000 2.902254
v -2.628666 1.000000 2.902254
v -5.406821 1.000000 2.902254
v -5.406821 0.602252 2.902254
v -2.628666 0.602252 2.902254
v -8.774158 1.000000 2.902254
v 0.548069 0.602252 2.902254
v -8.774158 1.000000 1.017418
v 0.548069 0.602252 1.017418
v -8.774158 0.602252 1.017418
v 0.548069 1.000000 1.017418
v -1.863524 1.000000 1.536395
v -5.022509 1.000000 1.017418
v -5.022509 0.602252 1.017418
v -1.863524 0.602252 1.536395
v -8.774158 0.602252 3.384444
v 0.548069 1.000000 3.384444
v -2.559340 1.000000 3.091808
v -5.415959 1.000000 3.384444
v -5.415959 0.602252 3.384444
v -2.559340 0.602252 3.091808
v -8.774158 1.000000 3.384444
v 0.548069 0.602252 3.384444
v -8.774158 1.000000 2.434705
v 0.548069 0.602252 2.434705
v -8.774158 0.602252 2.434705
v 0.548069 1.000000 2.434705
v -2.998929 1.000000 2.621545
v -5.836468 1.000000 2.271957
v -5.836468 0.602252 2.271957
v -2.998929 0.602252 2.621545
v -8.774158 0.602252 1.492287
v 0.548069 1.000000 1.492287
v -2.675846 1.000000 1.802723
v -5.814878 1.000000 1.320896
v -5.814878 0.602252 1.320896
v -2.675846 0.602252 1.802723
v -8.774158 1.000000 1.492287
v 0.548069 0.602252 1.492287
v -8.774158 1.000000 0.542548
v 0.548069 0.602252 0.542548
v -8.774158 0.602252 0.542548
v 0.548069 1.000000 0.542548
v -2.559340 1.000000 1.139011
v -5.356050 1.000000 0.542548
v -5.356050 0.602252 0.542548
v -2.559340 0.602252 1.139011
v -4.113045 0.602252 -7.530234
v -4.113045 1.000000 7.665591
v -4.113045 0.602252 7.665591
v -4.113045 1.000000 -7.530234
v -4.113045 0.602252 0.973792
v -4.113045 1.000000 0.973792
v -4.113045 0.602252 3.563205
v -4.113045 1.000000 3.563205
v -4.889897 0.602252 -7.530234
v -4.889897 1.000000 7.665591
v -4.889897 0.602252 0.067679
v -4.889897 0.602252 3.224550
v -4.889897 0.602252 7.665591
v -4.889897 1.000000 -7.530234
v -4.889897 1.000000 0.067679
v -4.889897 1.000000 3.224550
v -5.278323 0.602252 -7.530234
v -5.278323 1.000000 7.665591
v -5.278323 0.602252 -0.123453
v -5.278323 0.602252 3.764816
v -5.278323 0.602252 7.665591
v -5.278323 1.000000 -7.530234
v -5.278323 1.000000 -0.123453
v -5.278323 1.000000 3.764816
v -4.501471 0.602252 7.665591
v -4.501471 1.000000 -7.530234
v -4.501471 1.000000 0.323580
v -4.500793 1.000000 2.948919
v -4.501471 0.602252 -7.530234
v -4.501471 1.000000 7.665591
v -4.501471 0.602252 0.323580
v -4.500793 0.602252 2.948919
v -3.336192 0.602252 7.665591
v -3.336192 1.000000 -7.530234
v -3.336192 1.000000 0.420327
v -3.336192 1.000000 3.866635
v -3.336192 0.602252 -7.530234
v -3.336192 1.000000 7.665591
v -3.336192 0.602252 0.420327
v -3.336192 0.602252 3.866635
v -3.724619 0.602252 -7.530234
v -3.724619 1.000000 7.665591
v -3.697036 0.602252 1.157710
v -3.689783 0.602252 3.941467
v -3.724619 0.602252 7.665591
v -3.724619 1.000000 -7.530234
v -3.697036 1.000000 1.157710
v -3.689783 1.000000 3.941467
v -2.947766 0.602252 7.665591
v -2.947766 1.000000 -7.530234
v -2.947766 1.000000 0.175616
v -2.947766 1.000000 3.506515
v -2.947766 0.602252 -7.530234
v -2.947766 1.000000 7.665591
v -2.947766 0.602252 0.175616
v -2.947766 0.602252 3.506515
vn -0.0000 1.0000 -0.0000
vn -0.0000 -0.0000 1.0000
vn -1.0000 -0.0000 -0.0000
vn -0.0000 -1.0000 -0.0000
vn 1.0000 -0.0000 -0.0000
vn -0.0000 -0.0000 -1.0000
vn -0.7295 -0.0000 -0.6840
vn -0.6210 -0.0000 -0.7838
vn -0.7133 -0.0000 -0.7008
vn -0.5780 -0.0000 -0.8160
vn 0.8456 -0.0000 -0.5338
vn 0.7694 -0.0000 -0.6388
vn 0.2935 -0.0000 -0.9559
vn -0.4791 -0.0000 -0.8778
vn -0.6799 -0.0000 -0.7333
vn 0.3992 -0.0000 -0.9169
vn -0.9037 -0.0000 0.4282
vn -0.9228 -0.0000 0.3853
vn -0.8271 -0.0000 0.5621
vn -0.8152 -0.0000 0.5792
vn -0.9274 -0.0000 0.3742
vn -0.6421 -0.0000 -0.7666
vn -0.4954 -0.0000 -0.8687
vn -0.3115 -0.0000 -0.9502
vn -0.4959 -0.0000 0.8684
vn -0.8607 -0.0000 0.5091
vn -0.8972 -0.0000 0.4416
vn -0.1218 -0.0000 0.9926
vn 0.7673 -0.0000 0.6413
vn 0.8982 -0.0000 0.4395
vn -0.4043 -0.0000 0.9146
vn -0.6921 -0.0000 0.7218
vn -0.7383 -0.0000 0.6745
vn -0.4979 -0.0000 0.8672
vn -0.7399 -0.0000 0.6727
vn -0.8970 -0.0000 0.4420
vn 0.9175 -0.0000 -0.3977
vn 0.9717 -0.0000 -0.2363
vn 0.8183 -0.0000 -0.5748
vn 0.6299 -0.0000 0.7767
vn 0.3577 -0.0000 0.9338
vn 0.8040 -0.0000 0.5946
vn 0.7154 -0.0000 -0.6987
vn 0.5554 -0.0000 -0.8316
vn 0.9674 -0.0000 -0.2534
vn 0.9740 -0.0000 0.2267
vn 0.8905 -0.0000 0.4550
vt 0.791667 0.687500
vt 0.875000 0.687500
vt 0.875000 0.750000
vt 0.791667 0.750000
vt 0.375000 0.916667
vt 0.625000 0.916667
vt 0.625000 1.000000
vt 0.375000 1.000000
vt 0.375000 0.125000
vt 0.625000 0.125000
vt 0.625000 0.250000
vt 0.375000 0.250000
vt 0.291667 0.687500
vt 0.375000 0.687500
vt 0.375000 0.750000
vt 0.291667 0.750000
vt 0.625000 0.687500
vt 0.625000 0.750000
vt 0.375000 0.416667
vt 0.625000 0.416667
vt 0.625000 0.500000
vt 0.375000 0.500000
vt 0.625000 0.625000
vt 0.375000 0.625000
vt 0.291667 0.500000
vt 0.291667 0.625000
vt 0.375000 0.117188
vt 0.625000 0.117188
vt 0.791667 0.500000
vt 0.875000 0.500000
vt 0.875000 0.625000
vt 0.791667 0.625000
vt 0.375000 0.000000
vt 0.625000 0.000000
vt 0.625000 0.062500
vt 0.375000 0.062500
vt 0.375000 0.679567
vt 0.625000 0.679567
vt 0.291667 0.679567
vt 0.791667 0.679567
vt 0.875000 0.679567
vt 0.708333 0.679567
vt 0.708333 0.687500
vt 0.125000 0.679567
vt 0.208333 0.679567
vt 0.208333 0.687500
vt 0.125000 0.687500
vt 0.708333 0.500000
vt 0.708333 0.625000
vt 0.781250 0.500000
vt 0.781250 0.625000
vt 0.125000 0.500000
vt 0.208333 0.500000
vt 0.208333 0.625000
vt 0.125000 0.625000
vt 0.281250 0.500000
vt 0.281250 0.625000
vt 0.625000 0.333333
vt 0.375000 0.333333
vt 0.375000 0.406250
vt 0.625000 0.406250
vt 0.208333 0.750000
vt 0.125000 0.750000
vt 0.281250 0.687500
vt 0.281250 0.750000
vt 0.625000 0.833333
vt 0.375000 0.833333
vt 0.375000 0.906250
vt 0.625000 0.906250
vt 0.708333 0.750000
vt 0.781250 0.687500
vt 0.781250 0.750000
vt 0.125000 0.648438
vt 0.208333 0.648438
vt 0.208333 0.656250
vt 0.125000 0.656250
vt 0.625000 0.648438
vt 0.708333 0.648438
vt 0.708333 0.656250
vt 0.625000 0.656250
vt 0.791667 0.648438
vt 0.875000 0.648438
vt 0.875000 0.656250
vt 0.791667 0.656250
vt 0.291667 0.648438
vt 0.375000 0.648438
vt 0.375000 0.656250
vt 0.291667 0.656250
vt 0.375000 0.086058
vt 0.625000 0.086058
vt 0.625000 0.093750
vt 0.375000 0.093750
vt 0.375000 0.070433
vt 0.625000 0.070433
vt 0.625000 0.078366
vt 0.375000 0.078366
vt 0.125000 0.663942
vt 0.208333 0.663942
vt 0.208333 0.671634
vt 0.125000 0.671634
vt 0.625000 0.663942
vt 0.708333 0.663942
vt 0.708333 0.671634
vt 0.625000 0.671634
vt 0.791667 0.663942
vt 0.875000 0.663942
vt 0.875000 0.671634
vt 0.791667 0.671634
vt 0.291667 0.663942
vt 0.375000 0.663942
vt 0.375000 0.671634
vt 0.291667 0.671634
vt 0.375000 0.632812
vt 0.625000 0.632812
vt 0.625000 0.640625
vt 0.375000 0.640625
vt 0.291667 0.632812
vt 0.291667 0.640625
vt 0.791667 0.632812
vt 0.875000 0.632812
vt 0.875000 0.640625
vt 0.791667 0.640625
vt 0.708333 0.632812
vt 0.708333 0.640625
vt 0.125000 0.632812
vt 0.208333 0.632812
vt 0.208333 0.640625
vt 0.125000 0.640625
vt 0.375000 0.101562
vt 0.625000 0.101562
vt 0.625000 0.109375
vt 0.375000 0.109375
vt 0.739583 0.687500
vt 0.750000 0.687500
vt 0.750000 0.750000
vt 0.739583 0.750000
vt 0.375000 0.864583
vt 0.625000 0.864583
vt 0.625000 0.875000
vt 0.375000 0.875000
vt 0.239583 0.687500
vt 0.250000 0.687500
vt 0.250000 0.750000
vt 0.239583 0.750000
vt 0.375000 0.364583
vt 0.625000 0.364583
vt 0.625000 0.375000
vt 0.375000 0.375000
vt 0.239583 0.500000
vt 0.250000 0.500000
vt 0.250000 0.625000
vt 0.239583 0.625000
vt 0.739583 0.500000
vt 0.750000 0.500000
vt 0.750000 0.625000
vt 0.739583 0.625000
vt 0.218750 0.500000
vt 0.229167 0.500000
vt 0.229167 0.625000
vt 0.218750 0.625000
vt 0.375000 0.343750
vt 0.625000 0.343750
vt 0.625000 0.354167
vt 0.375000 0.354167
vt 0.218750 0.687500
vt 0.229167 0.687500
vt 0.229167 0.750000
vt 0.218750 0.750000
vt 0.760417 0.687500
vt 0.770833 0.687500
vt 0.770833 0.750000
vt 0.760417 0.750000
vt 0.375000 0.885417
vt 0.625000 0.885417
vt 0.625000 0.895833
vt 0.375000 0.895833
vt 0.760417 0.500000
vt 0.770833 0.500000
vt 0.770833 0.625000
vt 0.760417 0.625000
vt 0.260417 0.687500
vt 0.729167 0.687500
vt 0.270833 0.687500
vt 0.718750 0.687500
vt 0.718750 0.500000
vt 0.729167 0.500000
vt 0.729167 0.625000
vt 0.718750 0.625000
vt 0.375000 0.843750
vt 0.625000 0.843750
vt 0.625000 0.854167
vt 0.375000 0.854167
vt 0.729167 0.750000
vt 0.718750 0.750000
vt 0.270833 0.750000
vt 0.260417 0.750000
vt 0.375000 0.385417
vt 0.625000 0.385417
vt 0.625000 0.395833
vt 0.375000 0.395833
vt 0.260417 0.500000
vt 0.270833 0.500000
vt 0.270833 0.625000
vt 0.260417 0.625000
s 0
usemtl Material
f 31/1/1 15/2/1 7/3/1 20/4/1
f 21/5/2 20/6/2 7/7/2 8/8/2
f 9/9/3 11/10/3 5/11/3 6/12/3
f 29/13/4 16/14/4 4/15/4 22/16/4
f 16/14/5 14/17/5 3/18/5 4/15/5
f 17/19/6 24/20/6 1/21/6 2/22/6
f 2/22/5 1/21/5 10/23/5 12/24/5
f 17/25/4 2/22/4 12/24/4 25/26/4
f 83/27/3 81/28/3 11/10/3 9/9/3
f 23/29/1 5/30/1 11/31/1 27/32/1
f 8/33/3 7/34/3 15/35/3 13/36/3
f 64/37/5 58/38/5 14/17/5 16/14/5
f 62/39/4 64/37/4 16/14/4 29/13/4
f 60/40/1 63/41/1 15/2/1 31/1/1
f 58/38/1 59/42/1 32/43/1 14/17/1
f 57/44/4 61/45/4 30/46/4 13/47/4
f 1/21/1 24/48/1 28/49/1 10/23/1
f 110/50/1 23/29/1 27/32/1 111/51/1
f 6/52/4 18/53/4 26/54/4 9/55/4
f 141/56/4 17/25/4 25/26/4 143/57/4
f 6/12/6 5/11/6 23/58/6 18/59/6
f 141/60/6 138/61/6 24/20/6 17/19/6
f 13/47/4 30/46/4 21/62/4 8/63/4
f 144/64/4 29/13/4 22/16/4 137/65/4
f 4/15/2 3/18/2 19/66/2 22/67/2
f 109/68/2 106/69/2 20/6/2 21/5/2
f 14/17/1 32/43/1 19/70/1 3/18/1
f 112/71/1 31/1/1 20/4/1 106/72/1
f 73/73/4 77/74/4 39/75/4 35/76/4
f 74/77/1 75/78/1 37/79/1 36/80/1
f 76/81/1 79/82/1 33/83/1 38/84/1
f 78/85/4 80/86/4 34/87/4 40/88/4
f 80/86/5 74/77/5 36/80/5 34/87/5
f 67/89/3 65/90/3 33/91/3 35/92/3
f 57/93/3 63/94/3 47/95/3 41/96/3
f 67/97/4 71/98/4 45/99/4 41/100/4
f 68/101/1 69/102/1 43/103/1 42/104/1
f 70/105/1 65/106/1 47/107/1 44/108/1
f 72/109/4 66/110/4 48/111/4 46/112/4
f 66/110/5 68/101/5 42/104/5 48/111/5
f 82/113/5 84/114/5 52/115/5 50/116/5
f 88/117/4 82/113/4 50/116/4 56/118/4
f 86/119/1 81/120/1 49/121/1 54/122/1
f 84/114/1 85/123/1 53/124/1 52/115/1
f 83/125/4 87/126/4 55/127/4 51/128/4
f 73/129/3 79/130/3 49/131/3 51/132/3
f 13/36/3 15/35/3 63/94/3 57/93/3
f 41/100/4 45/99/4 61/45/4 57/44/4
f 42/104/1 43/103/1 59/42/1 58/38/1
f 44/108/1 47/107/1 63/41/1 60/40/1
f 46/112/4 48/111/4 64/37/4 62/39/4
f 48/111/5 42/104/5 58/38/5 64/37/5
f 34/87/5 36/80/5 68/101/5 66/110/5
f 40/88/4 34/87/4 66/110/4 72/109/4
f 38/84/1 33/83/1 65/106/1 70/105/1
f 36/80/1 37/79/1 69/102/1 68/101/1
f 35/76/4 39/75/4 71/98/4 67/97/4
f 41/96/3 47/95/3 65/90/3 67/89/3
f 35/92/3 33/91/3 79/130/3 73/129/3
f 50/116/5 52/115/5 74/77/5 80/86/5
f 56/118/4 50/116/4 80/86/4 78/85/4
f 54/122/1 49/121/1 79/82/1 76/81/1
f 52/115/1 53/124/1 75/78/1 74/77/1
f 51/128/4 55/127/4 77/74/4 73/73/4
f 9/55/4 26/54/4 87/126/4 83/125/4
f 10/23/1 28/49/1 85/123/1 84/114/1
f 27/32/1 11/31/1 81/120/1 86/119/1
f 25/26/4 12/24/4 82/113/4 88/117/4
f 12/24/5 10/23/5 84/114/5 82/113/5
f 51/132/3 49/131/3 81/28/3 83/27/3
f 136/133/1 96/134/1 90/135/1 130/136/1
f 133/137/2 130/138/2 90/139/2 91/140/2
f 120/141/4 95/142/4 91/143/4 113/144/4
f 117/145/6 114/146/6 92/147/6 89/148/6
f 117/149/4 89/150/4 93/151/4 119/152/4
f 134/153/1 92/154/1 94/155/1 135/156/1
f 105/157/4 97/158/4 99/159/4 107/160/4
f 105/161/6 110/162/6 102/163/6 97/164/6
f 108/165/4 100/166/4 101/167/4 109/168/4
f 116/169/1 104/170/1 98/171/1 118/172/1
f 113/173/2 118/174/2 98/175/2 101/176/2
f 114/177/1 102/178/1 103/179/1 115/180/1
f 30/46/4 108/165/4 109/168/4 21/62/4
f 18/59/6 23/58/6 110/162/6 105/161/6
f 18/53/4 105/157/4 107/160/4 26/54/4
f 104/170/1 112/71/1 106/72/1 98/171/1
f 101/176/2 98/175/2 106/69/2 109/68/2
f 102/178/1 110/50/1 111/51/1 103/179/1
f 92/154/1 114/177/1 115/180/1 94/155/1
f 91/140/2 90/139/2 118/174/2 113/173/2
f 96/134/1 116/169/1 118/172/1 90/135/1
s 1
f 108/165/7 30/46/8 31/1/8 112/71/7
s 0
f 97/158/4 117/149/4 119/152/4 99/159/4
f 97/164/6 102/163/6 114/146/6 117/145/6
f 100/166/4 120/141/4 113/144/4 101/167/4
s 1
f 112/71/7 104/170/9 100/166/9 108/165/7
f 120/141/10 100/166/9 104/170/9 116/169/10
f 116/169/11 96/134/12 95/142/12 120/141/11
f 132/181/13 95/142/12 96/134/12 136/133/13
f 136/133/13 124/182/14 128/183/14 132/181/13
f 144/64/15 128/183/14 124/182/14 140/184/15
f 140/184/16 32/43/16 29/13/16 144/64/16
s 0
f 138/185/1 122/186/1 123/187/1 139/188/1
f 137/189/2 142/190/2 126/191/2 121/192/2
f 140/184/1 124/182/1 126/193/1 142/194/1
s 1
f 32/43/17 59/42/18 62/39/18 29/13/17
f 59/42/18 43/103/19 46/112/19 62/39/18
f 43/103/19 69/102/20 72/109/20 46/112/19
f 69/102/20 37/79/21 40/88/21 72/109/20
f 37/79/22 75/78/23 78/85/23 40/88/22
f 75/78/23 53/124/24 56/118/24 78/85/23
f 53/124/25 85/123/26 88/117/26 56/118/25
s 0
f 132/181/4 128/183/4 121/195/4 133/196/4
f 129/197/6 134/198/6 122/199/6 125/200/6
f 129/201/4 125/202/4 127/203/4 131/204/4
s 1
f 85/123/26 28/49/27 25/26/27 88/117/26
f 139/188/28 143/57/28 25/26/27 28/49/27
s 0
f 89/150/4 129/201/4 131/204/4 93/151/4
f 89/148/6 92/147/6 134/198/6 129/197/6
f 95/142/4 132/181/4 133/196/4 91/143/4
s 1
f 143/57/28 139/188/28 123/187/29 127/203/29
f 135/156/30 131/204/30 127/203/29 123/187/29
f 131/204/31 135/156/31 94/155/32 93/151/32
f 115/180/33 119/152/33 93/151/32 94/155/32
f 119/152/33 115/180/33 103/179/34 99/159/34
f 111/51/35 107/160/35 99/159/34 103/179/34
f 107/160/35 111/51/35 27/32/36 26/54/36
s 0
f 122/186/1 134/153/1 135/156/1 123/187/1
f 121/192/2 126/191/2 130/138/2 133/137/2
f 124/182/1 136/133/1 130/136/1 126/193/1
f 32/43/1 140/184/1 142/194/1 19/70/1
f 22/67/2 19/66/2 142/190/2 137/189/2
f 24/48/1 138/185/1 139/188/1 28/49/1
s 1
f 86/119/37 87/126/37 26/54/38 27/32/38
f 54/122/39 55/127/39 87/126/37 86/119/37
f 76/81/40 77/74/40 55/127/41 54/122/41
f 38/84/42 39/75/42 77/74/40 76/81/40
f 70/105/43 71/98/43 39/75/44 38/84/44
f 44/108/45 45/99/45 71/98/43 70/105/43
f 60/40/46 61/45/46 45/99/45 44/108/45
s 0
f 128/183/4 144/64/4 137/65/4 121/195/4
f 125/200/6 122/199/6 138/61/6 141/60/6
f 125/202/4 141/56/4 143/57/4 127/203/4
s 1
f 31/1/47 30/46/47 61/45/46 60/40/46
