# Blender 3.3.0
# www.blender.org
mtllib rockA.mtl
o Icosphere.002
v -0.000945 -0.071087 0.414871
v 0.149236 -0.028081 0.513943
v -0.053030 -0.028081 0.559768
v -0.169500 -0.028081 0.414871
v -0.063102 -0.028081 0.254568
v 0.093115 -0.028081 0.315799
v 0.005486 0.009713 0.515032
v -0.137308 0.073782 0.460629
v -0.100189 0.080288 0.362540
v 0.022510 0.033902 0.353198
v 0.125630 0.053310 0.414871
v -0.000945 0.113886 0.414871
vn 0.0156 -0.9999 -0.0025
vn 0.7720 -0.2123 0.5991
vn -0.2075 -0.2594 0.9432
vn 0.6157 -0.2580 -0.7446
vn -0.9064 -0.4219 -0.0213
vn -0.2093 -0.2258 -0.9514
vn 0.7397 0.6674 -0.0864
vn 0.1556 0.6903 0.7066
vn -0.6616 0.6388 0.3928
vn -0.4304 0.7379 -0.5198
vn 0.2517 0.6819 -0.6868
vn 0.1897 0.9818 -0.0074
vt 0.302958 0.311811
vt 0.517037 0.568434
vt 0.365812 0.568434
vt 0.662594 0.604099
vt 0.134170 0.547212
vt 0.165245 0.568434
vt 1.000000 0.455945
vt 0.000000 0.230753
vt 0.000000 0.870092
vt 1.000000 0.120758
vt 0.270015 0.000000
vt 0.668028 0.000000
vt 0.517037 0.188015
vt 0.365812 0.949452
vt 0.517037 0.255383
vt 0.852283 0.468233
vt 0.215018 0.870092
vt 0.967668 0.263100
vt 0.801548 0.162101
vt 0.635477 0.260063
vt 0.215018 0.756698
vt 0.552521 0.467529
vt 0.708058 0.357583
s 1
f 1/1/1 2/2/2 3/5/3
f 2/2/2 1/1/1 6/13/4
f 1/1/1 3/5/3 4/8/5
f 1/1/1 4/8/5 5/11/6
f 1/1/1 5/11/6 6/13/4
f 2/3/2 6/14/4 11/21/7
f 3/7/3 2/4/2 7/16/8
f 4/9/5 3/6/3 8/17/9
f 5/12/6 4/10/5 9/19/10
f 6/15/4 5/12/6 10/20/11
f 2/4/2 11/22/7 7/16/8
f 3/7/3 7/16/8 8/18/9
f 4/10/5 8/18/9 9/19/10
f 5/12/6 9/19/10 10/20/11
f 6/15/4 10/20/11 11/22/7
f 7/16/8 11/22/7 12/23/12
f 8/18/9 7/16/8 12/23/12
f 9/19/10 8/18/9 12/23/12
f 10/20/11 9/19/10 12/23/12
f 11/22/7 10/20/11 12/23/12
